<?xml version="1.0" encoding="UTF-8"?>
<svg version="1.1" xmlns="http://www.w3.org/2000/svg" width="322" height="370">
<path d="M0 0 C106.26 0 212.52 0 322 0 C322 122.1 322 244.2 322 370 C215.74 370 109.48 370 0 370 C0 247.9 0 125.8 0 0 Z " fill="#FEA67F" transform="translate(0,0)"/>
<path d="M0 0 C106.26 0 212.52 0 322 0 C322 122.1 322 244.2 322 370 C215.74 370 109.48 370 0 370 C0 247.9 0 125.8 0 0 Z M102.94921875 21.83984375 C99.79155249 25.33922139 96 30.09244557 96 35 C95.34 35.185625 94.68 35.37125 94 35.5625 C84.63019909 40.05219627 79.31375987 47.99911629 75.6875 57.4375 C71.09269938 73.67871362 71.35184672 100.70369344 79 116 C78.278125 116.04125 77.55625 116.0825 76.8125 116.125 C72.83391804 117.36278105 71.39255176 119.67701145 69 123 C65.89304349 132.32086953 67.52277542 143.28830514 71.37890625 152.08203125 C74.9662637 158.53927465 79.74814325 164.68557763 87 167 C89.3330382 167.03711089 91.66703076 167.04121854 94 167 C94.1451001 167.53254395 94.2902002 168.06508789 94.43969727 168.61376953 C101.03035737 192.95357257 101.03035737 192.95357257 116.58520508 212.23144531 C119.81254104 216.2657545 118.46411516 223.13385589 118.4375 228.0625 C118.45748047 229.34833984 118.47746094 230.63417969 118.49804688 231.95898438 C118.49429341 239.31201627 118.43961686 246.81291174 114 253 C109.48656527 257.04027266 104.63300448 259.15175911 98.91796875 260.9453125 C97.34210182 261.46469994 95.76625631 261.98415237 94.19042969 262.50366211 C92.96471252 262.90027542 92.96471252 262.90027542 91.7142334 263.30490112 C79.04786875 267.41600815 66.51228241 271.73344024 54.25 276.9375 C53.24219482 277.36111816 52.23438965 277.78473633 51.19604492 278.22119141 C32.29672899 286.41674051 19.20816463 297.93430278 11.34765625 317.21875 C8.95985741 323.65821316 7.43480734 330.29503493 6 337 C5.773125 338.00546875 5.54625 339.0109375 5.3125 340.046875 C3.54701988 348.92331672 3.58094072 357.98535261 4 367 C5.67635751 368.67635751 7.7227018 368.12544905 10.02410889 368.12584114 C11.11926945 368.12844889 12.21443001 368.13105664 13.34277725 368.13374341 C14.56094006 368.13151268 15.77910286 368.12928196 17.03417969 368.12698364 C18.31656399 368.12854363 19.59894829 368.13010362 20.92019272 368.13171089 C24.49610571 368.13590867 28.07199223 368.13381151 31.64790535 368.13072467 C35.49797882 368.1284726 39.34804757 368.13194921 43.19812012 368.13470459 C50.74689801 368.13916337 58.29566599 368.13818534 65.84444427 368.13529195 C71.97665997 368.13303834 78.10887288 368.13272521 84.24108887 368.13381577 C85.11212808 368.133969 85.9831673 368.13412223 86.88060164 368.13428011 C88.64981238 368.13459982 90.41902312 368.13492403 92.18823385 368.1352527 C108.79845404 368.13810781 125.40866871 368.13481999 142.018888 368.12945233 C156.28733434 368.12498427 170.55577255 368.12576019 184.82421875 368.13037109 C201.37289184 368.13571632 217.92156009 368.13783311 234.47023392 368.13475883 C236.23312632 368.13444026 237.99601873 368.13412589 239.75891113 368.13381577 C240.62640606 368.13366149 241.49390098 368.13350721 242.38768363 368.13334826 C248.51622874 368.13248295 254.64477079 368.13394629 260.77331543 368.13629532 C268.23665629 368.13909294 275.69998662 368.13835586 283.16332626 368.13301457 C286.97501454 368.13037705 290.78668524 368.12937336 294.59837341 368.13266373 C298.72087118 368.13616871 302.84332413 368.13199856 306.96582031 368.12698364 C308.18398312 368.12921436 309.40214592 368.13144509 310.65722275 368.13374341 C312.29996359 368.12983178 312.29996359 368.12983178 313.97589111 368.12584114 C314.92882679 368.12567879 315.88176247 368.12551644 316.86357498 368.12534916 C318.98308451 368.23840763 318.98308451 368.23840763 320 367 C321.77183052 343.35287736 315.74357625 314.38723663 300.02319336 295.97241211 C292.9820173 288.24273271 285.39178885 282.87687278 275.80859375 278.71875 C275.11521912 278.41700363 274.42184448 278.11525726 273.7074585 277.80436707 C265.51535035 274.29273758 257.14529303 271.2960607 248.75 268.3125 C247.18993287 267.75243005 245.6300365 267.19188421 244.0703125 266.63085938 C236.53936696 263.92939764 228.99615967 261.28834764 221.38549805 258.81787109 C214.76342247 256.54748391 211.39850713 253.76778134 208.09008789 247.57885742 C206.28238577 243.30231598 205.96519483 239.0970205 205.6875 234.5 C205.61466797 233.61441406 205.54183594 232.72882813 205.46679688 231.81640625 C205.26597897 229.21151113 205.12733037 226.60939709 205 224 C204.93514404 223.18088135 204.87028809 222.3617627 204.8034668 221.51782227 C204.59449925 217.53754693 204.55975414 215.64060827 206.87109375 212.27734375 C207.71800781 211.50519531 208.56492188 210.73304688 209.4375 209.9375 C221.11807366 198.05838968 227.58108658 182.3780596 230 166 C230.66 166.33 231.32 166.66 232 167 C237.26066309 167.34925564 241.15928929 166.35967115 245.25 163 C253.3766381 155.06723796 257.0774139 144.57976367 257.375 133.375 C257.20551162 127.37228642 256.78755861 122.03286377 252.53515625 117.40625 C249.66700912 114.77399422 249.66700912 114.77399422 246 114 C246.14622803 113.29504395 246.29245605 112.59008789 246.44311523 111.86376953 C247.11315186 108.61857033 247.77536746 105.37182073 248.4375 102.125 C248.66759766 101.01640625 248.89769531 99.9078125 249.13476562 98.765625 C252.95058038 79.96305956 254.94668965 59.6099312 244.73828125 42.41015625 C240.71384177 36.83020309 235.47189045 32.44493639 229 30 C226.24853726 29.74715633 226.24853726 29.74715633 224 30 C223.79375 29.154375 223.5875 28.30875 223.375 27.4375 C219.46931251 17.67328128 211.46766526 13.85864012 202.29101562 9.90478516 C171.91297846 -2.09233822 127.97297608 -1.47672726 102.94921875 21.83984375 Z " fill="#FEFBF6" transform="translate(0,0)"/>
<path d="M0 0 C1.12913312 1.81435903 2.17764964 3.67914063 3.1875 5.5625 C11.28341689 19.68482537 23.96333845 26.71330277 39.2734375 31.08984375 C58.24527294 35.7234262 79.10417768 33.94670076 96.06640625 23.97265625 C105.47389324 17.64671626 111.92864525 10.14270949 117 0 C122.07170205 0.58070744 126.64103747 1.71728232 131.453125 3.44140625 C132.4939045 3.80634186 132.4939045 3.80634186 133.55570984 4.1786499 C135.7900141 4.96541343 138.02027447 5.76285964 140.25 6.5625 C141.01055695 6.8335556 141.77111389 7.10461121 142.55471802 7.38388062 C170.02764674 17.18578345 193.19869988 25.57975771 206.69140625 53.5 C212.9281891 68.00560022 216.15653643 84.15351611 216.125 99.9375 C216.12757813 101.24589844 216.13015625 102.55429687 216.1328125 103.90234375 C216 107 216 107 215 108 C213.32764781 108.0981209 211.6511193 108.12555573 209.97589111 108.12584114 C208.88073055 108.12844889 207.78556999 108.13105664 206.65722275 108.13374341 C205.43905994 108.13151268 204.22089714 108.12928196 202.96582031 108.12698364 C201.68343601 108.12854363 200.40105171 108.13010362 199.07980728 108.13171089 C195.50389429 108.13590867 191.92800777 108.13381151 188.35209465 108.13072467 C184.50202118 108.1284726 180.65195243 108.13194921 176.80187988 108.13470459 C169.25310199 108.13916337 161.70433401 108.13818534 154.15555573 108.13529195 C148.02334003 108.13303834 141.89112712 108.13272521 135.75891113 108.13381577 C134.45235231 108.13404561 134.45235231 108.13404561 133.11939836 108.13428011 C131.35018762 108.13459982 129.58097688 108.13492403 127.81176615 108.1352527 C111.20154596 108.13810781 94.59133129 108.13481999 77.981112 108.12945233 C63.71266566 108.12498427 49.44422745 108.12576019 35.17578125 108.13037109 C18.62710816 108.13571632 2.07843991 108.13783311 -14.47023392 108.13475883 C-16.23312632 108.13444026 -17.99601873 108.13412589 -19.75891113 108.13381577 C-21.06015352 108.13358435 -21.06015352 108.13358435 -22.38768363 108.13334826 C-28.51622874 108.13248295 -34.64477079 108.13394629 -40.77331543 108.13629532 C-48.23665629 108.13909294 -55.69998662 108.13835586 -63.16332626 108.13301457 C-66.97501454 108.13037705 -70.78668524 108.12937336 -74.59837341 108.13266373 C-78.72087118 108.13616871 -82.84332413 108.13199856 -86.96582031 108.12698364 C-88.18398312 108.12921436 -89.40214592 108.13144509 -90.65722275 108.13374341 C-91.75238331 108.13113566 -92.84754387 108.12852791 -93.97589111 108.12584114 C-95.40529463 108.12559761 -95.40529463 108.12559761 -96.86357498 108.12534916 C-99 108 -99 108 -100 107 C-102.11656552 82.56878657 -95.86349812 55.05332954 -80.234375 35.828125 C-65.20936141 19.54050522 -23.00566525 0 0 0 Z " fill="#5184A7" transform="translate(104,260)"/>
<path d="M0 0 C20.32785638 -0.6646598 45.854629 1.5954352 61.79492188 15.80029297 C64.95714314 19.25137098 66.73310132 22.46401619 67.85742188 27.07373047 C68.84742188 27.13560547 69.83742187 27.19748047 70.85742188 27.26123047 C77.75543503 28.27851322 83.22660628 32.65087814 87.47851562 38.00341797 C100.17607392 57.06774062 96.22578896 80.38660433 91.99023438 101.53076172 C91.31155876 104.72053709 90.60938959 107.90053337 89.85742188 111.07373047 C88.80554688 111.23873047 87.75367188 111.40373047 86.66992188 111.57373047 C83.23871975 112.53919018 81.93030525 113.88880959 80.04492188 116.88623047 C78.39932742 119.85804414 76.96366675 122.85556355 75.85742188 126.07373047 C75.19742188 126.07373047 74.53742188 126.07373047 73.85742188 126.07373047 C73.80730957 125.31866211 73.75719727 124.56359375 73.70556641 123.78564453 C73.47059921 120.2979002 73.22655631 116.81084465 72.98242188 113.32373047 C72.90378906 112.13650391 72.82515625 110.94927734 72.74414062 109.72607422 C72.33372373 103.9486672 71.83322182 98.19467653 71.03710938 92.45654297 C70.90804199 91.52213379 70.77897461 90.58772461 70.64599609 89.625 C69.38004478 85.52927516 66.58753713 83.34260234 63.44335938 80.56982422 C58.44228527 75.74250344 54.79072416 69.77488884 50.85742188 64.07373047 C49.86610078 62.73393188 48.87044509 61.39719628 47.85742188 60.07373047 C47.03504028 60.37609619 47.03504028 60.37609619 46.19604492 60.68457031 C43.64891593 61.61512358 41.09703342 62.53193488 38.54492188 63.44873047 C37.68318359 63.76583984 36.82144531 64.08294922 35.93359375 64.40966797 C35.06669922 64.71904297 34.19980469 65.02841797 33.30664062 65.34716797 C32.13621216 65.7713501 32.13621216 65.7713501 30.94213867 66.20410156 C22.10872381 68.69437649 13.72091347 69.32424368 4.57617188 69.12841797 C2.24675064 69.10313413 -0.08267675 69.07841157 -2.41210938 69.05419922 C-6.03259112 69.00460358 -9.65274088 68.94854321 -13.27294922 68.88183594 C-16.80242887 68.82104061 -20.33148876 68.78577911 -23.86132812 68.75341797 C-24.92935669 68.72649872 -25.99738525 68.69957947 -27.09777832 68.67184448 C-35.39293319 68.61714452 -42.95284169 70.10371352 -49.82617188 74.97607422 C-60.12854529 86.9304986 -60.29315771 102.36122071 -61.81713867 117.41748047 C-62.13434967 120.0065695 -62.59666205 122.52400507 -63.14257812 125.07373047 C-64.13257812 125.07373047 -65.12257813 125.07373047 -66.14257812 125.07373047 C-66.48289062 123.74341797 -66.48289062 123.74341797 -66.83007812 122.38623047 C-68.34198895 118.57045552 -70.0054014 116.68804441 -73.14257812 114.07373047 C-75.23706582 113.42194653 -75.23706582 113.42194653 -77.14257812 113.07373047 C-82.81141272 92.43917256 -87.40998411 65.9519336 -76.63476562 46.32763672 C-72.84656649 40.39866458 -68.14885426 35.76801844 -62.14257812 32.07373047 C-61.48257813 32.07373047 -60.82257813 32.07373047 -60.14257812 32.07373047 C-59.83320312 30.83623047 -59.83320312 30.83623047 -59.51757812 29.57373047 C-55.62986565 19.67773508 -47.62083724 13.10360826 -38.26757812 8.44873047 C-26.14224642 3.29119501 -13.11927501 0.45146092 0 0 Z " fill="#34292D" transform="translate(156.142578125,2.92626953125)"/>
<path d="M0 0 C0.639375 0.66 1.27875 1.32 1.9375 2 C2.95364702 3.00476162 3.9752327 4.00403179 5 5 C5.64324219 5.62777344 6.28648438 6.25554687 6.94921875 6.90234375 C18.72421135 17.91629554 30.44650111 21.65127711 46.26171875 21.30859375 C57.88832593 20.75384967 68.4715242 15.50436908 76.6875 7.32421875 C78.85613069 4.92855953 80.95893427 2.50471523 83 0 C83.99 0.495 83.99 0.495 85 1 C85.33129883 2.8984375 85.33129883 2.8984375 85.45703125 5.375 C85.54887695 6.73044922 85.54887695 6.73044922 85.64257812 8.11328125 C85.75398729 10.0059565 85.85588897 11.89922063 85.94726562 13.79296875 C86.42384208 20.48391337 87.90517777 25.59986684 92 31 C94.31772361 33.02294281 94.31772361 33.02294281 96.8125 34.0625 C97.60269531 34.44535156 98.39289063 34.82820313 99.20703125 35.22265625 C99.79871094 35.47917969 100.39039063 35.73570312 101 36 C99.85386787 44.83476849 92.35419283 52.54526641 85.73046875 58.0859375 C69.02861619 69.79396004 49.93897936 73.26269791 29.875 70.49609375 C12.76422833 67.42807629 -1.34972435 59.95812597 -12 46 C-14.25478582 42.69766496 -16 40.11393572 -16 36 C-14.783125 35.505 -13.56625 35.01 -12.3125 34.5 C-7.46300264 32.05379337 -5.12627724 28.94402675 -3 24 C-2.3132397 21.60011235 -1.78125104 19.24469357 -1.359375 16.78515625 C-1 15 -1 15 0 14 C0.07271741 11.64686445 0.08370868 9.29166332 0.0625 6.9375 C0.05347656 5.64714844 0.04445313 4.35679687 0.03515625 3.02734375 C0.02355469 2.02832031 0.01195313 1.02929688 0 0 Z " fill="#FEA57E" transform="translate(120,223)"/>
<path d="M0 0 C0.65484375 0.43570313 1.3096875 0.87140625 1.984375 1.3203125 C18.66694 12.20639305 34.25981698 18.87998418 54.4375 14.9375 C65.25292292 12.1649853 74.99923056 6.50055571 84 0 C84.40524896 4.26577851 84.37973266 6.41395589 82.015625 10.0625 C81.1166957 11.06277346 80.19329279 12.04144923 79.25 13 C78.75701416 13.51618896 78.26402832 14.03237793 77.75610352 14.56420898 C72.81232658 19.53291907 67.35719364 23.04597795 61 26 C60.236875 26.35835937 59.47375 26.71671875 58.6875 27.0859375 C48.31752086 31.01068655 33.58539151 30.78918462 23.48046875 26.32421875 C14.23144172 21.3865492 5.90121049 15.85181573 0 7 C-0.07905064 4.66800612 -0.08798769 2.33167378 0 0 Z " fill="#E27A55" transform="translate(120,216)"/>
<path d="M0 0 C2.125 0.375 2.125 0.375 4 1 C2.19103929 14.35551841 2.19103929 14.35551841 0.875 20.4375 C0.05375841 24.42544916 -0.42346241 27.93476085 0 32 C3.28491373 34.18994248 4.83095639 34.35277339 8.6875 34.625 C9.68136719 34.69976562 10.67523438 34.77453125 11.69921875 34.8515625 C12.45847656 34.90054688 13.21773437 34.94953125 14 35 C14.5625 36.9375 14.5625 36.9375 15 39 C13.03039628 40.96960372 9.42904385 40.2746604 6.75 40.3125 C6.08097656 40.34150391 5.41195312 40.37050781 4.72265625 40.40039062 C1.08482619 40.44684622 -0.84355234 40.10143999 -3.921875 38.10546875 C-6.80523238 35.18417246 -7.16191919 33.58914369 -7.2109375 29.59375 C-7.14936653 23.69142969 -5.99722636 18.22017955 -4.625 12.5 C-4.40328125 11.51257813 -4.1815625 10.52515625 -3.953125 9.5078125 C-2.26688058 2.26688058 -2.26688058 2.26688058 0 0 Z " fill="#C76745" transform="translate(157,130)"/>
<path d="M0 0 C-0.50849515 4.57645631 -0.50849515 4.57645631 -2.58203125 6.36328125 C-13.47868072 11.00055939 -28.20387963 10.76802817 -39.3203125 6.8515625 C-41 6 -41 6 -43 4 C-43 3.01 -43 2.02 -43 1 C-41.4372038 1.14262412 -39.87477304 1.28925511 -38.3125 1.4375 C-37.00732422 1.55931641 -37.00732422 1.55931641 -35.67578125 1.68359375 C-33 2 -33 2 -30.5859375 2.51953125 C-22.31933332 4.0554713 -13.95868268 3.55814925 -6.0859375 0.65625 C-4 0 -4 0 0 0 Z " fill="#CC6946" transform="translate(183,187)"/>
<path d="M0 0 C1.10794922 -0.0309375 1.10794922 -0.0309375 2.23828125 -0.0625 C7.49437383 -0.09958002 11.07994905 0.80829823 15.75 3.25 C16.41 3.91 17.07 4.57 17.75 5.25 C17.375 7.375 17.375 7.375 16.75 9.25 C10.109375 8.3203125 10.109375 8.3203125 6.875 7.6875 C-0.53599254 6.64996104 -7.85251325 7.38515813 -15.25 8.25 C-15.58 6.93 -15.91 5.61 -16.25 4.25 C-10.68533024 0.79088096 -6.48121459 0.044316 0 0 Z " fill="#2C2129" transform="translate(196.25,102.75)"/>
<path d="M0 0 C1.25466064 -0.01498535 1.25466064 -0.01498535 2.53466797 -0.03027344 C8.54196634 0.05448989 8.54196634 0.05448989 11.76171875 1.96484375 C12.23222656 2.45082031 12.70273438 2.93679687 13.1875 3.4375 C12.8575 4.7575 12.5275 6.0775 12.1875 7.4375 C10.90875 7.41429688 9.63 7.39109375 8.3125 7.3671875 C6.60417255 7.34841467 4.89583873 7.33021611 3.1875 7.3125 C2.34832031 7.29574219 1.50914062 7.27898437 0.64453125 7.26171875 C-4.88733862 7.21883604 -9.48269454 7.98816694 -14.8125 9.4375 C-17.8125 9.0625 -17.8125 9.0625 -19.8125 8.4375 C-19.44856074 6.09648527 -19.19946182 4.78771126 -17.4140625 3.171875 C-11.69902888 0.32565272 -6.27421716 0.04509556 0 0 Z " fill="#31242A" transform="translate(128.8125,102.5625)"/>
<path d="M0 0 C3 0.4375 3 0.4375 4.8125 1.8125 C7.48419967 5.46851007 7.45947391 9.0508246 7 13.4375 C5.9375 15.9375 5.9375 15.9375 4 17.4375 C-1.96313993 18.18289249 -1.96313993 18.18289249 -4.6953125 16.21875 C-6.41197598 13.87504178 -6.40102161 12.38406225 -6.375 9.5 C-6.38273437 8.64535156 -6.39046875 7.79070312 -6.3984375 6.91015625 C-5.71317739 2.65751262 -4.29956808 0.62702035 0 0 Z " fill="#30252A" transform="translate(128,122.5625)"/>
<path d="M0 0 C2.5 0.625 2.5 0.625 4.8125 2.6875 C6.92080254 6.35750813 7.02224707 8.44702347 6.5 12.625 C5.14284582 15.91074169 4.34604872 17.22424008 1.125 18.75 C-1.5 18.625 -1.5 18.625 -4.3125 16.6875 C-6.74589841 13.28074223 -7.19936052 11.6322876 -6.921875 7.5625 C-6.02217483 3.43054366 -4.09704063 1.02426016 0 0 Z " fill="#33262C" transform="translate(195.5,122.375)"/>
<path d="M0 0 C0.66 0.66 1.32 1.32 2 2 C1.625 4.125 1.625 4.125 1 6 C-2.375 6.125 -2.375 6.125 -6 6 C-6.66 5.34 -7.32 4.68 -8 4 C-8.825 3.855625 -9.65 3.71125 -10.5 3.5625 C-13 3 -13 3 -15 0 C-4.02840542 -1.38476436 -4.02840542 -1.38476436 0 0 Z " fill="#31252B" transform="translate(140,104)"/>
<path d="M0 0 C4.29 0 8.58 0 13 0 C11.68 0.99 10.36 1.98 9 3 C11.475 3.99 11.475 3.99 14 5 C14 5.33 14 5.66 14 6 C8.72 6 3.44 6 -2 6 C-2.33 5.01 -2.66 4.02 -3 3 C-2.01 2.34 -1.02 1.68 0 1 C0 0.67 0 0.34 0 0 Z " fill="#1F1924" transform="translate(122,103)"/>
<path d="M0 0 C0.33 0 0.66 0 1 0 C1.66 3.96 2.32 7.92 3 12 C3.598125 11.01 4.19625 10.02 4.8125 9 C5.534375 8.01 6.25625 7.02 7 6 C7.99 6 8.98 6 10 6 C9.4225 6.639375 8.845 7.27875 8.25 7.9375 C5.47081977 11.7202731 3.77138389 15.67518508 2 20 C1.34 20 0.68 20 0 20 C0 13.4 0 6.8 0 0 Z " fill="#221924" transform="translate(230,109)"/>
<path d="M0 0 C1.29858939 0.56775536 2.58870441 1.15491663 3.875 1.75 C4.59429687 2.07484375 5.31359375 2.3996875 6.0546875 2.734375 C8.35270613 4.22947146 8.87653327 5.55244749 10 8 C12.05000871 8.80528889 12.05000871 8.80528889 14 9 C14 10.98 14 12.96 14 15 C13.01 15 12.02 15 11 15 C10.773125 14.113125 10.54625 13.22625 10.3125 12.3125 C8.80058917 8.49672505 7.13717673 6.61431394 4 4 C1.82653432 3.13880866 1.82653432 3.13880866 0 3 C0 2.01 0 1.02 0 0 Z " fill="#271D25" transform="translate(79,113)"/>
<path d="M0 0 C0 4.29 0 8.58 0 13 C-1.32 12.34 -2.64 11.68 -4 11 C-4.08096803 9.54257537 -4.13917774 8.08387193 -4.1875 6.625 C-4.22230469 5.81289063 -4.25710937 5.00078125 -4.29296875 4.1640625 C-4.19628906 3.44992187 -4.09960938 2.73578125 -4 2 C-1 0 -1 0 0 0 Z " fill="#EBEDED" transform="translate(4,353)"/>
<path d="M0 0 C5.75 -0.125 5.75 -0.125 8 1 C7.34 2.32 6.68 3.64 6 5 C4.35 4.67 2.7 4.34 1 4 C0.67 2.68 0.34 1.36 0 0 Z " fill="#C96644" transform="translate(140,188)"/>
<path d="M0 0 C1.32 0.66 2.64 1.32 4 2 C4 2.99 4 3.98 4 5 C2.02 5 0.04 5 -2 5 C-2.33 4.01 -2.66 3.02 -3 2 C-2.01 2 -1.02 2 0 2 C0 1.34 0 0.68 0 0 Z " fill="#3F2E31" transform="translate(208,106)"/>
<path d="M0 0 C0 2.31 0 4.62 0 7 C-0.99 6.67 -1.98 6.34 -3 6 C-3 5.34 -3 4.68 -3 4 C-3.66 3.67 -4.32 3.34 -5 3 C-1.125 0 -1.125 0 0 0 Z " fill="#DF6E45" transform="translate(204,216)"/>
</svg>
