<?xml version="1.0" encoding="UTF-8"?>
<svg version="1.1" xmlns="http://www.w3.org/2000/svg" width="311" height="378">
<path d="M0 0 C102.63 0 205.26 0 311 0 C311 124.74 311 249.48 311 378 C208.37 378 105.74 378 0 378 C0 253.26 0 128.52 0 0 Z " fill="#71ADAD" transform="translate(0,0)"/>
<path d="M0 0 C1.51400391 0.77150391 1.51400391 0.77150391 3.05859375 1.55859375 C24.44227599 13.15416657 38.64569921 34.20076427 46 57 C51.009558 74.32739869 53.62733816 91.85733905 55.70215225 109.73779678 C56.10630176 113.19324065 56.52752125 116.6466152 56.94604492 120.1003418 C57.90118735 128.01409914 58.82860329 135.93097525 59.74952698 143.84877777 C60.08027926 146.68948957 60.41276642 149.52999724 60.74520588 152.37051201 C62.60838907 168.29534541 64.44779558 184.22288067 66.22583008 200.1574707 C66.7463523 204.80752752 67.29361751 209.45347731 67.8581543 214.09838867 C69.40659539 227.02753013 70.42540829 239.66838021 70.1875 252.6875 C70.17234225 254.20245982 70.15867448 255.71743527 70.14648438 257.23242188 C70.1145452 260.8219593 70.06345831 264.41086327 70 268 C69.22390381 267.76543091 69.22390381 267.76543091 68.43212891 267.52612305 C59.75852243 264.91386465 51.06607071 262.36587539 42.375 259.8125 C40.78254462 259.34442642 39.19009665 258.87632766 37.59765625 258.40820312 C33.73185608 257.27184516 29.865956 256.13582769 26 255 C25.85304687 255.85380249 25.85304687 255.85380249 25.703125 256.72485352 C23.04355086 270.46837484 13.09293773 282.46373856 1.7109375 290.25 C-16.40181949 301.49248834 -39.29694705 304.26641669 -60.1328125 300.1640625 C-77.90242886 295.73202747 -92.07928854 285.2660172 -102 270 C-104.80968123 265.28750872 -106.13648387 261.44093622 -107 256 C-129.82850845 262.54925609 -129.82850845 262.54925609 -152 271 C-152.99 271.33 -153.98 271.66 -155 272 C-160.17473538 254.20141418 -156.73521961 235.42385912 -153.63134766 217.53515625 C-151.25523988 203.83076223 -149.23310918 190.09668528 -147.375 176.3125 C-147.22565002 175.20805542 -147.07630005 174.10361084 -146.92242432 172.96569824 C-144.77071697 156.94291783 -143.02224931 140.91503247 -141.57705688 124.81448364 C-137.89220976 83.82280038 -133.39111471 38.52060148 -100 10 C-71.70815451 -11.58769944 -31.78425699 -16.66014957 0 0 Z " fill="#FDA67F" transform="translate(194,9)"/>
<path d="M0 0 C1.51400391 0.77150391 1.51400391 0.77150391 3.05859375 1.55859375 C24.44227599 13.15416657 38.64569921 34.20076427 46 57 C51.009558 74.32739869 53.62733816 91.85733905 55.70215225 109.73779678 C56.10630176 113.19324065 56.52752125 116.6466152 56.94604492 120.1003418 C57.90118735 128.01409914 58.82860329 135.93097525 59.74952698 143.84877777 C60.08027926 146.68948957 60.41276642 149.52999724 60.74520588 152.37051201 C62.60838907 168.29534541 64.44779558 184.22288067 66.22583008 200.1574707 C66.7463523 204.80752752 67.29361751 209.45347731 67.8581543 214.09838867 C69.40659539 227.02753013 70.42540829 239.66838021 70.1875 252.6875 C70.17234225 254.20245982 70.15867448 255.71743527 70.14648438 257.23242188 C70.1145452 260.8219593 70.06345831 264.41086327 70 268 C69.49130371 267.8450708 68.98260742 267.6901416 68.45849609 267.53051758 C63.53891076 266.04299553 58.60917325 264.59532424 53.66900635 263.177948 C50.47621403 262.26006961 47.28637247 261.33214903 44.09667969 260.40356445 C42.45362739 259.92755967 40.8094185 259.45552856 39.1640625 258.98754883 C11.02840602 250.97326888 11.02840602 250.97326888 4 241 C-1.59077978 230.36722865 -3.31545911 215.83345263 -1 204 C1.05074046 200.58488936 3.26521665 198.40670971 6.203125 195.734375 C16.94639561 185.23117748 21.37417645 168.87747065 26 155 C26.72445312 154.91363281 27.44890625 154.82726562 28.1953125 154.73828125 C34.68302681 153.7954001 38.58817374 152.94985385 43 148 C48.75341602 139.07360372 49.86293074 129.42154814 49 119 C48.15670046 115.39904942 46.75227661 112.83287768 44.25 110.0625 C40.91725085 108.48870179 38.63813107 108.48938511 35 109 C32.28747146 111.45699127 32.28747146 111.45699127 30 114 C29.72027344 112.97261719 29.44054687 111.94523437 29.15234375 110.88671875 C28.74831538 109.48671347 28.34331382 108.08698878 27.9375 106.6875 C27.75767578 106.01654297 27.57785156 105.34558594 27.39257812 104.65429688 C23.51793159 91.55430145 14.24625649 82.78790846 4.6875 73.625 C-7.12934606 62.26632183 -18.02458088 50.49836125 -26 36 C-26 35.34 -26 34.68 -26 34 C-26.66 34 -27.32 34 -28 34 C-28.09539062 34.71027344 -28.19078125 35.42054687 -28.2890625 36.15234375 C-31.90961477 50.65444599 -48.18124231 64.20132868 -60 72 C-63.95829385 74.31005707 -67.99006095 76.44104258 -72.07467651 78.51855469 C-93.96834184 88.73281935 -93.96834184 88.73281935 -108.14453125 107.08984375 C-108.47517578 108.49943359 -108.47517578 108.49943359 -108.8125 109.9375 C-109.16248047 111.37416016 -109.16248047 111.37416016 -109.51953125 112.83984375 C-109.67808594 113.55269531 -109.83664063 114.26554687 -110 115 C-110.43570313 114.566875 -110.87140625 114.13375 -111.3203125 113.6875 C-115.16744996 110.04424244 -115.16744996 110.04424244 -120.125 108.5 C-123.11761887 109.02045546 -125.36840102 109.4649006 -128 111 C-132.02039581 118.35198256 -130.90248534 129.37408711 -129.34765625 137.34375 C-127.12550826 144.13417647 -123.22966644 150.34356315 -117.078125 154.20703125 C-114.66145339 155.12918226 -112.82755838 155.20081054 -110.25 155.125 C-109.45078125 155.10695312 -108.6515625 155.08890625 -107.828125 155.0703125 C-107.22484375 155.04710937 -106.6215625 155.02390625 -106 155 C-105.4740625 156.7015625 -105.4740625 156.7015625 -104.9375 158.4375 C-98.3872787 178.3489865 -98.3872787 178.3489865 -85.98852539 194.81640625 C-81.22999885 199.33777234 -79.45773524 202.49415228 -79.11328125 209.125 C-79.13832577 211.75072039 -79.20575268 214.37633085 -79.3125 217 C-79.32893555 218.97226562 -79.32893555 218.97226562 -79.34570312 220.984375 C-79.51213506 229.0705313 -79.84989746 236.67215642 -84.734375 243.3828125 C-96.6565629 253.68764933 -111.17220898 257.42630642 -125.97851562 261.71655273 C-134.9185549 264.31432524 -143.46327577 267.29413522 -152 271 C-152.99 271.33 -153.98 271.66 -155 272 C-160.17473538 254.20141418 -156.73521961 235.42385912 -153.63134766 217.53515625 C-151.25523988 203.83076223 -149.23310918 190.09668528 -147.375 176.3125 C-147.22565002 175.20805542 -147.07630005 174.10361084 -146.92242432 172.96569824 C-144.77071697 156.94291783 -143.02224931 140.91503247 -141.57705688 124.81448364 C-137.89220976 83.82280038 -133.39111471 38.52060148 -100 10 C-71.70815451 -11.58769944 -31.78425699 -16.66014957 0 0 Z " fill="#34292D" transform="translate(194,9)"/>
<path d="M0 0 C47.52 0 95.04 0 144 0 C144 114.51 144 229.02 144 347 C143.67 347 143.34 347 143 347 C142.87995605 346.4423999 142.75991211 345.8847998 142.63623047 345.31030273 C137.42497211 321.44783797 130.01124723 299.02669301 108.75 284.66796875 C106.16286743 282.9634435 106.16286743 282.9634435 103.70996094 282.22167969 C100.89608162 281.11277813 99.11843697 280.17602716 97 278 C95.94235312 273.70734237 96.10232861 269.60450969 96.20261765 265.20849895 C96.49129751 250.99151535 95.58919713 237.15536528 93.8046875 223.05859375 C93.57718902 221.19499457 93.35091187 219.33124595 93.12576294 217.46736145 C92.65691981 213.59011808 92.18376311 209.71343698 91.70800781 205.83703613 C90.67117426 197.34217692 89.70988186 188.83875781 88.74645996 180.33531952 C88.21829693 175.67955986 87.68497913 171.02439035 87.15234375 166.36914062 C86.50827333 160.73558381 85.86504233 155.10193361 85.22412109 149.46801758 C81.76589931 113.5062499 81.76589931 113.5062499 75.1875 78.0625 C74.93033203 77.01819824 74.67316406 75.97389648 74.40820312 74.89794922 C72.28848841 66.57510343 69.67274537 58.77075598 66 51 C65.32710937 49.56914063 65.32710937 49.56914063 64.640625 48.109375 C53.69623417 26.58950539 35.48970492 11.64627582 12.8125 3.75 C8.52469223 2.37790152 4.47947855 1.40722532 0 1 C0 0.67 0 0.34 0 0 Z " fill="#FEFAF6" transform="translate(167,0)"/>
<path d="M0 0 C45.87 0 91.74 0 139 0 C139 0.33 139 0.66 139 1 C137.9584375 1.20753906 136.916875 1.41507812 135.84375 1.62890625 C111.08839715 6.83335514 90.70448047 18.49624212 76.55151367 40.04492188 C67.28960029 54.79912963 62.37259785 71.32363359 59.375 88.375 C59.05535278 90.15632324 59.05535278 90.15632324 58.72924805 91.97363281 C56.64291239 103.75130809 55.11016563 115.45449583 54.125 127.375 C52.12590968 151.36408384 48.74492536 175.21684209 45.5 199.0625 C45.35656158 200.12343872 45.21312317 201.18437744 45.06533813 202.27746582 C43.64618746 212.74746402 42.16838068 223.18934233 40.3457489 233.59764099 C38.70190665 243.00038184 37.39690476 251.92972995 37.6875 261.5 C37.69716797 262.51707031 37.70683594 263.53414063 37.71679688 264.58203125 C37.79951319 270.12762074 38.19656536 275.51312927 39 281 C38.21496094 281.50789063 37.42992187 282.01578125 36.62109375 282.5390625 C16.62199365 295.64276735 6.90267187 311.8406933 1 335 C0.67 335 0.34 335 0 335 C0 224.45 0 113.9 0 0 Z " fill="#FEFAF6" transform="translate(0,0)"/>
<path d="M0 0 C0.33 0.66 0.66 1.32 1 2 C2.32912559 2.67501659 3.66345061 3.33980462 5 4 C6.74528756 5.26979977 8.47307804 6.56382592 10.1875 7.875 C21.76620487 16.37426209 33.49626521 19.56387683 47.75 17.4375 C58.07046306 15.12597673 67.63505766 9.50352997 75 2 C75.66 1.34 76.32 0.68 77 0 C77.495 4.455 77.495 4.455 78 9 C78.33 9 78.66 9 79 9 C79.09796875 9.6290625 79.1959375 10.258125 79.296875 10.90625 C80.87685317 19.950263 83.35260326 26.43699815 90.5625 32.390625 C95.03676605 35.34478784 99.97751537 37.18353473 105 39 C104.32940575 49.28244511 98.56941437 57.39548882 92 65 C91.14148438 66.01900391 91.14148438 66.01900391 90.265625 67.05859375 C80.09226862 78.21015747 64.11170469 85.1855425 49.13183594 86.19287109 C25.67360026 86.79333788 4.67170945 84.77002948 -13.1953125 67.9765625 C-20.75797872 59.69364236 -26.62043304 51.19726195 -28 40 C-26.92621094 39.49210937 -25.85242188 38.98421875 -24.74609375 38.4609375 C-11.67131491 32.8686027 -11.67131491 32.8686027 -3.1875 22.1875 C-1.1839333 15.0142365 -0.72115458 7.38971339 0 0 Z " fill="#FEA57E" transform="translate(115,224)"/>
<path d="M0 0 C102.63 0 205.26 0 311 0 C311 1.32 311 2.64 311 4 C208.37 4 105.74 4 0 4 C0 2.68 0 1.36 0 0 Z " fill="#FDFCF8" transform="translate(0,374)"/>
<path d="M0 0 C2.64 1.98 5.28 3.96 8 6 C21.42259986 14.88983708 33.97457472 18.76819443 50 17 C60.56314427 14.79787293 69.44874195 9.36795812 78 3 C78.56092771 7.34496386 78.92536128 11.28703349 76.79296875 15.234375 C69.59657178 23.93072357 58.41313034 29.41147207 47.5 31.75 C46.345 31.8325 45.19 31.915 44 32 C43.27554688 32.06316406 42.55109375 32.12632812 41.8046875 32.19140625 C26.12499584 32.97286998 13.62744298 24.49293654 2 15 C1.67 16.98 1.34 18.96 1 21 C0.67 21 0.34 21 0 21 C0 14.07 0 7.14 0 0 Z " fill="#E57E58" transform="translate(114,211)"/>
<path d="M0 0 C0.66 0.66 1.32 1.32 2 2 C1.46428571 5.53571429 1.46428571 5.53571429 0 7 C-2.13368393 6.76292401 -4.2670757 6.52274166 -6.3984375 6.265625 C-12.16971711 5.67636522 -17.69093342 5.49860554 -23.3125 7.0625 C-26.83396309 7.95778723 -28.59420193 8.0643119 -32 7 C-32.33 5.68 -32.66 4.36 -33 3 C-23.49707395 -3.95336053 -10.57857998 -6.11206843 0 0 Z " fill="#32262C" transform="translate(134,102)"/>
<path d="M0 0 C0.5671875 0.46019531 1.134375 0.92039062 1.71875 1.39453125 C1.38875 3.04453125 1.05875 4.69453125 0.71875 6.39453125 C-5.79890908 5.49995059 -5.79890908 5.49995059 -8.7019043 4.86547852 C-11.32058845 4.38734868 -13.70415441 4.28056134 -16.36328125 4.296875 C-17.29462891 4.30009766 -18.22597656 4.30332031 -19.18554688 4.30664062 C-20.14525391 4.31501953 -21.10496094 4.32339844 -22.09375 4.33203125 C-23.07279297 4.33654297 -24.05183594 4.34105469 -25.06054688 4.34570312 C-27.46751111 4.35744441 -29.87434857 4.37386706 -32.28125 4.39453125 C-32.90625 2.01953125 -32.90625 2.01953125 -33.28125 -0.60546875 C-25.59980462 -8.28691413 -8.1783302 -5.75563992 0 0 Z " fill="#30242B" transform="translate(207.28125,103.60546875)"/>
<path d="M0 0 C-0.34753165 2.51960447 -0.781754 3.77302416 -2.5625 5.625 C-8.57335945 9.01574123 -15.19150965 9.35855754 -21.9375 9.3125 C-22.72366699 9.31121094 -23.50983398 9.30992187 -24.31982422 9.30859375 C-30.06409696 9.21335192 -34.707952 8.35202134 -40 6 C-40.33 4.35 -40.66 2.7 -41 1 C-40.41476563 1.0721875 -39.82953125 1.144375 -39.2265625 1.21875 C-33.09299702 1.88183816 -26.97740765 2.16351068 -20.8125 2.25 C-19.69125732 2.2819043 -19.69125732 2.2819043 -18.54736328 2.31445312 C-14.53558421 2.33921174 -11.43416995 1.93900993 -7.69921875 0.421875 C-4.0164432 -0.9936797 -3.45290112 -1.14953727 0 0 Z " fill="#CB6846" transform="translate(175,183)"/>
<path d="M0 0 C3.01707075 1.34974218 3.94523447 2.0524673 5.375 5.0625 C6.08108573 9.66927887 5.95664091 13.00692945 3.6875 17.125 C1.375 19.0625 1.375 19.0625 -1.125 19.625 C-4.62296235 18.83795847 -5.66710936 18.10810766 -7.625 15.0625 C-8.56831772 9.88298695 -8.44913433 6.26338145 -5.4375 1.875 C-2.625 0.0625 -2.625 0.0625 0 0 Z " fill="#31252B" transform="translate(121.625,119.9375)"/>
<path d="M0 0 C3.0625 0.5625 3.0625 0.5625 5.4375 2.625 C7.4665053 6.29281728 7.58010491 8.42166073 7.0625 12.5625 C6 15.5 6 15.5 4.0625 17.5625 C-1.78016667 18.39716667 -1.78016667 18.39716667 -4.6328125 16.33984375 C-6.35121963 13.9988999 -6.3385093 12.50769687 -6.3125 9.625 C-6.32023438 8.77035156 -6.32796875 7.91570312 -6.3359375 7.03515625 C-5.65752217 2.82499052 -4.2105265 0.80627103 0 0 Z " fill="#30232A" transform="translate(187.9375,120.4375)"/>
<path d="M0 0 C5.94 0 11.88 0 18 0 C18.33 1.32 18.66 2.64 19 4 C14.0564554 7.04218129 9.69265629 7.9937844 4 7 C1.4375 5.1875 1.4375 5.1875 0 3 C0 2.01 0 1.02 0 0 Z " fill="#CC6947" transform="translate(146,160)"/>
<path d="M0 0 C0.66 0.33 1.32 0.66 2 1 C1.67 1.99 1.34 2.98 1 4 C1.99128906 3.67257813 2.98257813 3.34515625 4.00390625 3.0078125 C8.01822678 1.86086378 11.75860244 1.80103721 15.9375 1.875 C16.62134766 1.88402344 17.30519531 1.89304687 18.00976562 1.90234375 C19.67333287 1.92561042 21.33671631 1.96146833 23 2 C23 2.33 23 2.66 23 3 C22.11699219 3.02578125 21.23398438 3.0515625 20.32421875 3.078125 C8.66560481 3.62728303 8.66560481 3.62728303 -2 8 C-3.33772084 10.53902955 -3.33772084 10.53902955 -4 13 C-4.33 13 -4.66 13 -5 13 C-5 10.69 -5 8.38 -5 6 C-5.66 5.67 -6.32 5.34 -7 5 C-4.69 3.35 -2.38 1.7 0 0 Z " fill="#FABA8A" transform="translate(105,96)"/>
<path d="M0 0 C0.53625 0.2475 1.0725 0.495 1.625 0.75 C0.965 0.75 0.305 0.75 -0.375 0.75 C-0.705 1.74 -1.035 2.73 -1.375 3.75 C-3.9375 5.4375 -3.9375 5.4375 -6.375 6.75 C-4.395 6.75 -2.415 6.75 -0.375 6.75 C-1.035 7.41 -1.695 8.07 -2.375 8.75 C-5 8.375 -5 8.375 -7.375 7.75 C-7.705 6.43 -8.035 5.11 -8.375 3.75 C-2.95961538 -0.31153846 -2.95961538 -0.31153846 0 0 Z " fill="#261D27" transform="translate(109.375,101.25)"/>
<path d="M0 0 C1.26328125 0.02707031 2.5265625 0.05414062 3.828125 0.08203125 C4.79234375 0.11683594 5.7565625 0.15164063 6.75 0.1875 C6.75 0.5175 6.75 0.8475 6.75 1.1875 C0.81 2.5075 -5.13 3.8275 -11.25 5.1875 C-11.25 3.1875 -11.25 3.1875 -9.703125 1.57421875 C-6.35388714 -0.31906061 -3.81924263 -0.10609007 0 0 Z " fill="#F5F3F1" transform="translate(132.25,-0.1875)"/>
<path d="M0 0 C0.33 0 0.66 0 1 0 C2.32286246 4.96073422 2.08893197 9.91111512 2 15 C1.67 15 1.34 15 1 15 C1 13.02 1 11.04 1 9 C0.34 9 -0.32 9 -1 9 C-1.125 2.25 -1.125 2.25 0 0 Z " fill="#21181B" transform="translate(256,187)"/>
<path d="M0 0 C3.3 0 6.6 0 10 0 C9.67 0.66 9.34 1.32 9 2 C6.71484375 2.4140625 6.71484375 2.4140625 3.9375 2.625 C3.01839844 2.69976562 2.09929687 2.77453125 1.15234375 2.8515625 C0.44207031 2.90054688 -0.26820312 2.94953125 -1 3 C-0.67 2.01 -0.34 1.02 0 0 Z " fill="#F2A179" transform="translate(115,107)"/>
<path d="M0 0 C4 6 4 6 8 12 C7.01 12 6.02 12 5 12 C3.61328125 10.390625 3.61328125 10.390625 2.3125 8.25 C1.87550781 7.55390625 1.43851563 6.8578125 0.98828125 6.140625 C0 4 0 4 0 0 Z " fill="#E8A980" transform="translate(195,243)"/>
<path d="M0 0 C1.32 0 2.64 0 4 0 C4 0.99 4 1.98 4 3 C2.824375 3.433125 2.824375 3.433125 1.625 3.875 C-1.09671632 4.84912254 -1.09671632 4.84912254 -3 7 C-2.38722388 4.03824877 -1.74627478 2.61941217 0 0 Z " fill="#3F2D30" transform="translate(119,120)"/>
<path d="M0 0 C4.29 0 8.58 0 13 0 C12.67 0.99 12.34 1.98 12 3 C6.06 2.01 6.06 2.01 0 1 C0 0.67 0 0.34 0 0 Z " fill="#F3F2F0" transform="translate(167,0)"/>
</svg>
