<?xml version="1.0" encoding="UTF-8"?>
<svg version="1.1" xmlns="http://www.w3.org/2000/svg" width="433" height="495">
<path d="M0 0 C142.89 0 285.78 0 433 0 C433 163.35 433 326.7 433 495 C290.11 495 147.22 495 0 495 C0 331.65 0 168.3 0 0 Z " fill="#294252" transform="translate(0,0)"/>
<path d="M0 0 C65.34 0 130.68 0 198 0 C197.01 0.66 196.02 1.32 195 2 C194.39285156 2.48597656 193.78570312 2.97195313 193.16015625 3.47265625 C187.77912738 7.55101519 183.96831118 8.42517601 177.30859375 8.6796875 C162.99765461 10.06516213 149.7635651 17.90535005 139 27 C138.19820312 27.65613281 137.39640625 28.31226562 136.5703125 28.98828125 C116.23055959 46.31825764 102.97486687 73.27024298 100.3125 99.75 C100.18306869 101.83191643 100.08149683 103.91565676 100 106 C99.97276855 106.65548828 99.94553711 107.31097656 99.91748047 107.98632812 C99.56831905 117.53446559 100.23669427 125.77943581 103 135 C103.35142373 136.66294626 103.69040013 138.32876189 104 140 C102.63875 140.99 102.63875 140.99 101.25 142 C96.22515553 146.33422603 94.25708714 150.16048699 93.65234375 156.83984375 C93.19696179 169.92907926 94.88783961 183.26590491 103 194 C107.86329008 198.41150904 112.68364966 200.33457105 119 202 C119.16435547 203.86591797 119.16435547 203.86591797 119.33203125 205.76953125 C120.16693791 214.75110291 120.98055999 223.44491997 124 232 C124.39960937 233.15628906 124.79921875 234.31257812 125.2109375 235.50390625 C131.27042488 252.18967067 141.51334161 264.72182213 154.11328125 277.07421875 C155.95666594 278.95576875 157.63039355 280.91178036 159.3125 282.9375 C167.40590699 292.2522094 177.30372709 298.17529693 188 304 C188 308.95 188 313.9 188 319 C186.92516357 318.94875977 185.85032715 318.89751953 184.74291992 318.84472656 C180.7573073 318.66014082 176.77100641 318.5025093 172.78393555 318.35302734 C171.05804174 318.28454336 169.33242231 318.2087388 167.60717773 318.12548828 C165.127798 318.00711697 162.64862474 317.91506465 160.16796875 317.828125 C159.39599655 317.78560608 158.62402435 317.74308716 157.82865906 317.69927979 C153.52625843 317.54585339 153.52625843 317.54585339 150.02075195 319.78808594 C148.41667285 323.26403826 148.31663576 326.30861282 149 330 C150.15927042 332.98270618 151.47219657 335.81954761 152.90625 338.6796875 C154 341 154 341 154 343 C148.85528426 344.3376728 143.70925119 345.6701856 138.5625 347 C137.39176941 347.3027887 137.39176941 347.3027887 136.1973877 347.61169434 C127.43243746 349.87573829 118.66174868 352.10490697 109.85546875 354.203125 C109.12602554 354.37734985 108.39658234 354.55157471 107.64503479 354.7310791 C104.19204374 355.55432992 100.73739834 356.3693167 97.27954102 357.171875 C82.47517149 360.67814819 70.07595885 364.48414442 58 374 C57.17757812 374.62777344 56.35515625 375.25554687 55.5078125 375.90234375 C41.07583861 387.71259228 31.20267374 407.97948798 29.22033691 426.34533691 C28.8161023 431.21563616 28.79557154 436.08790844 28.76171875 440.97265625 C28.753647 442.09514267 28.74557526 443.21762909 28.73725891 444.37413025 C28.72349933 446.73483775 28.71274129 449.09556447 28.70483398 451.45629883 C28.6932691 453.86228291 28.67274714 456.26824046 28.64331055 458.67407227 C28.60061515 462.16960901 28.58446768 465.66439111 28.57421875 469.16015625 C28.55671066 470.228069 28.53920258 471.29598175 28.52116394 472.39625549 C28.53952283 478.74327966 29.19827096 483.76720916 33 489 C34.90573011 490.86485135 36.85909446 492.39432085 39 494 C39 494.33 39 494.66 39 495 C26.13 495 13.26 495 0 495 C0 331.65 0 168.3 0 0 Z " fill="#FEFEFE" transform="translate(0,0)"/>
<path d="M0 0 C54.12 0 108.24 0 164 0 C164 163.35 164 326.7 164 495 C156.74 495 149.48 495 142 495 C143.65 493.35 145.3 491.7 147 490 C150.2706914 485.2863565 152.11987748 480.91672601 152.14526367 475.16821289 C152.15164352 474.18611343 152.15802338 473.20401398 152.16459656 472.19215393 C152.16570938 471.1297197 152.1668222 470.06728546 152.16796875 468.97265625 C152.17129715 467.87336288 152.17462555 466.77406952 152.17805481 465.64146423 C152.18312335 463.30875059 152.18546316 460.97602969 152.18530273 458.64331055 C152.18747221 455.1077846 152.20558154 451.57257939 152.22460938 448.03710938 C152.22754687 445.76562606 152.22952928 443.49414127 152.23046875 441.22265625 C152.24124702 439.65633202 152.24124702 439.65633202 152.25224304 438.05836487 C152.18537969 416.09818518 144.30121283 396.10145909 129.203125 380.08203125 C115.08337729 366.73836896 99.98193972 361.59718749 81.48242188 357.56738281 C75.92080543 356.29621871 70.46127761 354.64297259 65 353 C66.20774883 349.12809932 67.6510495 345.47673676 69.3605957 341.79980469 C72.53479089 334.93036882 75.12477332 327.99426477 77.3125 320.75 C77.55452148 319.95964355 77.79654297 319.16928711 78.04589844 318.35498047 C81.86372598 305.28336361 82.29431871 292.67013479 82.2746582 279.16503906 C82.27901249 277.17940073 82.28419802 275.19376408 82.29014587 273.20812988 C82.30347133 267.84428176 82.30412166 262.48050438 82.30158257 257.11664295 C82.30050827 252.6240698 82.30540804 248.1315107 82.310188 243.63894057 C82.3212613 233.0310928 82.32173314 222.42328044 82.31567383 211.81542969 C82.3096381 200.90686028 82.32193995 189.99841999 82.3432439 179.0898726 C82.36091386 169.69327168 82.36685269 160.29671165 82.36360615 150.90009475 C82.36180143 145.30164942 82.36434781 139.70329617 82.37832069 134.10486603 C82.39098219 128.83520877 82.38887693 123.56575132 82.37590981 118.2960968 C82.37356233 116.37418803 82.37621216 114.45226482 82.38453293 112.53037262 C82.51455079 80.13575962 71.90280081 52.02502836 49.1875 28.75 C35.41226818 15.15358128 18.20994942 6.91823356 0 1 C0 0.67 0 0.34 0 0 Z " fill="#FEFEFE" transform="translate(269,0)"/>
<path d="M0 0 C2.72746128 0.00315061 5.45382524 -0.02032385 8.18115234 -0.0456543 C18.38359002 -0.08291743 27.61547753 0.56304971 37.49755859 3.31567383 C38.24166992 3.51443115 38.98578125 3.71318848 39.75244141 3.91796875 C67.58996469 11.79954795 90.2197168 30.31750127 104.49755859 55.31567383 C114.353769 73.9572425 116.80086498 92.09913907 116.78808594 112.81176758 C116.79408048 114.76136022 116.80088813 116.7109505 116.80844116 118.66053772 C116.82601798 123.92754379 116.83079313 129.19448476 116.83207273 134.46151733 C116.83350006 137.76235621 116.83778072 141.06317885 116.84306717 144.36401367 C116.8615427 155.90894612 116.86974123 167.45383256 116.86816406 178.9987793 C116.86696461 189.71189832 116.88803496 200.42481524 116.91965139 211.13788319 C116.94592479 220.37403962 116.95652668 229.61013052 116.95525324 238.84632397 C116.95474669 244.34544686 116.96025823 249.84439011 116.98160934 255.34347534 C117.00117818 260.52454519 117.00099066 265.7052675 116.98657608 270.88635063 C116.98450951 272.77110752 116.98905769 274.65588726 117.001297 276.54060555 C117.23114087 314.43638471 103.26733666 348.54160433 77.02832031 375.84448242 C65.44330781 387.51586235 51.30604627 396.29390086 36.49755859 403.31567383 C35.83755859 403.31567383 35.17755859 403.31567383 34.49755859 403.31567383 C34.26354222 389.50319505 34.08808184 375.6910253 33.97943687 361.87696838 C33.92728671 355.4621192 33.85657552 349.04860329 33.74316406 342.63452148 C33.63436241 336.44227033 33.57468606 330.25129986 33.54878616 324.0581665 C33.53033419 321.69773191 33.49429922 319.33736606 33.44025803 316.97747803 C33.03266019 298.43795151 33.03266019 298.43795151 36.69544983 293.13146973 C39.22517049 291.09110947 41.57066881 289.69720794 44.49755859 288.31567383 C49.6421544 283.61034163 54.30681967 278.48966314 58.82958984 273.19067383 C60.41191065 271.41195255 62.07002331 269.81308435 63.81005859 268.19067383 C64.34630859 267.62606445 64.88255859 267.06145508 65.43505859 266.47973633 C67.49755859 264.31567383 67.49755859 264.31567383 70.0144043 262.03051758 C80.84978673 250.20322658 78.78036673 234.71636073 78.4173584 219.69189453 C78.35784438 216.70127475 78.3501398 213.71153372 78.34420586 210.72039986 C78.33523244 207.79086207 78.30442478 204.86187644 78.26645279 201.93258286 C78.24070411 199.89914307 78.22380347 197.86559715 78.20724487 195.83206177 C77.71303949 176.12595285 71.60792801 157.55832796 57.49755859 143.31567383 C44.67204507 132.12978561 29.79765189 125.28787122 14.06005859 119.31567383 C-12.62859904 109.16348366 -36.74256708 96.24991202 -49.50244141 69.31567383 C-54.43872774 56.23809205 -58.31907371 38.79127328 -52.40405273 25.39013672 C-46.73834033 14.31798767 -37.57701501 5.64147507 -25.60400391 1.68896484 C-17.25616302 -0.37686858 -8.54154678 -0.02060227 0 0 Z " fill="#E3902D" transform="translate(228.50244140625,2.684326171875)"/>
<path d="M0 0 C0.06316406 1.15113281 0.12632812 2.30226562 0.19140625 3.48828125 C1.73020824 25.33973298 9.39454398 43.67103188 25.48046875 58.85546875 C40.24414088 71.42175712 56.39229747 78.50524444 74.40942383 85.2824707 C108.01286355 98.0257271 108.01286355 98.0257271 112 106 C111.02417969 106.13277344 110.04835938 106.26554687 109.04296875 106.40234375 C107.13451172 106.66724609 107.13451172 106.66724609 105.1875 106.9375 C103.92292969 107.11152344 102.65835938 107.28554687 101.35546875 107.46484375 C98.01678297 107.90392455 98.01678297 107.90392455 95 109 C95.33 109.99 95.66 110.98 96 112 C96.9446814 111.92930298 96.9446814 111.92930298 97.90844727 111.85717773 C115.70509068 110.69492794 115.70509068 110.69492794 120.84375 113.6171875 C122.70840716 115.99886324 123.84892286 118.20568905 125 121 C125.45761719 121.85464844 125.91523438 122.70929688 126.38671875 123.58984375 C132.25031773 135.03142228 133.47506809 147.05790757 133.5390625 159.734375 C133.55128847 161.1067121 133.56377568 162.47904689 133.57650757 163.85137939 C133.59876405 166.70192412 133.60851528 169.55220548 133.61083984 172.40283203 C133.61615088 176.03343644 133.66774243 179.66182925 133.73035622 183.29183578 C133.77141568 186.11625652 133.78048334 188.94014692 133.78095627 191.76483917 C133.78886052 193.74624448 133.82902212 195.72743829 133.87002563 197.70843506 C133.80529411 206.32577416 132.08518483 210.90482007 126 217 C125.07279035 218.04837266 124.1480587 219.09894557 123.2265625 220.15234375 C122.36804688 221.07144531 121.50953125 221.99054688 120.625 222.9375 C119.67140181 223.9631019 118.71828381 224.98915047 117.765625 226.015625 C117.29962891 226.51642578 116.83363281 227.01722656 116.35351562 227.53320312 C114.33103826 229.72494988 112.35543069 231.95778432 110.375 234.1875 C108.91974073 235.7944559 107.46148186 237.39870128 106 239 C104.95972656 240.15822266 104.95972656 240.15822266 103.8984375 241.33984375 C94.45878913 251.38019702 83.10682353 257.11358294 70 261 C68.77603516 261.36931641 68.77603516 261.36931641 67.52734375 261.74609375 C55.44726475 264.75057309 41.70076215 263.959025 30 260 C28.95585937 259.67128906 27.91171875 259.34257812 26.8359375 259.00390625 C1.22175223 250.17037458 -22.41951144 224.04071425 -34.27734375 199.953125 C-39.84997329 187.77783921 -42.14284382 175.13711194 -42.17700195 161.83251953 C-42.18357315 160.7161763 -42.19014435 159.59983307 -42.19691467 158.44966125 C-42.21659777 154.7607109 -42.22830203 151.07180126 -42.23828125 147.3828125 C-42.24439454 145.48480707 -42.24439454 145.48480707 -42.25063133 143.5484581 C-42.26932939 137.53525762 -42.28389608 131.52208152 -42.2922433 125.50885975 C-42.30198208 118.6101324 -42.32821974 111.71172877 -42.36874419 104.81311524 C-42.40280094 98.80529312 -42.4144095 92.79762532 -42.41844749 86.78969955 C-42.42328883 84.25184822 -42.43483184 81.71399971 -42.45348549 79.17621231 C-42.6270011 53.9956775 -39.20154896 32.77213043 -21 14 C-6.1430605 0 -6.1430605 0 0 0 Z " fill="#F0DCB5" transform="translate(168,42)"/>
<path d="M0 0 C5.10119099 1.11491232 10.1975135 2.24962673 15.29150391 3.39697266 C18.00779896 4.00173638 20.7281325 4.58519182 23.44921875 5.16796875 C44.27204633 9.73090351 61.70126611 19.0807021 73.75 37.375 C74.8603489 39.23412922 75.94476662 41.10904294 77 43 C77.46277344 43.82886719 77.92554688 44.65773438 78.40234375 45.51171875 C85.82921411 60.2525891 86.6574246 76.33342378 86.52148438 92.5168457 C86.49980045 95.59078814 86.52153348 98.66245058 86.546875 101.73632812 C86.5442351 103.72135924 86.53911715 105.70638897 86.53125 107.69140625 C86.53934692 108.59468155 86.54744385 109.49795685 86.55578613 110.42860413 C86.4479043 117.80554156 84.83450854 124.23462582 79.4375 129.5 C76.19027053 131.49829506 73.69735134 132.1250936 69.95674133 132.12025452 C69.1364444 132.12162918 68.31614746 132.12300385 67.47099304 132.12442017 C66.57475723 132.12082489 65.67852142 132.11722961 64.75512695 132.11352539 C63.33532532 132.11374443 63.33532532 132.11374443 61.88684082 132.1139679 C58.75396443 132.11327047 55.62114727 132.10548599 52.48828125 132.09765625 C50.3178053 132.09579147 48.14732894 132.09436785 45.97685242 132.09336853 C40.26072022 132.08954811 34.54461338 132.07972184 28.82849121 132.06866455 C22.99699242 132.05844024 17.16548954 132.05386872 11.33398438 132.04882812 C-0.11068823 132.03809918 -11.55534201 132.02102842 -23 132 C-22.49278746 124.91572578 -21.94316078 117.87014613 -20.984375 110.83203125 C-20.88848083 110.12177292 -20.79258667 109.41151459 -20.69378662 108.67973328 C-20.38329993 106.39007249 -20.06703424 104.10126267 -19.75 101.8125 C-19.52662255 100.18360337 -19.30331662 98.55469693 -19.08007812 96.92578125 C-18.39545587 91.94928693 -17.6999403 86.97436094 -17 82 C-16.83890747 80.85431549 -16.83890747 80.85431549 -16.67456055 79.68548584 C-14.26522995 62.58879059 -11.69769243 45.53603632 -8.61132812 28.546875 C-7.67890338 23.3436392 -6.90252165 18.25354675 -6.55078125 12.9765625 C-6.22795908 8.94640959 -5.69783148 6.42521422 -2.9375 3.3125 C-2.38964844 2.66925781 -1.84179688 2.02601563 -1.27734375 1.36328125 C-0.85582031 0.91339844 -0.43429687 0.46351563 0 0 Z " fill="#455260" transform="translate(330,358)"/>
<path d="M0 0 C23.26509882 17.70170563 26.96769275 54.77721613 30.84960938 81.69604492 C32.54152691 94.33693859 32.7879192 106.82521119 32.4375 119.5625 C31.38402457 118.66026134 30.33066289 117.75788986 29.27734375 116.85546875 C28.63522949 116.30552246 27.99311523 115.75557617 27.33154297 115.18896484 C25.78011319 113.85671102 24.23487023 112.51725564 22.69140625 111.17578125 C1.35884117 92.93937946 -22.676194 80.79738306 -48.625 70.5625 C-85.74086924 55.90614525 -85.74086924 55.90614525 -94.13696289 41.94433594 C-95.88792609 37.79048387 -96.01310038 34.46978557 -95.99609375 30.015625 C-96.0013356 29.20438171 -96.00657745 28.39313843 -96.01197815 27.55731201 C-96.01837806 25.8461623 -96.01708773 24.13496848 -96.00854492 22.42382812 C-96.00006976 19.83381744 -96.02876576 17.2460413 -96.06054688 14.65625 C-96.1037865 4.52932269 -96.02601409 -4.44261519 -88.9375 -12.375 C-65.07696358 -26.95643892 -21.59130119 -14.32877261 0 0 Z " fill="#E7A150" transform="translate(301.5625,33.4375)"/>
<path d="M0 0 C0.33 36.3 0.66 72.6 1 110 C5.52013292 111.13003323 6.33719708 110.74826131 10.421875 108.91015625 C11.44667969 108.45576172 12.47148437 108.00136719 13.52734375 107.53320312 C14.59082031 107.04787109 15.65429688 106.56253906 16.75 106.0625 C17.82894531 105.58103516 18.90789062 105.09957031 20.01953125 104.60351562 C22.68447297 103.41254609 25.34415549 102.21108789 28 101 C27.33789062 105.7421875 27.33789062 105.7421875 24.296875 108.0625 C23.12598069 108.72877381 21.94266714 109.37353423 20.75 110 C20.12029297 110.34248779 19.49058594 110.68497559 18.84179688 111.0378418 C-5.88153344 124.1697909 -35.177387 126.75725264 -62 119 C-72.14113447 115.70528992 -81.30230945 111.18043238 -90 105 C-87.4980458 80.54010566 -82.08507777 53.21932679 -63 36 C-62.34 36 -61.68 36 -61 36 C-61 25.77 -61 15.54 -61 5 C-58.56625 5.33 -56.1325 5.66 -53.625 6 C-33.7418495 8.40479822 -18.30566467 0 0 0 Z " fill="#EDD9B1" transform="translate(255,303)"/>
<path d="M0 0 C4.00528478 1.50945434 7.71268487 3.38579091 11.5 5.375 C18.12196556 8.76909817 24.81697762 11.03829182 32 13 C33.2375 13.391875 34.475 13.78375 35.75 14.1875 C63.22620751 21.05655188 93.1306829 15.07471628 117.16992188 0.94873047 C119 0 119 0 121 0 C123.52163357 25.2163357 123 50.65789626 123 76 C82.08 76 41.16 76 -1 76 C-1.64761556 68.87622889 -2.14975969 62.04327754 -2.1328125 54.93359375 C-2.13376923 54.01522232 -2.13472595 53.09685089 -2.13571167 52.15065002 C-2.13638681 50.22046845 -2.13457945 48.29028452 -2.13037109 46.36010742 C-2.12505703 43.46853277 -2.13031657 40.57711653 -2.13671875 37.68554688 C-2.14036447 28.70757111 -2.03208026 19.75173582 -1.5546875 10.78515625 C-1.51594513 10.03826035 -1.47720276 9.29136444 -1.43728638 8.52183533 C-1.25370152 5.47340991 -0.97088167 2.91264501 0 0 Z " fill="#E088B4" transform="translate(164,414)"/>
<path d="M0 0 C3.55181932 20.41359341 6.77682832 40.85982523 9.6875 61.375 C9.83148224 62.38924042 9.97546448 63.40348083 10.12380981 64.44845581 C10.95563255 70.32112786 11.77749477 76.19512389 12.59222412 82.07019043 C13.01551419 85.11146714 13.44441545 88.15192366 13.87353516 91.19238281 C14.15156727 93.18291477 14.42940636 95.1734737 14.70703125 97.1640625 C14.83736252 98.08037445 14.96769379 98.9966864 15.10197449 99.94076538 C15.22019058 100.79514191 15.33840668 101.64951843 15.46020508 102.52978516 C15.61710564 103.64747787 15.61710564 103.64747787 15.7771759 104.78775024 C16.01821794 107.180872 16 109.59476965 16 112 C-11.72 112 -39.44 112 -68 112 C-68 75 -68 75 -67 73 C-66.86821213 71.06418263 -66.76954317 69.12606283 -66.6875 67.1875 C-65.22877394 47.62340929 -55.91449633 31.30567574 -42 18 C-41.27554688 17.29101562 -40.55109375 16.58203125 -39.8046875 15.8515625 C-30.51238448 7.23643136 -13.17720121 -3.59814561 0 0 Z " fill="#455260" transform="translate(127,379)"/>
<path d="M0 0 C2.27969073 16.51339001 2.27969073 16.51339001 -2.0625 22.3125 C-2.70832031 23.07175781 -3.35414063 23.83101562 -4.01953125 24.61328125 C-9.7569159 31.52756531 -12.83283286 40.38418916 -15 49 C-15.50877686 50.67594238 -15.50877686 50.67594238 -16.02783203 52.38574219 C-17.42562829 58.01177663 -17.24853523 63.61053661 -17.1953125 69.375 C-17.19106766 71.1226062 -17.19106766 71.1226062 -17.18673706 72.90551758 C-17.17559807 76.60378562 -17.15050479 80.30180592 -17.125 84 C-17.1149621 86.51692357 -17.10583766 89.03385096 -17.09765625 91.55078125 C-17.0756793 97.70060447 -17.04226444 103.85028453 -17 110 C-16.18722595 109.78765213 -15.3744519 109.57530426 -14.53704834 109.35652161 C-13.46489075 109.08136215 -12.39273315 108.8062027 -11.28808594 108.52270508 C-10.22781189 108.24848221 -9.16753784 107.97425934 -8.07513428 107.69172668 C-4.07343228 106.79157606 -0.33291024 106.5899161 3.75 106.6875 C4.43964844 106.68427734 5.12929687 106.68105469 5.83984375 106.67773438 C10.82711125 106.72919774 15.20158796 107.64977419 20 109 C19.67 110.65 19.34 112.3 19 114 C15.85881382 115.00966699 14.14369352 114.80567204 11 114 C8.23778859 113.87880093 5.51186237 113.81490162 2.75 113.8125 C2.02425781 113.80025391 1.29851562 113.78800781 0.55078125 113.77539062 C-4.63243362 113.76153176 -8.99808133 114.66509976 -14 116 C-15.32 116 -16.64 116 -18 116 C-17.90670783 123.13115799 -17.79928845 130.26200882 -17.68261719 137.39282227 C-17.64462813 139.81237109 -17.60972632 142.23197064 -17.578125 144.65161133 C-17.63636582 169.01020116 -17.63636582 169.01020116 -11.9375 192.5 C-11.63223389 193.2955127 -11.32696777 194.09102539 -11.01245117 194.91064453 C-5.47886251 208.78694738 2.48410236 219.5062722 13 230 C13.78117187 230.78375 14.56234375 231.5675 15.3671875 232.375 C16.68871214 233.69153775 18.01506742 235.00325623 19.34765625 236.30859375 C21 238 21 238 23.375 241 C32.46078716 251.38375676 46.07706654 260.5792925 60 262 C60 262.33 60 262.66 60 263 C49.55164953 263.31345051 40.02114174 263.39071508 30 260 C28.95585937 259.67128906 27.91171875 259.34257812 26.8359375 259.00390625 C1.22175223 250.17037458 -22.41951144 224.04071425 -34.27734375 199.953125 C-39.84997329 187.77783921 -42.14284382 175.13711194 -42.17700195 161.83251953 C-42.18357315 160.7161763 -42.19014435 159.59983307 -42.19691467 158.44966125 C-42.21659777 154.7607109 -42.22830203 151.07180126 -42.23828125 147.3828125 C-42.24439454 145.48480707 -42.24439454 145.48480707 -42.25063133 143.5484581 C-42.26932939 137.53525762 -42.28389608 131.52208152 -42.2922433 125.50885975 C-42.30198208 118.6101324 -42.32821974 111.71172877 -42.36874419 104.81311524 C-42.40280094 98.80529312 -42.4144095 92.79762532 -42.41844749 86.78969955 C-42.42328883 84.25184822 -42.43483184 81.71399971 -42.45348549 79.17621231 C-42.6270011 53.9956775 -39.20154896 32.77213043 -21 14 C-6.1430605 0 -6.1430605 0 0 0 Z " fill="#D5B992" transform="translate(168,42)"/>
<path d="M0 0 C5.06152603 3.86311457 4.86468856 11.28142835 5.65917969 17.17773438 C10.90311519 60.60172747 16.01083599 122.11816989 -12 159 C-22.46127248 171.50130221 -34.10802075 181.51858109 -48 190 C-49.485 190.99 -49.485 190.99 -51 192 C-52.32 192 -53.64 192 -55 192 C-55.09278251 182.45528816 -55.16380665 172.91073217 -55.20724869 163.36566734 C-55.22810139 158.93323178 -55.25637633 154.50110533 -55.30175781 150.06884766 C-55.34529877 145.78944496 -55.36915454 141.51033912 -55.37950897 137.23073196 C-55.38688559 135.60006667 -55.4012906 133.96941716 -55.42292023 132.33887863 C-55.45206509 130.05027223 -55.45595156 127.76288396 -55.45410156 125.47412109 C-55.46298401 124.17284271 -55.47186646 122.87156433 -55.48101807 121.53085327 C-54.77413537 116.3420688 -52.41462505 113.30294412 -48.625 109.8125 C-41.81835644 105.11267469 -35.25516205 103.92618437 -27.25585938 102.62695312 C-22.204137 101.72120545 -18.5876496 100.94572595 -15 97 C-1.97693491 72.76262886 -2.09787284 34.2128191 -1.29003906 7.43359375 C-1.09280247 1.09280247 -1.09280247 1.09280247 0 0 Z " fill="#E7A150" transform="translate(326,188)"/>
<path d="M0 0 C-0.40992188 0.49628906 -0.81984375 0.99257813 -1.2421875 1.50390625 C-6.7604834 8.46118361 -8.30848617 14.20814407 -8 23 C-9.216875 23.0825 -10.43375 23.165 -11.6875 23.25 C-30.19874926 25.3489133 -44.82861033 35.37634224 -57 49 C-67.04284601 61.80927813 -73.13703087 77.18070086 -73.82421875 93.41796875 C-74 96 -74 96 -75 98 C-75.15691907 100.76931368 -75.25843134 103.51734107 -75.31640625 106.2890625 C-75.33718735 107.10748627 -75.35796844 107.92591003 -75.37937927 108.76913452 C-75.44484812 111.38766966 -75.50374726 114.00630639 -75.5625 116.625 C-75.60568776 118.39844807 -75.64930214 120.17188581 -75.69335938 121.9453125 C-75.80052676 126.29677046 -75.90180169 130.64833077 -76 135 C-83.29137664 135.21455613 -88.69827049 134.97394779 -95 131 C-99.27602186 126.72397814 -100.11210978 123.15285544 -100.16113281 117.27001953 C-100.17074036 116.33449249 -100.1803479 115.39896545 -100.19024658 114.43508911 C-100.19449646 113.42783783 -100.19874634 112.42058655 -100.203125 111.3828125 C-100.20882507 110.33406952 -100.21452515 109.28532654 -100.22039795 108.20480347 C-100.22984491 105.9806214 -100.23638072 103.75642535 -100.24023438 101.53222656 C-100.24986453 98.17226693 -100.28085961 94.81293915 -100.3125 91.453125 C-100.43943362 66.23044024 -95.14242985 46.1153372 -77.62890625 27.4765625 C-64.43201764 14.77807855 -49.34489006 10.6490231 -31.98242188 6.36010742 C-28.21156131 5.42799844 -24.4494074 4.46559658 -20.6875 3.49804688 C-18.29731678 2.89148566 -15.90670642 2.28660452 -13.515625 1.68359375 C-12.38868225 1.39729599 -11.2617395 1.11099823 -10.10064697 0.81602478 C-8.54697418 0.43420799 -8.54697418 0.43420799 -6.96191406 0.04467773 C-6.04927795 -0.18212173 -5.13664185 -0.4089212 -4.1963501 -0.64259338 C-2 -1 -2 -1 0 0 Z " fill="#34424D" transform="translate(135,356)"/>
<path d="M0 0 C4.58357376 0.13882854 9.16678696 0.28726748 13.75 0.4375 C15.05195313 0.47681641 16.35390625 0.51613281 17.6953125 0.55664062 C18.94570312 0.59853516 20.19609375 0.64042969 21.484375 0.68359375 C22.63647461 0.72025146 23.78857422 0.75690918 24.97558594 0.79467773 C27.47740224 0.96452174 29.61091168 1.27968475 32 2 C32.53300994 5.13883632 32.7076756 6.93991309 32 10 C30.27734375 12.41796875 30.27734375 12.41796875 28 15 C1.40840643 45.39039265 1.42111423 95.641537 1.79400635 133.5947876 C1.82547944 137.156233 1.8385592 140.71775062 1.85351562 144.27929688 C1.88506761 151.18636333 1.93580743 158.09316123 2 165 C-0.31 165 -2.62 165 -5 165 C-7.00550375 153.02581375 -8.71206812 141.01474473 -10.33984375 128.984375 C-10.44415333 128.21463852 -10.54846291 127.44490204 -10.65593338 126.65184021 C-11.63893667 119.3953278 -12.61750634 112.13822224 -13.59057617 104.88037109 C-14.23165216 100.10192296 -14.87816263 95.32422817 -15.52734375 90.546875 C-15.63148968 89.77702774 -15.7356356 89.00718048 -15.84293747 88.21400452 C-17.2622289 77.75986758 -18.8323771 67.35501783 -20.92332458 57.00946045 C-22.16995971 50.50883276 -22.52704876 44.93663223 -19.375 38.875 C-12.40432825 30.4368184 -3.69711793 26.58663201 6 22 C5.34097107 16.2630687 3.16346526 12.53051385 0.1796875 7.68359375 C-1.20688198 4.52937774 -0.80189887 3.25980421 0 0 Z " fill="#34414D" transform="translate(155,325)"/>
<path d="M0 0 C-0.39832031 0.54527344 -0.79664063 1.09054688 -1.20703125 1.65234375 C-4.00545831 5.63550635 -6.08002237 8.73708665 -6.9375 13.5625 C-7.96912391 17.09688013 -8.88558143 17.92678965 -12.05859375 19.95703125 C-13.98720771 20.95782828 -15.93708003 21.90502613 -17.89306641 22.85107422 C-35.6482065 31.55722992 -47.77796618 47.9171384 -55 66 C-56.27278255 69.96860669 -57.24119081 73.90493881 -58 78 C-58.25233398 79.0509082 -58.25233398 79.0509082 -58.50976562 80.12304688 C-59.1594983 83.93601989 -59.23412599 87.72452739 -59.31640625 91.58203125 C-59.33718735 92.39621017 -59.35796844 93.2103891 -59.37937927 94.04924011 C-59.44449463 96.63691179 -59.50358208 99.22468053 -59.5625 101.8125 C-59.60572142 103.57227545 -59.64933685 105.33204128 -59.69335938 107.09179688 C-59.8001368 111.39443309 -59.90151018 115.69716643 -60 120 C-62.97 120 -65.94 120 -69 120 C-76.07170186 103.97080912 -73.68439612 80.2828351 -68 64 C-67.75862305 63.29875 -67.51724609 62.5975 -67.26855469 61.875 C-61.94780845 46.88321187 -54.11598749 34.4258408 -43 23 C-42.28070313 22.21882813 -41.56140625 21.43765625 -40.8203125 20.6328125 C-32.7331847 12.08520767 -12.59202146 -4.19734049 0 0 Z " fill="#D49739" transform="translate(178,16)"/>
<path d="M0 0 C-0.67856325 11.49154857 -2.465544 22.83369197 -4.125 34.21484375 C-4.43533344 36.36043898 -4.74538734 38.50607467 -5.05517578 40.65174866 C-5.70190468 45.12598283 -6.35098196 49.59986744 -7.00195312 54.07348633 C-7.83591256 59.80496551 -8.66551049 65.53706503 -9.49356079 71.2694006 C-10.13236752 75.69017838 -10.77267211 80.11073809 -11.41351318 84.53122139 C-11.71998915 86.64548271 -12.02618438 88.75978475 -12.33209229 90.87412834 C-12.7590535 93.82246021 -13.18783914 96.77052079 -13.6171875 99.71850586 C-13.74293152 100.58869858 -13.86867554 101.4588913 -13.99822998 102.35545349 C-14.56896559 106.26145278 -15.1682568 110.13885683 -16 114 C-18.31 114 -20.62 114 -23 114 C-22.99555878 113.29716888 -22.99111755 112.59433777 -22.98654175 111.87020874 C-22.94590601 105.13709095 -22.91573874 98.40399223 -22.89637566 91.67078209 C-22.88608527 88.21194462 -22.87220873 84.75321119 -22.84912109 81.29443359 C-22.73568218 63.83041211 -23.08394788 46.60698645 -25.35780334 29.27229309 C-25.46684494 28.37733627 -25.57588654 27.48237946 -25.68823242 26.56030273 C-25.79423264 25.74988022 -25.90023285 24.9394577 -26.00944519 24.10447693 C-26 22 -26 22 -24.04296875 19.37109375 C-23.10066406 18.73300781 -22.15835937 18.09492188 -21.1875 17.4375 C-19.67542969 16.34695313 -19.67542969 16.34695313 -18.1328125 15.234375 C-17.09898437 14.49703125 -16.06515625 13.7596875 -15 13 C-13.16370554 11.42312664 -11.34960983 9.8199048 -9.5625 8.1875 C-8.78003906 7.47980469 -7.99757813 6.77210938 -7.19140625 6.04296875 C-5.68814648 4.64153406 -4.21786956 3.20412385 -2.77734375 1.73828125 C-1 0 -1 0 0 0 Z " fill="#34414D" transform="translate(316,376)"/>
<path d="M0 0 C3.96 0.4640625 3.96 0.4640625 8 0.9375 C8.8146875 1.03281006 9.629375 1.12812012 10.46875 1.22631836 C15.31541427 1.79545189 20.15839551 2.38929762 25 3 C25.11735877 6.97891352 25.18763654 10.9573746 25.25 14.9375 C25.28351563 16.05447266 25.31703125 17.17144531 25.3515625 18.32226562 C25.43583114 25.50616711 24.58303703 30.74624615 21 37 C20.401875 38.051875 19.80375 39.10375 19.1875 40.1875 C9.82033118 52.23100277 -3.90912637 54.50236708 -18 58 C-18.33 57.34 -18.66 56.68 -19 56 C-17.96268525 53.57353275 -16.87221626 51.31678496 -15.625 49 C-15.26647949 48.33025146 -14.90795898 47.66050293 -14.53857422 46.97045898 C-11.17748425 40.92441033 -7.22169369 35.60419049 -2 31 C-1.34 31 -0.68 31 0 31 C0 20.77 0 10.54 0 0 Z " fill="#D5B992" transform="translate(194,308)"/>
<path d="M0 0 C2.8125 0.25 2.8125 0.25 5.4375 1.625 C20.61263865 8.93154824 40.37018523 6.20507265 55.8125 1.25 C58.65625 0.55859375 58.65625 0.55859375 60.8125 0.25 C61.8125 1.25 61.8125 1.25 61.875 3.8125 C61.854375 4.616875 61.83375 5.42125 61.8125 6.25 C60.52336513 6.92154933 59.23109796 7.58708859 57.9375 8.25 C57.21820313 8.62125 56.49890625 8.9925 55.7578125 9.375 C53.8125 10.25 53.8125 10.25 51.8125 10.25 C51.565 10.9925 51.3175 11.735 51.0625 12.5 C49.8125 15.25 49.8125 15.25 47.6875 17.3125 C45.34888571 19.27970029 45.34888571 19.27970029 45.8125 23.25 C39.840685 25.32572052 34.4172198 25.55261787 28.125 25.5 C26.72024414 25.51160156 26.72024414 25.51160156 25.28710938 25.5234375 C24.38412109 25.52085937 23.48113281 25.51828125 22.55078125 25.515625 C21.32935425 25.51224121 21.32935425 25.51224121 20.08325195 25.50878906 C17.60263982 25.22608302 15.96151614 24.49032627 13.8125 23.25 C13.8125 21.27 13.8125 19.29 13.8125 17.25 C13.1525 17.25 12.4925 17.25 11.8125 17.25 C11.131875 16.363125 10.45125 15.47625 9.75 14.5625 C6.98067911 11.01976517 3.75140069 9.45086074 -0.296875 7.62109375 C-2.1875 6.25 -2.1875 6.25 -3.015625 3.66015625 C-3.07234375 2.86480469 -3.1290625 2.06945312 -3.1875 1.25 C-2.1875 0.25 -2.1875 0.25 0 0 Z " fill="#2C4353" transform="translate(195.1875,241.75)"/>
<path d="M0 0 C0 17.16 0 34.32 0 52 C-6.54615771 50.69076846 -10.48114616 47.57514738 -14.33203125 42.109375 C-19.28075797 32.99037295 -19.98769488 22.1609111 -19 12 C-17.38919473 6.59098911 -13.88696488 3.64710598 -9 1 C-5.73617517 -0.18684539 -3.69162487 0 0 0 Z " fill="#D2B791" transform="translate(118,143)"/>
<path d="M0 0 C0.61101562 0.144375 1.22203125 0.28875 1.8515625 0.4375 C15.59012105 3.22391187 31.40765136 3.64196901 45 0 C43.90024977 3.00697473 43.20362964 4.80235947 40.875 7.0625 C38.53638571 9.02970029 38.53638571 9.02970029 39 13 C33.028185 15.07572052 27.6047198 15.30261787 21.3125 15.25 C19.90774414 15.26160156 19.90774414 15.26160156 18.47460938 15.2734375 C17.57162109 15.27085937 16.66863281 15.26828125 15.73828125 15.265625 C14.51685425 15.26224121 14.51685425 15.26224121 13.27075195 15.25878906 C10.79013982 14.97608302 9.14901614 14.24032627 7 13 C7 11.02 7 9.04 7 7 C6.34 7 5.68 7 5 7 C0 1.4047619 0 1.4047619 0 0 Z " fill="#D46963" transform="translate(202,252)"/>
<path d="M0 0 C2.125 0.375 2.125 0.375 4 1 C4.15855469 2.01578125 4.31710938 3.0315625 4.48046875 4.078125 C6.09879504 13.83925038 8.21403234 23.07532465 13.625 31.54296875 C15.72417051 35.29404333 15.88818535 38.81745443 15 43 C12.625 45 12.625 45 10 46 C9.01 46.495 9.01 46.495 8 47 C1.57951826 47.61035658 -3.32379132 47.07461304 -9 44 C-9.66 43.34 -10.32 42.68 -11 42 C-10.625 39.875 -10.625 39.875 -10 38 C-7.23723823 38.52268466 -4.6739124 39.10869587 -2 40 C-0.10529184 40.0685495 1.7916834 40.08480372 3.6875 40.0625 C5.17830078 40.04896484 5.17830078 40.04896484 6.69921875 40.03515625 C7.83810547 40.01775391 7.83810547 40.01775391 9 40 C7.6510393 36.80509309 6.3049632 33.62966511 4.79296875 30.5078125 C0.47396522 21.50445166 -2.93636676 12.11276103 -2 2 C-1.34 1.34 -0.68 0.68 0 0 Z " fill="#2D4655" transform="translate(223,172)"/>
<path d="M0 0 C3.58552881 1.63687185 4.79315055 2.68972583 7 6 C7.58209411 10.40728399 7.29247373 12.49052963 5.0625 16.375 C2.17978496 19.43018517 -0.73359447 20.03373571 -4.84375 20.24609375 C-8.14735835 19.86905149 -9.80313804 18.40281776 -12 16 C-13.74465448 12.51069104 -13.56450552 8.80713023 -13 5 C-9.56793682 -0.25534675 -5.88817208 -1.10850203 0 0 Z " fill="#284253" transform="translate(176,159)"/>
<path d="M0 0 C2.86830829 2.01391859 4.61592935 3.45434983 5.48046875 6.93359375 C5.773337 11.12081815 5.32200148 12.61194694 2.5625 15.9375 C1.716875 16.618125 0.87125 17.29875 0 18 C-0.33 18.33 -0.66 18.66 -1 19 C-3.93228663 19.29322866 -6.14491883 19.50004247 -9 19 C-11.9375 16.5625 -11.9375 16.5625 -14 14 C-14.33 13.67 -14.66 13.34 -15 13 C-15.70983213 5.90167866 -15.70983213 5.90167866 -12.6875 2.0625 C-8.23981568 -1.35083913 -5.3598911 -1.29376682 0 0 Z " fill="#2B4454" transform="translate(283,159)"/>
<path d="M0 0 C0 11.55 0 23.1 0 35 C-4.98475771 31.01219383 -7.81116024 28.21773717 -9 22 C-9.16872878 19.52438924 -9.26578308 17.04341426 -9.3125 14.5625 C-9.34988281 13.26441406 -9.38726562 11.96632812 -9.42578125 10.62890625 C-8.93505416 6.44647077 -7.9520769 4.93080067 -5 2 C-2 0 -2 0 0 0 Z " fill="#EDD9B0" transform="translate(118,153)"/>
<path d="M0 0 C0.71671875 -0.01224609 1.4334375 -0.02449219 2.171875 -0.03710938 C7.29960427 -0.05099312 11.69344728 0.77928009 16.625 2.1875 C16.295 3.8375 15.965 5.4875 15.625 7.1875 C12.09878092 8.32092756 12.09878092 8.32092756 9.98828125 7.7265625 C6.53137963 6.9380461 3.08976174 6.99690013 -0.4375 7 C-1.5656311 6.9990332 -1.5656311 6.9990332 -2.71655273 6.99804688 C-8.75669618 7.05487705 -14.49437029 7.76497186 -20.375 9.1875 C-20.705 7.5375 -21.035 5.8875 -21.375 4.1875 C-14.20754805 0.8904721 -7.84437523 0.00697898 0 0 Z " fill="#2D4655" transform="translate(171.375,148.8125)"/>
<path d="M0 0 C2.19580229 4.21958321 3.9060215 8.61963325 5.68359375 13.02734375 C6.92050891 16.01567917 6.92050891 16.01567917 8.66015625 18.62890625 C10 21 10 21 10 25 C7.6876551 26.15617245 6.25944273 26.16588704 3.6875 26.1875 C2.92824219 26.20167969 2.16898438 26.21585938 1.38671875 26.23046875 C-1.36013806 25.96522398 -3.49211899 25.12299804 -6 24 C-5.18971347 20.56197435 -4.37639054 17.12467409 -3.5625 13.6875 C-3.33240234 12.71103516 -3.10230469 11.73457031 -2.86523438 10.72851562 C-2.64287109 9.79072266 -2.42050781 8.85292969 -2.19140625 7.88671875 C-1.98717041 7.02264404 -1.78293457 6.15856934 -1.57250977 5.26831055 C-1.12401975 3.49137206 -0.57953893 1.73861678 0 0 Z " fill="#CFB590" transform="translate(222,187)"/>
<path d="M0 0 C10.23 0 20.46 0 31 0 C31.33 1.65 31.66 3.3 32 5 C26.028185 7.07572052 20.6047198 7.30261787 14.3125 7.25 C12.90774414 7.26160156 12.90774414 7.26160156 11.47460938 7.2734375 C10.57162109 7.27085937 9.66863281 7.26828125 8.73828125 7.265625 C7.51685425 7.26224121 7.51685425 7.26224121 6.27075195 7.25878906 C3.79013982 6.97608302 2.14901614 6.24032627 0 5 C0 3.35 0 1.7 0 0 Z " fill="#284152" transform="translate(209,260)"/>
<path d="M0 0 C3.01784991 1.75607646 5.41468217 3.82936435 7 7 C7.64486862 11.00798089 7.8673096 14.5562631 5.73046875 18.11328125 C3.6594699 20.54708282 1.87578723 22.56210639 -1 24 C-5.00089761 24.25605745 -8.58464099 23.99046422 -11.92578125 21.65234375 C-14.80708225 18.63351048 -16.37041455 16.0928763 -16.5625 11.875 C-15.83501589 6.86344283 -14.70024523 4.40877462 -10.8125 1.1875 C-7.14179769 -0.36235209 -3.88037262 -0.83367381 0 0 Z M-12 3.9375 C-14.67524849 8.03397426 -14.95893414 11.23124644 -14 16 C-12.20606332 18.87029869 -11.01736724 20.49131638 -8 22 C-4.20296813 22.17157511 -0.50291845 22.02377702 2.703125 19.83984375 C5.16496316 17.1870009 6.00521875 14.97025315 6.625 11.4375 C5.84380508 7.14092793 4.34762132 5.70997917 1 3 C-3.62766931 0.68616535 -7.85275609 1.25907164 -12 3.9375 Z " fill="#CEB793" transform="translate(177,157)"/>
<path d="M0 0 C2.93752254 0.30388164 3.84080893 0.80669656 5.75 3.125 C7.32754484 6.75335313 7.48238769 9.07198597 7 13 C4.97333762 16.70390021 3.51955484 18.65363011 0 21 C-3.77688904 21.68343706 -7.47186889 21.85107095 -10.88671875 19.94921875 C-13.04241292 18.17977487 -14.7458328 16.5083344 -16 14 C-16.06950541 12.45976004 -16.08452357 10.91665012 -16.0625 9.375 C-16.05347656 8.55773437 -16.04445313 7.74046875 -16.03515625 6.8984375 C-16.02355469 6.27195313 -16.01195312 5.64546875 -16 5 C-15.67 5 -15.34 5 -15 5 C-14.938125 6.216875 -14.87625 7.43375 -14.8125 8.6875 C-14.37897179 11.98582949 -13.90896465 13.13241505 -11.9375 16 C-8.64433019 18.24215817 -6.8452349 18.757801 -2.9375 18.4765625 C0.61497432 17.60276841 2.01078114 15.9838283 4 13 C4.64742657 9.13049698 4.243585 5.73075501 3 2 C2.01 1.67 1.02 1.34 0 1 C0 0.67 0 0.34 0 0 Z " fill="#CEB692" transform="translate(283,159)"/>
<path d="M0 0 C4.13998349 -0.32470459 6.33999001 -0.4304413 9.875 1.875 C12.66133114 4.66133114 13.21910602 6.34244238 13.4375 10.1875 C13.39154153 14.9212222 11.92202715 17.40327249 8.66796875 20.7578125 C7 22 7 22 4.125 22.4375 C3.42375 22.293125 2.7225 22.14875 2 22 C4 20 4 20 6.5 18.5625 C9.23702985 17.09034084 9.23702985 17.09034084 11 14 C11.19850603 10.29455413 11.17664871 7.52994613 10 4 C7.67108904 2.97299556 7.67108904 2.97299556 4.9375 2.3125 C4.01839844 2.06113281 3.09929687 1.80976563 2.15234375 1.55078125 C1.44207031 1.36902344 0.73179687 1.18726563 0 1 C0 0.67 0 0.34 0 0 Z " fill="#C5AF8E" transform="translate(171,158)"/>
<path d="M0 0 C1.67542976 0.28604898 3.34385343 0.61781233 5 1 C5 2.32 5 3.64 5 5 C3.35 5.33 1.7 5.66 0 6 C-0.38218767 4.34385343 -0.71395102 2.67542976 -1 1 C-0.67 0.67 -0.34 0.34 0 0 Z " fill="#E0E8F2" transform="translate(273,163)"/>
<path d="M0 0 C1.32 0 2.64 0 4 0 C4 1.65 4 3.3 4 5 C2.68 5.33 1.36 5.66 0 6 C-0.38218767 4.34385343 -0.71395102 2.67542976 -1 1 C-0.67 0.67 -0.34 0.34 0 0 Z " fill="#DFE6F1" transform="translate(168,163)"/>
<path d="M0 0 C0.66 0.33 1.32 0.66 2 1 C1.67 1.33 1.34 1.66 1 2 C1.66 2.66 2.32 3.32 3 4 C2.01 4.33 1.02 4.66 0 5 C-0.99 6.485 -0.99 6.485 -2 8 C-2.33 7.34 -2.66 6.68 -3 6 C-3.99 6.495 -3.99 6.495 -5 7 C-3.70700306 4.11562221 -2.34058637 2.12780579 0 0 Z " fill="#475C69" transform="translate(168,159)"/>
</svg>
