<?xml version="1.0" encoding="UTF-8"?>
<svg version="1.1" xmlns="http://www.w3.org/2000/svg" width="449" height="492">
<path d="M0 0 C148.17 0 296.34 0 449 0 C449 162.36 449 324.72 449 492 C300.83 492 152.66 492 0 492 C0 329.64 0 167.28 0 0 Z " fill="#294253" transform="translate(0,0)"/>
<path d="M0 0 C1.55538734 -0.00855011 1.55538734 -0.00855011 3.14219666 -0.01727295 C5.32810462 -0.02667263 7.51402643 -0.03323677 9.69995117 -0.03710938 C12.99358759 -0.04677593 16.28658869 -0.07783242 19.58007812 -0.109375 C47.63764782 -0.25277809 69.83581177 6.26669531 90.62890625 25.78125 C109.65824979 45.51066972 115.55544686 69.36418488 115.89990234 95.99511719 C115.95329067 99.90267368 116.05376413 103.80820385 116.15983582 107.71464539 C116.86313773 133.62682185 117.09166728 159.54041135 117.14606857 185.46094131 C117.15232081 187.8194698 117.16222226 190.1779573 117.17312622 192.53646851 C117.1898028 196.27788702 117.19593415 200.01918339 117.19410324 203.76063728 C117.19489832 205.14567736 117.19900569 206.53072021 117.20671463 207.91573906 C117.3076672 227.49987906 110.3274407 244.19490565 96.8359375 258.48828125 C91.64728418 263.39455888 85.91399938 267.29885886 79.96484375 271.203125 C79.21960449 271.70021973 78.47436523 272.19731445 77.70654297 272.70947266 C67.85249995 279.25921453 58.2034571 285.32312753 46.96484375 289.203125 C46.29646484 289.44144043 45.62808594 289.67975586 44.93945312 289.92529297 C26.11206533 296.43950062 2.39191057 297.2256659 -16.59765625 290.703125 C-17.37012695 290.43886719 -18.14259766 290.17460937 -18.93847656 289.90234375 C-31.71205453 285.34443976 -43.08559872 278.31337963 -54.53515625 271.140625 C-55.89688965 270.29274414 -55.89688965 270.29274414 -57.28613281 269.42773438 C-74.0390731 258.71916129 -85.13300483 244.30023751 -90.34765625 224.953125 C-93.43751206 206.63220032 -92.36841931 187.25013294 -92.59765625 168.703125 C-92.6074073 167.91997673 -92.61715836 167.13682846 -92.6272049 166.32994843 C-92.74719555 156.63446189 -92.85468283 146.93887495 -92.95636749 137.24318123 C-93.01270237 131.98517632 -93.08172894 126.72746702 -93.15869141 121.46972656 C-93.25584997 114.81988468 -93.32575496 108.17016465 -93.37619019 101.51977539 C-93.39852065 99.09275714 -93.42945783 96.66580006 -93.46975708 94.23901367 C-93.87097877 69.22872456 -89.25157728 48.20495266 -72.03515625 29.203125 C-71.2978125 28.37296875 -70.56046875 27.5428125 -69.80078125 26.6875 C-51.38841517 7.0717113 -26.25603308 0.11442605 0 0 Z " fill="#F1DDB6" transform="translate(207.03515625,0.796875)"/>
<path d="M0 0 C60.06 0 120.12 0 182 0 C182 162.36 182 324.72 182 492 C170.12 492 158.24 492 146 492 C147.65 490.35 149.3 488.7 151 487 C155.78405793 480.0505564 156.72721552 473.67255004 156.59375 465.39453125 C156.59379028 464.31225754 156.59383057 463.22998383 156.59387207 462.11491394 C156.58853988 459.83655967 156.57105672 457.55820442 156.54199219 455.2800293 C156.50032203 451.8390919 156.50091987 448.40013065 156.5078125 444.95898438 C156.42949844 417.84390862 150.57995057 392.55566381 130.95703125 372.72265625 C126.11452338 368.10833791 120.69676449 364.48575729 115 361 C114.23816406 360.52046875 113.47632813 360.0409375 112.69140625 359.546875 C100.25864434 352.54375064 84.75696324 350.07400959 70.953125 346.921875 C65.99466918 345.78205538 61.09040251 344.45390385 56.1796875 343.125 C51.12837657 341.75884437 46.06398594 340.44324396 41 339.125 C40.02659668 338.87137695 39.05319336 338.61775391 38.05029297 338.35644531 C35.03362255 337.57060242 32.01683028 336.78522896 29 336 C22.19668196 334.22921349 15.39388097 332.45650595 8.59277344 330.67724609 C6.14844558 330.03877477 3.70318236 329.40399716 1.2578125 328.76953125 C-0.11985292 328.40908822 -1.49746169 328.04842854 -2.875 327.6875 C-4.04804688 327.38199219 -5.22109375 327.07648438 -6.4296875 326.76171875 C-9 326 -9 326 -10 325 C-10.08783542 322.78144736 -10.10694609 320.56011504 -10.09765625 318.33984375 C-10.0962413 317.67537735 -10.09482635 317.01091095 -10.09336853 316.3263092 C-10.08775518 314.19666101 -10.07520054 312.06711661 -10.0625 309.9375 C-10.05748671 308.49674631 -10.05292351 307.05599097 -10.04882812 305.61523438 C-10.03778145 302.07678898 -10.02050792 298.53840461 -10 295 C-8.88367188 294.52433594 -7.76734375 294.04867188 -6.6171875 293.55859375 C20.86458731 281.42378409 48.02700973 263.29261279 59.375 234.4375 C61.68965482 227.48333882 63.1014646 220.05858397 62.91796875 212.71875 C62.87392988 209.48389481 62.90717154 207.05254195 64 204 C66.8665284 201.91121186 69.70688385 200.67955354 72.984375 199.3359375 C80.99203611 195.78850214 83.9592814 187.74501876 87 180 C91.79825499 166.62092403 94.46910093 147.35020915 88.265625 134.0078125 C87.04929975 131.87623051 87.04929975 131.87623051 84.95239258 130.15795898 C81.87436333 125.17930345 82.45641358 120.20337723 82.49609375 114.46484375 C82.48667252 113.23520401 82.47725128 112.00556427 82.46754456 110.73866272 C82.43887005 106.80477306 82.43581562 102.87148571 82.4375 98.9375 C82.43387953 95.0285955 82.42416391 91.12013263 82.39674377 87.21131897 C82.38010854 84.78155506 82.37695715 82.3516469 82.38975525 79.92185974 C82.28628042 63.02321652 76.66011325 48.34845625 65 36 C58.18921677 29.45790977 50.68177057 25.57283874 42 22 C41.13761719 21.63132812 40.27523437 21.26265625 39.38671875 20.8828125 C37.0963492 20.03563817 35.03141258 19.61487122 32.625 19.25 C28.33455454 18.33713926 26.26488555 16.75935813 23.14453125 13.78515625 C20.30669383 11.42287629 17.201447 9.62666729 14 7.8125 C13.41839111 7.47976074 12.83678223 7.14702148 12.23754883 6.80419922 C8.25315521 4.57490944 4.21362053 2.73596866 0 1 C0 0.67 0 0.34 0 0 Z " fill="#FEFEFE" transform="translate(267,0)"/>
<path d="M0 0 C55.77 0 111.54 0 169 0 C166.2649395 1.82337367 163.50852306 3.24142985 160.5534668 4.66552734 C153.21067038 8.21196161 146.52984915 12.07933975 140 17 C136.92977745 19.04681503 135.23907964 19.44255845 131.6875 20.125 C116.48031265 23.834966 104.28548173 33.66944883 96.0625 46.875 C92.74464769 52.96966396 90.73037861 59.30176022 89 66 C88.82228561 66.60366898 88.64457123 67.20733795 88.46147156 67.82929993 C87.90441846 70.44960268 87.88288737 72.86402371 87.88989258 75.54370117 C87.88902397 77.21144844 87.88902397 77.21144844 87.88813782 78.91288757 C87.89024765 80.11081436 87.89235748 81.30874115 87.89453125 82.54296875 C87.88107312 85.08659701 87.86604959 87.63021739 87.84960938 90.17382812 C87.82679979 94.17874922 87.8095174 98.18280177 87.82495117 102.18774414 C87.83378845 106.05679995 87.80481211 109.9240952 87.76953125 113.79296875 C87.78176224 114.98077438 87.79399323 116.16858002 87.80659485 117.39237976 C87.70593701 124.33863937 86.77851993 128.6389173 82.41972351 134.13545227 C76.93407775 141.33984684 78.51429388 152.86972909 79.3125 161.30078125 C81.12144527 174.52869352 84.01175988 190.20940791 95 199 C99.48357378 201.57038758 103.91708351 203.92002698 109 205 C109.02578125 206.05316406 109.0515625 207.10632813 109.078125 208.19140625 C109.88485435 231.44531189 117.64391135 251.16106011 134.4375 267.5 C140.62964055 272.89438011 147.69275114 276.74511875 154.81738281 280.75488281 C158.87252115 283.06821677 162.84736662 285.51655651 166.8269043 287.95703125 C171.14310828 290.57253859 175.44396331 292.72198165 180 295 C180 305.23 180 315.46 180 326 C176.844375 326.7425 173.68875 327.485 170.4375 328.25 C162.85494921 330.0476051 155.31018914 331.9326121 147.7890625 333.97265625 C143.44834529 335.14957236 139.10002788 336.29558464 134.75 337.4375 C133.13020375 337.86326382 131.51041211 338.28904517 129.890625 338.71484375 C129.08173828 338.92737793 128.27285156 339.13991211 127.43945312 339.35888672 C122.66571936 340.61347287 117.89247561 341.86992335 113.11938477 343.12695312 C109.19885616 344.15924242 105.27780293 345.18943471 101.35546875 346.21484375 C97.42024008 347.24389883 93.48819673 348.2846515 89.55664062 349.32763672 C86.79574958 350.05371521 84.03074879 350.76287949 81.265625 351.47265625 C79.32279642 351.98131178 77.38008582 352.49041814 75.4375 353 C74.09981567 353.33729126 74.09981567 353.33729126 72.73510742 353.68139648 C53.26536961 358.84750512 37.33320341 372.14147071 27.04296875 389.265625 C18.58802973 404.16148206 15.87674791 419.26648814 15.76171875 436.15625 C15.753647 437.29856079 15.74557526 438.44087158 15.73725891 439.61779785 C15.72349625 442.02138789 15.71273956 444.42499684 15.70483398 446.82861328 C15.69327772 449.27626306 15.67276908 451.72388694 15.64331055 454.17138672 C15.60056554 457.72901332 15.58445995 461.2858983 15.57421875 464.84375 C15.55671066 465.92837524 15.53920258 467.01300049 15.52116394 468.13049316 C15.55085397 478.59732671 18.29648494 483.95578193 25 492 C16.75 492 8.5 492 0 492 C0 329.64 0 167.28 0 0 Z " fill="#FEFEFE" transform="translate(0,0)"/>
<path d="M0 0 C-0.61488281 0.44730469 -1.22976562 0.89460938 -1.86328125 1.35546875 C-8.94740173 6.3065275 -8.94740173 6.3065275 -12.3046875 13.91015625 C-12.52774637 17.4200531 -12.46138009 19.26005079 -10.55078125 22.32421875 C-6.99756598 26.05155789 -2.95668979 28.86453067 1.25 31.8125 C2.51070312 32.7087207 2.51070312 32.7087207 3.796875 33.62304688 C5.86016533 35.08845194 7.92786156 36.54714694 10 38 C8.5157197 41.12337523 7.01930954 43.17662847 4.5 45.5625 C1.16288038 48.73700574 -1.30004032 51.31827152 -1.6875 56.0625 C-1.54500489 62.81457583 3.40932521 66.58808981 8 71 C9.37625973 72.37373911 10.75134738 73.74865394 12.125 75.125 C13.10339844 76.08792969 13.10339844 76.08792969 14.1015625 77.0703125 C16.59991876 79.60979396 18.89779411 82.29925133 21.21875 85 C23.0742521 87.08337078 25.01223101 89.04281207 27 91 C29.59982183 93.55990134 32.06268398 96.1677954 34.4375 98.9375 C37.00665271 101.92801716 39.69317256 104.73116684 42.5 107.5 C45.9288279 110.88241399 49.12048518 114.38070442 52.25390625 118.03515625 C54.09615675 120.10820324 56.02401662 122.05435802 58 124 C61.88096374 127.82851829 65.46374517 131.85430551 69 136 C70.03800614 137.21171499 71.07627438 138.42320548 72.11474609 139.63452148 C72.65505463 140.26478745 73.19536316 140.89505341 73.75204468 141.54441833 C74.16386993 142.02476028 74.57569519 142.50510223 75 143 C52.06027167 143.09347848 29.12057479 143.16399649 6.18069458 143.20724869 C-4.47091034 143.22786603 -15.12239686 143.25597089 -25.77392578 143.30175781 C-35.05877099 143.34165082 -44.34353044 143.36743883 -53.62845898 143.37635398 C-58.54390773 143.38156453 -63.45911115 143.39379412 -68.3744812 143.42292023 C-73.00377294 143.45012819 -77.63271895 143.45843411 -82.26208305 143.45243073 C-83.95837726 143.45352856 -85.65468337 143.46145039 -87.35090828 143.4768219 C-103.3876095 143.61498579 -103.3876095 143.61498579 -110 139 C-113.38513745 134.63208071 -114.11784975 130.50568227 -114.16113281 125.08642578 C-114.17074036 124.11085724 -114.1803479 123.1352887 -114.19024658 122.13015747 C-114.1966214 120.55365921 -114.1966214 120.55365921 -114.203125 118.9453125 C-114.20882507 117.85217743 -114.21452515 116.75904236 -114.22039795 115.63278198 C-114.22984599 113.3144426 -114.23638115 110.9960898 -114.24023438 108.67773438 C-114.24986825 105.17292904 -114.28086409 101.66872845 -114.3125 98.1640625 C-114.42867541 73.80268823 -109.94771419 51.82075045 -92.58203125 33.44921875 C-80.51685012 22.00463695 -68.20222345 15.94372012 -52.12890625 11.7578125 C-50.71529977 11.38213284 -49.3018864 11.00572584 -47.88865662 10.62863159 C-44.94977741 9.84701178 -42.00904005 9.07298356 -39.06665039 8.3046875 C-35.29478015 7.31931779 -31.52779884 6.31653995 -27.76196384 5.30838203 C-24.85460275 4.53175331 -21.94512044 3.76334244 -19.03489494 2.99752426 C-17.64399632 2.63063879 -16.25371518 2.26140397 -14.86407661 1.88977432 C-12.93051899 1.37418886 -10.99376457 0.8706371 -9.05688477 0.36767578 C-7.4066909 -0.06603836 -7.4066909 -0.06603836 -5.72315979 -0.5085144 C-3 -1 -3 -1 0 0 Z " fill="#455260" transform="translate(136,344)"/>
<path d="M0 0 C6.74125059 1.27563824 13.37129959 2.79650363 20 4.5625 C26.44586377 6.27788772 32.89223102 7.98193933 39.36553955 9.59089661 C42.37499232 10.34128827 45.38073597 11.10596749 48.38623047 11.87203979 C49.85606434 12.24328505 51.32739716 12.60865511 52.80029297 12.96755981 C65.33967693 16.02975688 76.8122837 20.21849631 86.3125 29.375 C86.80194092 29.84558838 87.29138184 30.31617676 87.7956543 30.80102539 C89.21544009 32.18207915 90.60847217 33.59047828 92 35 C92.7528125 35.75410156 93.505625 36.50820313 94.28125 37.28515625 C107.85539438 51.66852847 113.14806762 69.32006963 113.16796875 88.71484375 C113.17129715 89.84394669 113.17462555 90.97304962 113.17805481 92.1363678 C113.18310707 94.51921177 113.18546366 96.90206279 113.18530273 99.28491211 C113.18749018 102.92118007 113.20566691 106.55714499 113.22460938 110.19335938 C113.22754349 112.5130198 113.22952816 114.83268166 113.23046875 117.15234375 C113.23765427 118.23482895 113.24483978 119.31731415 113.25224304 120.43260193 C113.21323788 133.37906041 113.21323788 133.37906041 108.625 138.8125 C103.91083727 142.74096894 100.94064597 143.24921218 94.76141357 143.24050903 C93.66597854 143.24307231 93.66597854 143.24307231 92.54841352 143.24568737 C90.10086082 143.24898214 87.65358214 143.23797886 85.20605469 143.22705078 C83.45179246 143.22648666 81.69752977 143.22680324 79.94326782 143.22793579 C75.17915255 143.22851029 70.41513771 143.21674029 65.6510458 143.20278788 C60.67290695 143.19029666 55.69476587 143.18911129 50.71661377 143.18673706 C41.28899425 143.18051756 31.86142103 143.16410037 22.43382192 143.14403808 C11.7011708 143.12169371 0.96851749 143.11068933 -9.7641511 143.10064721 C-31.84279326 143.07973457 -53.92139371 143.04454944 -76 143 C-75.03975225 141.87295907 -74.07855029 140.74673109 -73.11694336 139.62084961 C-72.31419228 138.67996742 -72.31419228 138.67996742 -71.495224 137.72007751 C-69.92498244 135.91370121 -68.28882721 134.21994632 -66.5625 132.5625 C-64.12837912 130.17098955 -61.84611167 127.71544202 -59.625 125.125 C-57.03365795 122.1153247 -54.32745217 119.28911384 -51.5 116.5 C-48.0711721 113.11758601 -44.87951482 109.61929558 -41.74609375 105.96484375 C-39.27396582 103.18300852 -36.61569453 100.60624049 -33.96484375 97.99609375 C-32.07769256 96.07892823 -30.31314625 94.10424678 -28.5625 92.0625 C-25.99334729 89.07198284 -23.30682744 86.26883316 -20.5 83.5 C-17.09689475 80.13720226 -13.88293515 76.68577682 -10.76953125 73.0546875 C-8.09756243 69.95213651 -5.34466624 66.92246799 -2.6015625 63.8828125 C0.0044305 60.8191817 0.51038344 58.27516975 0.48828125 54.23046875 C-0.469725 49.85429618 -3.87135972 47.02144918 -7 44 C-8 43 -9 42 -10 41 C-8.81362773 37.44088319 -7.82831462 36.8963303 -4.81640625 34.78515625 C-3.97142578 34.18123047 -3.12644531 33.57730469 -2.25585938 32.95507812 C-0.46473887 31.69648801 1.32692541 30.4386714 3.11914062 29.18164062 C3.96541016 28.57642578 4.81167969 27.97121094 5.68359375 27.34765625 C6.46275146 26.80117432 7.24190918 26.25469238 8.04467773 25.69165039 C10.11656797 23.89915102 11.0250067 22.54013107 12 20 C12.32456131 15.34795462 11.73086517 11.91880193 8.8125 8.25 C7.884375 7.5075 6.95625 6.765 6 6 C3.99295363 4.34159549 1.99632123 2.6713387 0 1 C0 0.67 0 0.34 0 0 Z " fill="#495764" transform="translate(303,344)"/>
<path d="M0 0 C-0.61746094 0.53367187 -1.23492187 1.06734375 -1.87109375 1.6171875 C-15.23613329 13.37516749 -25.23959557 25.99285494 -32.3125 42.3125 C-32.62582275 43.02140381 -32.93914551 43.73030762 -33.26196289 44.46069336 C-34.28709617 46.94560766 -35.15825752 49.44683181 -36 52 C-36.36625488 53.07741455 -36.73250977 54.1548291 -37.10986328 55.26489258 C-41.21583627 69.52149124 -40.46102696 84.2156522 -40.2746582 98.90814209 C-40.2331385 102.53566887 -40.21512236 106.16331607 -40.1953125 109.79101562 C-40.15503753 116.86128625 -40.07668944 123.9296597 -40 131 C-27.79 131.33 -15.58 131.66 -3 132 C-2.01 133.98 -2.01 133.98 -1 136 C-3 138 -3 138 -5.97753906 138.24291992 C-7.22760742 138.23881104 -8.47767578 138.23470215 -9.765625 138.23046875 C-10.77215118 138.22978142 -10.77215118 138.22978142 -11.79901123 138.2290802 C-13.22133141 138.22605693 -14.64364826 138.21816834 -16.06591797 138.20581055 C-18.22766055 138.18768729 -20.38897102 138.18530004 -22.55078125 138.18554688 C-28.46580035 138.16451787 -34.16853797 138.12208075 -40 137 C-39.97199814 137.56909088 -39.94399628 138.13818176 -39.91514587 138.72451782 C-39.37624066 149.86411255 -38.93259787 160.99676948 -38.75390625 172.1484375 C-38.73725922 173.15384583 -38.72061218 174.15925415 -38.70346069 175.19512939 C-38.63768006 179.28773854 -38.57511948 183.38033421 -38.52319336 187.47314453 C-38.87210921 211.47203417 -38.87210921 211.47203417 -32.5 234.25 C-32.15324219 234.99032471 -31.80648437 235.73064941 -31.44921875 236.4934082 C-24.35463984 251.00063129 -13.70731811 261.10856137 0 269.375 C1.3765979 270.21309204 1.3765979 270.21309204 2.78100586 271.06811523 C5.51396186 272.72356681 8.25527926 274.36414441 11 276 C11.77102051 276.46325684 12.54204102 276.92651367 13.33642578 277.40380859 C21.63313296 282.36239479 29.59569743 286.45300139 39 289 C39 289.33 39 289.66 39 290 C35.99369803 290.04848874 33.00530676 290.04971184 30 290 C29.27683594 289.99613281 28.55367188 289.99226563 27.80859375 289.98828125 C7.99657934 288.98906661 -10.21751034 277.13792066 -26.5 266.9375 C-27.8617334 266.08961914 -27.8617334 266.08961914 -29.25097656 265.22460938 C-46.00391685 254.51603629 -57.09784858 240.09711251 -62.3125 220.75 C-65.40235581 202.42907532 -64.33326306 183.04700794 -64.5625 164.5 C-64.57225105 163.71685173 -64.58200211 162.93370346 -64.59204865 162.12682343 C-64.7120393 152.43133689 -64.81952658 142.73574995 -64.92121124 133.04005623 C-64.97754612 127.78205132 -65.04657269 122.52434202 -65.12353516 117.26660156 C-65.22069372 110.61675968 -65.29059871 103.96703965 -65.34103394 97.31665039 C-65.3633644 94.88963214 -65.39430158 92.46267506 -65.43460083 90.03588867 C-65.83582252 65.02559956 -61.21642103 44.00182766 -44 25 C-43.26265625 24.16984375 -42.5253125 23.3396875 -41.765625 22.484375 C-35.00048643 15.27707051 -10.82507182 -5.41253591 0 0 Z " fill="#D4B992" transform="translate(179,5)"/>
<path d="M0 0 C2.56235953 3.18323155 4.36750336 6.4907583 6.1875 10.14453125 C6.48580215 10.74118591 6.78410431 11.33784058 7.09144592 11.95257568 C8.06524129 13.90378688 9.03284264 15.85799106 10 17.8125 C10.68534173 19.19073538 11.37080868 20.56890849 12.05639648 21.94702148 C16.21581153 30.32312249 20.29886444 38.7327441 24.30493164 47.18334961 C30.37261108 59.94978203 36.62510204 72.62724425 42.85327148 85.31591797 C46.94078283 93.64992766 51.02457176 101.98232421 54.94921875 110.39453125 C55.50037354 111.57031738 56.05152832 112.74610352 56.61938477 113.95751953 C57.59042496 116.04068182 58.55133836 118.12860917 59.49975586 120.22216797 C60.1224939 121.55658936 60.1224939 121.55658936 60.7578125 122.91796875 C61.27045654 124.04368286 61.27045654 124.04368286 61.79345703 125.19213867 C63.2780409 127.41661127 64.51270759 128.07608921 67 129 C70.99093171 129.33257764 73.6219696 129.17114507 77 127 C78.43958729 124.95579371 78.43958729 124.95579371 79.57446289 122.45629883 C80.27153099 121.03629326 80.27153099 121.03629326 80.98268127 119.58760071 C81.47437302 118.55451279 81.96606476 117.52142487 82.47265625 116.45703125 C82.99580917 115.38241135 83.5189621 114.30779144 84.05796814 113.2006073 C85.73762264 109.74333185 87.4001796 106.27813795 89.0625 102.8125 C90.15449584 100.55870998 91.2475839 98.30544881 92.34179688 96.05273438 C97.45553254 85.50811544 102.51052294 74.93554107 107.55859375 64.359375 C113.29284928 52.34638653 119.14014066 40.38960222 125 28.4375 C126.03264339 26.32882075 127.06519574 24.22009692 128.09765625 22.11132812 C129.08585611 20.09371013 130.07413429 18.0761305 131.0625 16.05859375 C131.51560547 15.13364609 131.96871094 14.20869843 132.43554688 13.25572205 C134.60635575 8.82827767 136.78626555 4.40614809 139 0 C143.31423445 2.39141086 146.90612517 5.29905066 150.625 8.5 C151.19734375 8.98597656 151.7696875 9.47195313 152.359375 9.97265625 C153.91726913 11.30230077 155.45935283 12.65040934 157 14 C157.64710938 14.4846875 158.29421875 14.969375 158.9609375 15.46875 C160 17 160 17 159.85375977 19.8425293 C158.80437319 23.72348913 157.58511072 24.69760641 154.37890625 27.05078125 C153.44369141 27.74880859 152.50847656 28.44683594 151.54492188 29.16601562 C150.06862305 30.22852539 150.06862305 30.22852539 148.5625 31.3125 C147.58216797 32.04017578 146.60183594 32.76785156 145.59179688 33.51757812 C138.51959325 38.74020337 138.51959325 38.74020337 136 40 C136.52139396 46.13469914 140.66744945 49.06201538 144.84765625 53.18359375 C147 56 147 56 147.65625 58.9453125 C146.75167341 63.15590114 144.39577045 65.49322699 141.4375 68.4375 C140.88682861 69.00879639 140.33615723 69.58009277 139.76879883 70.16870117 C138.19436483 71.79502177 136.60214615 73.40102851 135 75 C134.30390625 75.69867188 133.6078125 76.39734375 132.890625 77.1171875 C131.78520876 78.21753303 130.67603893 79.31412528 129.5625 80.40625 C127.85622166 82.14665391 126.27358373 83.96206898 124.6875 85.8125 C121.92381971 89.02333755 119.01380404 92.02267165 116 95 C112.41441301 98.54232199 109.05108338 102.17555661 105.77734375 106.00390625 C103.05022777 109.06666727 100.10595363 111.90223493 97.1875 114.78125 C95.20279658 116.79430632 93.33903084 118.85446403 91.5 121 C88.25647974 124.78410697 84.76602167 128.25985953 81.20703125 131.74609375 C78.47634452 134.53477737 76.02279313 137.50446204 73.60546875 140.56640625 C72 142 72 142 68 142 C66.33105469 140.70922852 66.33105469 140.70922852 64.671875 138.87890625 C64.04466553 138.19876465 63.41745605 137.51862305 62.77124023 136.81787109 C62.10423096 136.07359863 61.43722168 135.32932617 60.75 134.5625 C59.31927533 133.00366307 57.88827767 131.44507665 56.45703125 129.88671875 C55.72307129 129.08024902 54.98911133 128.2737793 54.23291016 127.44287109 C50.67415862 123.54948952 47.05549552 119.71323993 43.4375 115.875 C42.79586914 115.18994385 42.15423828 114.5048877 41.49316406 113.79907227 C38.45796644 110.56556557 35.39332402 107.3748448 32.24609375 104.25 C29.93236423 101.95218691 27.72381738 99.62359212 25.625 97.125 C23.03365795 94.1153247 20.32745217 91.28911384 17.5 88.5 C14.09673063 85.14272075 10.9318053 81.67210829 7.82421875 78.04296875 C5.73785508 75.70642014 3.54185826 73.51276386 1.3125 71.3125 C-6.80891673 63.21880142 -6.80891673 63.21880142 -7.43359375 59.234375 C-6.84945346 54.87700417 -4.55309123 52.8443129 -1.5 49.9375 C2.6049867 46.21662596 2.6049867 46.21662596 4.34375 41.12890625 C4.17359375 40.07509766 4.17359375 40.07509766 4 39 C3.4330542 38.7328418 2.8661084 38.46568359 2.28198242 38.19042969 C-1.98156726 35.9662863 -5.78930205 33.05137759 -9.6875 30.25 C-11.00717773 29.33734375 -11.00717773 29.33734375 -12.35351562 28.40625 C-18.67148667 23.84678901 -18.67148667 23.84678901 -20.2578125 19.7578125 C-19.95997282 16.57183051 -19.54760362 15.72405378 -17.1875 13.625 C-16.54683594 13.04621094 -15.90617188 12.46742188 -15.24609375 11.87109375 C-4.98606272 3.32404181 -4.98606272 3.32404181 0 0 Z " fill="#3B4853" transform="translate(149,342)"/>
<path d="M0 0 C-0.60328125 0.4125 -1.2065625 0.825 -1.828125 1.25 C-7.47410966 5.18897904 -7.47410966 5.18897904 -10.5 11.125 C-11.93898372 14.5599934 -13.01466536 15.00608508 -16.55859375 16.4765625 C-20.27759476 17.62405937 -24.0444733 18.56874094 -27.82861328 19.47509766 C-49.09903604 24.61692461 -66.42264474 36.26060014 -78 55 C-80.61677948 59.5504418 -83.11930259 64.09573606 -85 69 C-85.35304199 69.90065186 -85.70608398 70.80130371 -86.06982422 71.72924805 C-90.37961215 84.87381174 -89.67641184 98.69223357 -89.73822021 112.38012695 C-89.75803111 115.84015708 -89.79997065 119.29991885 -89.83984375 122.75976562 C-89.91443685 129.50640759 -89.96515263 136.25303839 -90 143 C-91.90472055 143.04584914 -93.80976342 143.07842299 -95.71484375 143.10546875 C-96.77566162 143.12504639 -97.83647949 143.14462402 -98.92944336 143.16479492 C-103.29422675 142.93053963 -106.55771429 141.67252835 -110 139 C-113.38513745 134.63208071 -114.11784975 130.50568227 -114.16113281 125.08642578 C-114.17074036 124.11085724 -114.1803479 123.1352887 -114.19024658 122.13015747 C-114.1966214 120.55365921 -114.1966214 120.55365921 -114.203125 118.9453125 C-114.20882507 117.85217743 -114.21452515 116.75904236 -114.22039795 115.63278198 C-114.22984599 113.3144426 -114.23638115 110.9960898 -114.24023438 108.67773438 C-114.24986825 105.17292904 -114.28086409 101.66872845 -114.3125 98.1640625 C-114.42867541 73.80268823 -109.94771419 51.82075045 -92.58203125 33.44921875 C-80.51685012 22.00463695 -68.20222345 15.94372012 -52.12890625 11.7578125 C-50.71529977 11.38213284 -49.3018864 11.00572584 -47.88865662 10.62863159 C-44.94977741 9.84701178 -42.00904005 9.07298356 -39.06665039 8.3046875 C-35.29478015 7.31931779 -31.52779884 6.31653995 -27.76196384 5.30838203 C-24.85460275 4.53175331 -21.94512044 3.76334244 -19.03489494 2.99752426 C-17.64399632 2.63063879 -16.25371518 2.26140397 -14.86407661 1.88977432 C-12.93051899 1.37418886 -10.99376457 0.8706371 -9.05688477 0.36767578 C-7.4066909 -0.06603836 -7.4066909 -0.06603836 -5.72315979 -0.5085144 C-3 -1 -3 -1 0 0 Z " fill="#34424D" transform="translate(136,344)"/>
<path d="M0 0 C4.87255739 0.50387282 9.69040514 1.04995657 14.5 2 C28.20372732 4.53983328 41.1078756 4.79476934 54.72265625 1.65625 C57.62116937 1.07585643 60.06641654 0.94757557 63 1 C65.08219534 27.85231143 65.08219534 27.85231143 60.57421875 34.5390625 C57.73877314 37.81097713 54.43306659 40.37980056 51 43 C49.72940095 44.35822658 48.49268944 45.75001808 47.3125 47.1875 C43.91515616 51.12038573 40.42008303 54.96111378 36.91796875 58.80078125 C34.87480508 61.04822519 34.87480508 61.04822519 33 64 C29.75043399 62.91681133 29.16607364 62.29783983 27.0625 59.75 C23.84122138 55.94984467 20.51529759 52.27342312 17.125 48.625 C12.61814662 43.7650003 8.15877671 38.86815488 3.7421875 33.92578125 C2.52933092 32.58511243 1.27836105 31.27836105 0 30 C-0.22705078 27.01904297 -0.22705078 27.01904297 -0.1953125 23.2421875 C-0.1924826 22.57913605 -0.18965271 21.91608459 -0.18673706 21.23294067 C-0.17553435 19.11344417 -0.15043051 16.99436896 -0.125 14.875 C-0.11497028 13.43880818 -0.10584441 12.00260975 -0.09765625 10.56640625 C-0.075595 7.04413372 -0.04106494 3.52210797 0 0 Z " fill="#EDD9B1" transform="translate(187,297)"/>
<path d="M0 0 C1.23250992 -0.00857025 2.46501984 -0.0171405 3.73487854 -0.02597046 C6.33274893 -0.03741985 8.9306834 -0.03848504 11.52856445 -0.02978516 C15.48826084 -0.02346248 19.44496922 -0.07043088 23.40429688 -0.12109375 C25.93619417 -0.12564016 28.46809945 -0.12704653 31 -0.125 C32.17525742 -0.14341949 33.35051483 -0.16183899 34.56138611 -0.18081665 C42.23314172 -0.0950778 47.37048939 1.29995572 53.06640625 6.6015625 C56.52879784 10.75122291 57.43406284 14.20515284 57.34375 19.6640625 C57.06640625 21.6015625 57.06640625 21.6015625 55.44140625 24.0390625 C53.06640625 25.6015625 53.06640625 25.6015625 50.00390625 26.0390625 C49.03453125 26.2246875 48.06515625 26.4103125 47.06640625 26.6015625 C46.01996559 28.23946962 45.02658795 29.91164271 44.06640625 31.6015625 C35.53734636 39.6372057 23.73574863 40.94033633 12.51171875 40.8125 C3.36562348 40.25253498 -5.02184635 37.86751532 -11.93359375 31.6015625 C-11.93359375 30.9415625 -11.93359375 30.2815625 -11.93359375 29.6015625 C-12.59359375 29.6015625 -13.25359375 29.6015625 -13.93359375 29.6015625 C-14.26359375 28.2815625 -14.59359375 26.9615625 -14.93359375 25.6015625 C-16.17109375 25.6840625 -17.40859375 25.7665625 -18.68359375 25.8515625 C-21.69611451 25.8301971 -22.77708192 25.6954696 -25.43359375 24.1015625 C-27.57747809 20.52842194 -27.84223601 17.57861976 -26.93359375 13.6015625 C-24.31472299 7.78078771 -21.2657958 4.27692581 -15.43954468 1.45898438 C-10.43261994 -0.25415643 -5.24078252 -0.00811444 0 0 Z " fill="#284253" transform="translate(202.93359375,228.3984375)"/>
<path d="M0 0 C8.37135993 1.48336886 16.62791693 3.97277001 24.8125 6.25 C23.29313006 11.21363214 21.25638027 15.76276573 19.00390625 20.421875 C18.45282448 21.56731781 18.45282448 21.56731781 17.89060974 22.73590088 C17.11678716 24.34034771 16.34095873 25.94382851 15.56323242 27.54638672 C14.3739777 30.00211097 13.19756969 32.4637282 12.02148438 34.92578125 C11.26640426 36.48735621 10.51057094 38.04856724 9.75390625 39.609375 C9.40380997 40.34581238 9.05371368 41.08224976 8.69300842 41.84100342 C7.01598182 45.26475452 6.04668187 47.09387875 2.8125 49.25 C-2.2681281 49.85884676 -5.75148632 48.34276807 -10.1171875 45.96875 C-10.75238312 45.63580933 -11.38757874 45.30286865 -12.04202271 44.95983887 C-14.05512616 43.90130617 -16.05870902 42.82603864 -18.0625 41.75 C-19.43169664 41.02621701 -20.80148304 40.30354851 -22.171875 39.58203125 C-25.5173798 37.81751251 -28.85445603 36.03793684 -32.1875 34.25 C-32.1875 30.62263248 -31.59420249 30.26302908 -29.15234375 27.73828125 C-28.50716797 27.06216797 -27.86199219 26.38605469 -27.19726562 25.68945312 C-26.51341797 24.98755859 -25.82957031 24.28566406 -25.125 23.5625 C-15.67342214 13.85843949 -15.67342214 13.85843949 -7.375 3.1875 C-4.99120001 0.48874198 -3.60779195 -0.21846491 0 0 Z " fill="#ECECF4" transform="translate(257.1875,331.75)"/>
<path d="M0 0 C1.74169922 1.36352539 1.74169922 1.36352539 3.3046875 3.09765625 C3.88468506 3.73050537 4.46468262 4.36335449 5.06225586 5.01538086 C5.66046143 5.69093018 6.25866699 6.36647949 6.875 7.0625 C7.80807983 8.09032593 7.80807983 8.09032593 8.76000977 9.13891602 C10.51874087 11.08221814 12.26213117 13.03804456 14 15 C14.73347656 15.82242187 15.46695313 16.64484375 16.22265625 17.4921875 C17.83017607 19.31575212 19.41731686 21.15488216 21 23 C22.31121022 24.50112758 23.62370866 26.00113091 24.9375 27.5 C25.95833333 28.66666667 26.97916667 29.83333333 28 31 C24.18172414 35.37640164 18.64269096 37.5735163 13.56762695 40.20776367 C11.6974941 41.18229206 9.83813727 42.17551523 7.97851562 43.16992188 C6.78186362 43.79544611 5.58461627 44.41983303 4.38671875 45.04296875 C2.76576294 45.89411255 2.76576294 45.89411255 1.11206055 46.76245117 C-2.30810333 48.12252105 -4.36741084 48.6336888 -8 48 C-11.86907395 44.35669684 -13.99866888 39.42344733 -16.328125 34.70703125 C-16.72199402 33.91979172 -17.11586304 33.13255219 -17.52166748 32.32145691 C-18.34805879 30.66634397 -19.17151598 29.00976312 -19.9921875 27.35180664 C-21.25280388 24.80683944 -22.52411063 22.26742559 -23.796875 19.72851562 C-24.59959442 18.11750429 -25.40169962 16.50618672 -26.203125 14.89453125 C-26.58430481 14.13308304 -26.96548462 13.37163483 -27.35821533 12.58711243 C-30 7.2310705 -30 7.2310705 -30 5 C-25.94167606 3.96205291 -21.87781907 2.94767019 -17.8125 1.9375 C-16.08676758 1.49567383 -16.08676758 1.49567383 -14.32617188 1.04492188 C-12.65844727 0.6340332 -12.65844727 0.6340332 -10.95703125 0.21484375 C-9.93585205 -0.04176025 -8.91467285 -0.29836426 -7.86254883 -0.56274414 C-4.82082591 -1.02736894 -2.91451064 -0.96083438 0 0 Z " fill="#ECECF5" transform="translate(185,333)"/>
<path d="M0 0 C1.93166016 0.01740234 1.93166016 0.01740234 3.90234375 0.03515625 C5.19269531 0.04417969 6.48304688 0.05320312 7.8125 0.0625 C8.81152344 0.07410156 9.81054688 0.08570313 10.83984375 0.09765625 C12.3943977 3.7321942 13.44148943 7.27924151 14.3125 11.1328125 C14.70211914 12.84114258 14.70211914 12.84114258 15.09960938 14.58398438 C15.36451172 15.76412109 15.62941406 16.94425781 15.90234375 18.16015625 C16.43468283 20.5052567 16.96722624 22.85031077 17.5 25.1953125 C17.73340088 26.23179932 17.96680176 27.26828613 18.20727539 28.33618164 C18.56810011 29.91136048 18.9560621 31.48218295 19.42358398 33.02905273 C20.60688706 38.90947908 19.76562602 43.12142606 17.06640625 48.3984375 C16.20015625 50.11063477 16.20015625 50.11063477 15.31640625 51.85742188 C14.86056152 52.7320105 14.86056152 52.7320105 14.39550781 53.62426758 C13.46160007 55.41638068 12.54760867 57.21757952 11.63671875 59.02148438 C7.16358613 67.77391387 7.16358613 67.77391387 4.83984375 70.09765625 C3.84984375 70.09765625 2.85984375 70.09765625 1.83984375 70.09765625 C-0.17225195 66.2473827 -2.16524213 62.38797709 -4.14160156 58.51928711 C-4.81555132 57.20644202 -5.49452094 55.89616064 -6.17871094 54.58862305 C-7.16523768 52.70113567 -8.13292962 50.80495369 -9.09765625 48.90625 C-9.68417969 47.76986084 -10.27070313 46.63347168 -10.875 45.46264648 C-12.99007302 39.9246428 -12.40182118 35.14394441 -10.91796875 29.515625 C-10.65628906 28.50048828 -10.39460937 27.48535156 -10.125 26.43945312 C-9.84785156 25.39853516 -9.57070312 24.35761719 -9.28515625 23.28515625 C-8.74377067 21.21675248 -8.20468259 19.14774592 -7.66796875 17.078125 C-7.2797998 15.58224854 -7.2797998 15.58224854 -6.88378906 14.05615234 C-5.9840688 10.37774136 -5.25906972 6.68009978 -4.58544922 2.9543457 C-3.85689352 -0.22628926 -3.43550389 0.10616514 0 0 Z " fill="#D52B44" transform="translate(215.16015625,394.90234375)"/>
<path d="M0 0 C13.39153244 3.52408748 23.99600999 13.35268399 31.2734375 24.76171875 C34.03523312 29.94164764 35.60380879 35.32057812 37 41 C37.17691879 41.61397644 37.35383759 42.22795288 37.53611755 42.86053467 C38.0677182 45.31232209 38.11986126 47.53494208 38.11352539 50.04394531 C38.11344986 51.04468079 38.11337433 52.04541626 38.11329651 53.07647705 C38.10813522 54.14952087 38.10297394 55.2225647 38.09765625 56.328125 C38.0962413 57.43226746 38.09482635 58.53640991 38.09336853 59.67401123 C38.08777258 63.19936842 38.07522079 66.72466202 38.0625 70.25 C38.05748448 72.64062408 38.05292166 75.03124916 38.04882812 77.421875 C38.03780447 83.28127449 38.02054257 89.14062646 38 95 C33.05 94.01 28.1 93.02 23 92 C22.92652344 88.596875 22.92652344 88.596875 22.8515625 85.125 C22.79717523 82.86745962 22.74001835 80.6100046 22.68261719 78.35253906 C22.64490897 76.8128933 22.60996875 75.27317665 22.578125 73.73339844 C22.04085226 48.04504546 18.9197376 22.82485159 1.46875 2.72265625 C0 1 0 1 0 0 Z " fill="#E5A238" transform="translate(306,26)"/>
<path d="M0 0 C0.66 0.33 1.32 0.66 2 1 C1.47212891 1.65742188 1.47212891 1.65742188 0.93359375 2.328125 C-15.53296082 23.48098361 -19.36946766 45.48541211 -19.6875 71.5 C-19.72076949 73.40236576 -19.75526753 75.30471045 -19.79101562 77.20703125 C-19.87479454 81.80456843 -19.94211005 86.40206699 -20 91 C-24.29 91.99 -28.58 92.98 -33 94 C-33.09952676 86.8141678 -33.17177913 79.62874464 -33.21972656 72.44238281 C-33.23973329 70.00220746 -33.26694745 67.56207938 -33.30175781 65.12207031 C-33.35075874 61.59688589 -33.37307916 58.07234011 -33.390625 54.546875 C-33.41127014 53.4713739 -33.43191528 52.3958728 -33.45318604 51.28778076 C-33.45729892 37.12766003 -27.68143741 23.32987991 -18.05859375 12.9140625 C-12.70860013 7.93968513 -6.46809515 3.41065086 0 0 Z " fill="#E08F2D" transform="translate(127,27)"/>
<path d="M0 0 C4.87255739 0.50387282 9.69040514 1.04995657 14.5 2 C19.32486909 2.91189345 24.11407339 3.51941705 29 4 C29 4.33 29 4.66 29 5 C27.02 5 25.04 5 23 5 C23 21.17 23 37.34 23 54 C20.525 51.525 20.525 51.525 18 49 C17.34257812 48.35417969 16.68515625 47.70835937 16.0078125 47.04296875 C12.00029127 43.09364803 8.19699639 39.04066323 4.54296875 34.76171875 C3.0959479 32.98676013 3.0959479 32.98676013 1.421875 31.81835938 C-0.75947117 29.02875322 -0.33714793 26.63468685 -0.29296875 23.14453125 C-0.28872391 22.48289474 -0.28447906 21.82125824 -0.28010559 21.13957214 C-0.26333693 19.0301309 -0.22569099 16.92165154 -0.1875 14.8125 C-0.17245068 13.38087319 -0.1587627 11.94923138 -0.14648438 10.51757812 C-0.1134403 7.01140712 -0.06167167 3.50579746 0 0 Z " fill="#D4B892" transform="translate(187,297)"/>
<path d="M0 0 C1.5275013 -0.01441132 1.5275013 -0.01441132 3.08586121 -0.02911377 C4.19101578 -0.03336365 5.29617035 -0.03761353 6.43481445 -0.04199219 C8.13695854 -0.0505423 8.13695854 -0.0505423 9.87348938 -0.05926514 C12.28023341 -0.0687264 14.68699045 -0.07525357 17.09375 -0.07910156 C20.76561345 -0.08878156 24.43691121 -0.11978452 28.10864258 -0.15136719 C30.44652988 -0.1578997 32.78442119 -0.16314919 35.12231445 -0.16699219 C36.76486458 -0.18551239 36.76486458 -0.18551239 38.44059753 -0.20440674 C45.23729275 -0.18468171 50.9226994 0.07607187 56.0480957 5.03613281 C57.1105957 7.16113281 57.1105957 7.16113281 57.1105957 12.16113281 C34.3405957 12.16113281 11.5705957 12.16113281 -11.8894043 12.16113281 C-11.8894043 6.16113281 -11.8894043 6.16113281 -9.5144043 3.34863281 C-6.0147069 0.43221832 -4.45459973 0.03386256 0 0 Z " fill="#445260" transform="translate(196.889404296875,234.8388671875)"/>
<path d="M0 0 C4.71370756 0.64985095 8.57686444 2.51561392 12.8125 4.5625 C13.50537109 4.89185547 14.19824219 5.22121094 14.91210938 5.56054688 C16.61044948 6.36872251 18.30555769 7.18368377 20 8 C14.62673188 20.15739434 9.06337655 32.17063321 3 44 C-0.53865096 40.46134904 -0.94602709 35.19569928 -2.125 30.4375 C-2.40214844 29.37724609 -2.67929688 28.31699219 -2.96484375 27.22460938 C-6.53104054 12.98617341 -6.53104054 12.98617341 -3.90625 6.15234375 C-3.4421875 5.42144531 -2.978125 4.69054687 -2.5 3.9375 C-2.0359375 3.18339844 -1.571875 2.42929687 -1.09375 1.65234375 C-0.55234375 0.83443359 -0.55234375 0.83443359 0 0 Z " fill="#FAFAFB" transform="translate(238,380)"/>
<path d="M0 0 C2.68011886 1.43226535 3.80132298 3.67712631 5 6.37890625 C7.77410403 16.36568074 3.47722719 28.05653046 0.95703125 37.796875 C0.76439697 38.54155029 0.5717627 39.28622559 0.37329102 40.0534668 C-0.296875 41.91015625 -0.296875 41.91015625 -2.296875 43.91015625 C-7.906875 32.36015625 -13.516875 20.81015625 -19.296875 8.91015625 C-16.09129144 6.77310054 -12.77833295 4.9832961 -9.359375 3.22265625 C-8.73869141 2.88943359 -8.11800781 2.55621094 -7.47851562 2.21289062 C-4.91684415 0.90068191 -2.91553629 -0.11404309 0 0 Z " fill="#FAFBFB" transform="translate(199.296875,380.08984375)"/>
<path d="M0 0 C0 3.63 0 7.26 0 11 C-2.0728125 11.5878125 -2.0728125 11.5878125 -4.1875 12.1875 C-8.52732765 13.62271859 -11.05814923 15.41461938 -14 19 C-17.63249009 26.26498019 -15.47113819 39.78523361 -13.25 47.25 C-10.5477771 54.68583714 -8.2206622 60.00559112 -1 64 C0.485 64.495 0.485 64.495 2 65 C2 67.31 2 69.62 2 72 C-4.03158032 71.69842098 -7.67371384 68.9270795 -12 65 C-21.61071998 53.78749336 -22.629908 35.3300676 -22.375 21.23046875 C-21.47682385 13.49305545 -17.75910129 7.93332758 -11.74609375 3.15625 C-7.6514372 0.44479958 -4.96380231 -0.22562738 0 0 Z " fill="#CEB490" transform="translate(107,125)"/>
<path d="M0 0 C1.00289062 0.00257812 2.00578125 0.00515625 3.0390625 0.0078125 C4.50472656 0.00394531 4.50472656 0.00394531 6 0 C8.87760062 0.10430535 11.64975532 0.3301692 14.5078125 0.6328125 C21.50830863 1.29890226 28.50152425 1.28301348 35.52587891 1.26318359 C37.79205969 1.25780539 40.0580438 1.26316971 42.32421875 1.26953125 C49.51222325 1.27253736 56.52453238 1.0368208 63.6640625 0.1328125 C66.18420848 0.07037083 68.70576188 0.04583871 71.2265625 0.0703125 C73.05380859 0.08384766 73.05380859 0.08384766 74.91796875 0.09765625 C75.82417969 0.10925781 76.73039062 0.12085938 77.6640625 0.1328125 C78.2890625 2.5078125 78.2890625 2.5078125 78.6640625 5.1328125 C71.1965502 12.6003248 48.89096702 9.37185112 38.7265625 9.3828125 C6.35878926 9.36438809 6.35878926 9.36438809 -3.3359375 6.1328125 C-3.3786585 4.46669345 -3.37657582 2.79898365 -3.3359375 1.1328125 C-2.3359375 0.1328125 -2.3359375 0.1328125 0 0 Z " fill="#2C4555" transform="translate(181.3359375,56.8671875)"/>
<path d="M0 0 C7.41827776 0.23182118 11.6572409 1.79020549 17 7 C24.72169732 16.89961195 22.53044784 30.77371053 21.76171875 42.6953125 C20.51993515 52.10276398 16.35190968 60.93965426 10 68 C7.89453125 69.36328125 7.89453125 69.36328125 5.8125 70.3125 C5.11769531 70.63863281 4.42289062 70.96476562 3.70703125 71.30078125 C2 72 2 72 1 72 C0.625 68.75 0.625 68.75 1 65 C2.94982535 63.59431196 4.95950578 62.2704964 7 61 C15.60114555 50.58305706 16.01722837 37.88674541 16.328125 25.015625 C15.95806247 21.61457414 14.87162366 19.81728614 13 17 C13 16.34 13 15.68 13 15 C11.58398286 14.51891725 10.16715563 14.04021859 8.75 13.5625 C7.96109375 13.29566406 7.1721875 13.02882812 6.359375 12.75390625 C4.2647745 12.0846051 2.13328033 11.53332008 0 11 C0 7.37 0 3.74 0 0 Z " fill="#CFB590" transform="translate(330,125)"/>
<path d="M0 0 C3.3792573 2.03005291 6.22397384 4.44794768 8 8 C8.40282133 13.23667727 7.83087029 16.55148954 5 21 C2.03547152 24.30658946 -1.48105042 24.78797766 -5.75 25.125 C-9.45149977 24.91936112 -11.33277614 23.47670787 -14 21 C-16.89831934 16.65252099 -17.81811027 13.18136506 -17 8 C-12.59368565 1.22209138 -8.13522377 -1.44655692 0 0 Z " fill="#294353" transform="translate(286,149)"/>
<path d="M0 0 C3.3792573 2.03005291 6.22397384 4.44794768 8 8 C8.40282133 13.23667727 7.83087029 16.55148954 5 21 C2.03547152 24.30658946 -1.48105042 24.78797766 -5.75 25.125 C-9.45149977 24.91936112 -11.33277614 23.47670787 -14 21 C-16.89831934 16.65252099 -17.81811027 13.18136506 -17 8 C-12.59368565 1.22209138 -8.13522377 -1.44655692 0 0 Z " fill="#294353" transform="translate(161,149)"/>
<path d="M0 0 C1.65 0 3.3 0 5 0 C5.23074219 0.75023437 5.46148437 1.50046875 5.69921875 2.2734375 C9.08044975 12.88488974 13.60147609 21.89694537 20 31 C18.50987723 35.57680566 16.54870454 37.62255041 12.4375 39.875 C6.14390371 42.68839283 0.75660159 43.38762109 -5.78125 40.97265625 C-12.45454545 37.81818182 -12.45454545 37.81818182 -15 34 C-15.125 31.3125 -15.125 31.3125 -15 29 C-13.35 29 -11.7 29 -10 29 C-9.67 29.99 -9.34 30.98 -9 32 C-3.74860478 34.62569761 2.25119249 34.59051195 8 34 C10.26606465 33.07203483 10.26606465 33.07203483 12 32 C10.1316107 26.9300478 7.53174972 22.32908418 4.921875 17.61523438 C1.74653723 11.77995881 -0.32269687 6.7766342 0 0 Z " fill="#2F4756" transform="translate(217,163)"/>
<path d="M0 0 C1.26172899 13.65371014 1.10117918 27.30033933 1 41 C-3.26375728 38.47440916 -5.660811 36.78472979 -7.3125 32.0625 C-7.61800781 31.22847656 -7.92351562 30.39445312 -8.23828125 29.53515625 C-9.85260831 24.16234465 -10.26900562 19.07915855 -10.375 13.5 C-10.41238281 12.75363281 -10.44976562 12.00726563 -10.48828125 11.23828125 C-10.55442639 7.08583608 -10.31719862 5.43488716 -7.7890625 1.96875 C-4.79836002 -0.1423341 -3.56290181 -0.50898597 0 0 Z " fill="#E5D3AD" transform="translate(108,143)"/>
<path d="M0 0 C3.70498882 2.09412412 7.33087208 4.26824489 10.875 6.625 C9.53231345 10.96291038 7.94287321 14.48925357 5.875 18.625 C0.595 18.625 -4.685 18.625 -10.125 18.625 C-15.29259117 9.27412074 -15.29259117 9.27412074 -14.5703125 6.4765625 C-11.20789428 2.16903213 -5.40195885 -0.64823506 0 0 Z " fill="#D54445" transform="translate(221.125,369.375)"/>
<path d="M0 0 C15.18 0 30.36 0 46 0 C46.495 2.475 46.495 2.475 47 5 C44.61732644 7.38267356 44.1148657 7.25475523 40.87329102 7.2746582 C40.02223282 7.28419022 39.17117462 7.29372223 38.29432678 7.30354309 C37.37348801 7.30263168 36.45264923 7.30172028 35.50390625 7.30078125 C34.55942123 7.30506638 33.61493622 7.3093515 32.64183044 7.31376648 C30.64200645 7.31951586 28.64216155 7.32000558 26.64233398 7.31567383 C23.57825096 7.31251623 20.51513525 7.33595726 17.45117188 7.36132812 C15.51041789 7.36360125 13.5696613 7.36430456 11.62890625 7.36328125 C10.25068443 7.37709587 10.25068443 7.37709587 8.84461975 7.39118958 C7.99040939 7.38496078 7.13619904 7.37873199 6.25610352 7.37231445 C5.50490738 7.37294388 4.75371124 7.3735733 3.97975159 7.3742218 C2 7 2 7 0.17149353 5.72673035 C-0.21509933 5.15690933 -0.6016922 4.58708832 -1 4 C-0.67 2.68 -0.34 1.36 0 0 Z " fill="#2A4454" transform="translate(196,75)"/>
<path d="M0 0 C3.34166924 0.30378811 5.54804479 0.6919172 8.34375 2.59765625 C10.57365253 5.83206676 10.60273993 8.64243102 10.5 12.4375 C10.48936523 13.14181152 10.47873047 13.84612305 10.46777344 14.57177734 C10.14400925 23.66381333 7.89397001 32.88658791 2 40 C1.67 40 1.34 40 1 40 C0.07726164 26.65324871 -0.12242557 13.37640574 0 0 Z " fill="#E8D6AF" transform="translate(330,143)"/>
<path d="M0 0 C15.84 0 31.68 0 48 0 C41.05250132 6.94749868 33.57659369 8.40459184 24 8.5 C14.42340631 8.40459184 6.94749868 6.94749868 0 0 Z " fill="#D06761" transform="translate(195,254)"/>
<path d="M0 0 C1.14250465 0.02997826 1.14250465 0.02997826 2.30809021 0.06056213 C3.16890701 0.08065842 4.02972382 0.1007547 4.91662598 0.12145996 C5.8520372 0.14849503 6.78744843 0.17553009 7.75120544 0.2033844 C9.18072792 0.23880089 9.18072792 0.23880089 10.63912964 0.27493286 C13.6961634 0.35177452 16.75295677 0.43571012 19.80979919 0.51979065 C21.87684455 0.57299083 23.94390179 0.62573134 26.01097107 0.67799377 C31.0899006 0.80741727 36.16862544 0.94320507 41.24729919 1.08229065 C41.90729919 2.40229065 42.56729919 3.72229065 43.24729919 5.08229065 C40.43527686 7.89431298 38.62683664 7.34059227 34.69261169 7.34791565 C34.03582428 7.3498291 33.37903687 7.35174255 32.7023468 7.35371399 C31.30521769 7.3550771 29.90807596 7.35137185 28.51097107 7.34303284 C26.41496092 7.33250493 24.31984199 7.34283286 22.22386169 7.35572815 C14.06948808 7.36299392 6.25393768 6.75010289 -1.75270081 5.08229065 C-2.31520081 3.14479065 -2.31520081 3.14479065 -2.75270081 1.08229065 C-1.75270081 0.08229065 -1.75270081 0.08229065 0 0 Z " fill="#334A58" transform="translate(134.75270080566406,135.91770935058594)"/>
<path d="M0 0 C0.495 2.475 0.495 2.475 1 5 C-9.2150969 8.64824889 -20.53053584 8.09806466 -31.25 8.1875 C-32.64436279 8.20707764 -32.64436279 8.20707764 -34.06689453 8.22705078 C-34.93685059 8.22817871 -35.80680664 8.22930664 -36.703125 8.23046875 C-37.48333008 8.23457764 -38.26353516 8.23868652 -39.06738281 8.24291992 C-41 8 -41 8 -43 6 C-42.625 3.875 -42.625 3.875 -42 2 C-41.16339844 1.97494385 -40.32679688 1.9498877 -39.46484375 1.92407227 C-36.32623274 1.82827164 -33.18775119 1.72908345 -30.04931641 1.62768555 C-28.03686399 1.56367259 -26.0242912 1.5034803 -24.01171875 1.44335938 C-16.0437413 1.18309881 -7.93343298 -0.24791978 0 0 Z " fill="#324A58" transform="translate(305,136)"/>
<path d="M0 0 C4.06009672 2.34550377 7.27080314 4.50211236 8.88671875 9.046875 C9.54895098 14.04295614 9.46700522 17.84166464 7.26171875 22.421875 C3.39551298 26.6950498 0.24050392 29.25172617 -5.61328125 29.546875 C-11.46706642 29.25172617 -14.62207548 26.6950498 -18.48828125 22.421875 C-20.69441177 17.83991161 -20.90294143 14.04534254 -20.11328125 9.046875 C-16.52874103 1.30426813 -8.42680396 -3.80062877 0 0 Z M-17.11328125 8.046875 C-18.64925579 11.11882408 -18.33978505 13.64931793 -18.11328125 17.046875 C-16.78167798 20.81975093 -15.42239154 22.75984401 -12.48828125 25.484375 C-8.01696237 27.55443004 -4.8039037 27.39694345 -0.11328125 26.046875 C3.85780576 23.68112104 5.73997238 21.52961081 6.88671875 17.046875 C7.41243845 13.49826702 7.60306942 11.15436192 5.61328125 8.078125 C2.05636901 3.71641935 2.05636901 3.71641935 -3.03125 1.73828125 C-9.53514976 1.3688687 -12.85442034 3.15425502 -17.11328125 8.046875 Z " fill="#D0B792" transform="translate(162.11328125,146.953125)"/>
<path d="M0 0 C3.37768803 2.82783184 5.32447031 4.87013868 6.00390625 9.32421875 C6.31003637 15.14069102 5.07680603 18.54263051 1.6875 23.25 C-1.91642932 26.62868374 -4.86876109 27.11632047 -9.6875 27.5625 C-15.26633601 27.08156586 -18.00813336 24.69166839 -21.6875 20.625 C-23.90482543 16.01978564 -24.46888238 12.2609903 -23.3125 7.25 C-20.88306524 3.16474937 -17.86078666 0.24249145 -13.875 -2.3125 C-8.56923493 -3.21836233 -4.66186943 -2.46287442 0 0 Z M-20.3125 6.25 C-21.84847454 9.32194908 -21.5390038 11.85244293 -21.3125 15.25 C-19.98089673 19.02287593 -18.62161029 20.96296901 -15.6875 23.6875 C-11.21618112 25.75755504 -8.00312245 25.60006845 -3.3125 24.25 C0.65858701 21.88424604 2.54075363 19.73273581 3.6875 15.25 C4.2132197 11.70139202 4.40385067 9.35748692 2.4140625 6.28125 C-1.14284974 1.91954435 -1.14284974 1.91954435 -6.23046875 -0.05859375 C-12.73436851 -0.4280063 -16.05363909 1.35738002 -20.3125 6.25 Z " fill="#D0B792" transform="translate(290.3125,148.75)"/>
<path d="M0 0 C2.50859358 3.21316771 4.6538055 6.56739884 6.75 10.0625 C7.38421875 11.10535156 8.0184375 12.14820313 8.671875 13.22265625 C10 16 10 16 9 19 C4.50651646 22.03970945 -0.80155903 21.51759369 -6 21 C-9.6875 19.5 -9.6875 19.5 -12 18 C-9.80532733 16.86202158 -7.72673037 15.90891012 -5.375 15.125 C-2.46936752 13.74864777 -2.15925837 12.93882166 -1 10 C-0.54935368 7.41467299 -0.54935368 7.41467299 -0.375 4.75 C-0.30023438 3.85796875 -0.22546875 2.9659375 -0.1484375 2.046875 C-0.09945312 1.37140625 -0.05046875 0.6959375 0 0 Z " fill="#D2B892" transform="translate(220,177)"/>
<path d="M0 0 C2.625 0.375 2.625 0.375 5 1 C5 2.98 5 4.96 5 7 C3.0085944 7.38133299 1.00720923 7.71325582 -1 8 C-2 7 -2 7 -2.1875 4.5625 C-2 2 -2 2 0 0 Z " fill="#DFE7F2" transform="translate(276,154)"/>
<path d="M0 0 C1.67542976 0.28604898 3.34385343 0.61781233 5 1 C5.625 2.8125 5.625 2.8125 6 5 C5.01 6.485 5.01 6.485 4 8 C2.35 7.67 0.7 7.34 -1 7 C-1.04254356 5.00045254 -1.04080783 2.99958364 -1 1 C-0.67 0.67 -0.34 0.34 0 0 Z " fill="#DFE7F2" transform="translate(151,154)"/>
<path d="M0 0 C2.8125 2.4375 2.8125 2.4375 5 5 C5 5.66 5 6.32 5 7 C2.80588847 5.98130536 1.02825521 5.02435794 -0.8125 3.4375 C-3.77525287 1.49054811 -6.5150317 1.33509311 -10 1 C-10 0.67 -10 0.34 -10 0 C-6.30754727 -0.94948785 -3.63184324 -1.27114513 0 0 Z " fill="#C6B08E" transform="translate(164,148)"/>
<path d="M0 0 C2 2 2 2 2.1953125 4.3828125 C2.17210937 5.28773438 2.14890625 6.19265625 2.125 7.125 C2.10695312 8.03507813 2.08890625 8.94515625 2.0703125 9.8828125 C2.03550781 10.93082031 2.03550781 10.93082031 2 12 C1.34 11.67 0.68 11.34 0 11 C-0.44921875 8.75 -0.44921875 8.75 -0.6875 6 C-0.77386719 5.0925 -0.86023438 4.185 -0.94921875 3.25 C-0.96597656 2.5075 -0.98273438 1.765 -1 1 C-0.67 0.67 -0.34 0.34 0 0 Z " fill="#D6BB94" transform="translate(169,154)"/>
<path d="M0 0 C1.69752187 0.25245197 3.38471545 0.57645775 5.0625 0.9375 C5.98160156 1.13214844 6.90070313 1.32679688 7.84765625 1.52734375 C8.91306641 1.76130859 8.91306641 1.76130859 10 2 C10 2.33 10 2.66 10 3 C8.54207116 3.05399736 7.08357288 3.09279177 5.625 3.125 C4.81289062 3.14820313 4.00078125 3.17140625 3.1640625 3.1953125 C1 3 1 3 -1 1 C-0.67 0.67 -0.34 0.34 0 0 Z " fill="#D8BD96" transform="translate(151,173)"/>
<path d="M0 0 C0.99 0.33 1.98 0.66 3 1 C0.6875 3.5 0.6875 3.5 -2 6 C-2.99 6 -3.98 6 -5 6 C-3.35 4.02 -1.7 2.04 0 0 Z " fill="#C4AE8D" transform="translate(274,148)"/>
</svg>
