<?xml version="1.0" encoding="UTF-8"?>
<svg version="1.1" xmlns="http://www.w3.org/2000/svg" width="408" height="498">
<path d="M0 0 C134.64 0 269.28 0 408 0 C408 164.34 408 328.68 408 498 C273.36 498 138.72 498 0 498 C0 333.66 0 169.32 0 0 Z " fill="#2B4354" transform="translate(0,0)"/>
<path d="M0 0 C66.66 0 133.32 0 202 0 C198.47421318 1.76289341 194.96654846 3.22025282 191.3125 4.6875 C179.44519616 9.67139878 169.4748374 17.93327236 164.0625 29.8125 C162.30257804 34.23486801 161.92062203 37.58323422 162.0625 42.3125 C161.93359375 45.31640625 161.93359375 45.31640625 161 48 C157.22421503 50.75616371 153.11465363 52.40510902 148.82617188 54.17578125 C128.08043013 63.53909999 112.5151729 86.23660928 104.46484375 106.7890625 C99.66756087 119.99631377 98.69003693 133.29525134 98.76953125 147.27734375 C98.770729 148.70113584 98.77117496 150.12492874 98.7709198 151.54872131 C98.77246891 154.50933908 98.7806338 157.46983324 98.79418945 160.43041992 C98.81116074 164.17944877 98.81500305 167.92834257 98.81424427 171.67740536 C98.8145194 174.61093884 98.820055 177.54444423 98.82724571 180.47796822 C98.83037361 181.85832063 98.83238559 183.23867615 98.83313942 184.61903191 C98.17806867 210.86831745 98.17806867 210.86831745 109.45703125 233.578125 C114.04112049 238.00118066 118.8660965 239.59302817 125 241 C125.1959375 241.99515625 125.391875 242.9903125 125.59375 244.015625 C130.5399772 267.68685519 140.36712201 288.25371507 157.46337891 305.453125 C159.00594438 307.00598405 160.52557336 308.57882256 162.04296875 310.15625 C167.66866314 315.9506064 173.48149186 321.24187617 179.8203125 326.2578125 C182 328 182 328 184 330 C184.22705078 332.61376953 184.22705078 332.61376953 184.1953125 335.8828125 C184.18564453 337.63271484 184.18564453 337.63271484 184.17578125 339.41796875 C184.15064453 341.25294922 184.15064453 341.25294922 184.125 343.125 C184.11597656 344.35605469 184.10695312 345.58710938 184.09765625 346.85546875 C184.07402548 349.90383815 184.04108054 352.95182382 184 356 C178.47957872 357.16862147 172.9586569 358.33485918 167.4375 359.5 C166.59365753 359.67818268 165.74981506 359.85636536 164.88040161 360.03994751 C153.40865258 362.46082962 141.92892245 364.83779191 130.43896484 367.1706543 C82.46326721 375.83290485 82.46326721 375.83290485 46.1015625 406.64453125 C35.69333367 423.26287432 32.29645936 440.96219607 32.47851562 460.28466797 C32.50020011 463.02529077 32.47846887 465.76335626 32.453125 468.50390625 C32.45576491 470.2734432 32.46088288 472.04297857 32.46875 473.8125 C32.46065308 474.6178418 32.45255615 475.42318359 32.44421387 476.25292969 C32.54612782 482.46544801 34.03148027 488.0078467 38.51794434 492.5300293 C39.96688858 493.74267401 41.48056528 494.87693956 43 496 C43.66 496.66 44.32 497.32 45 498 C30.15 498 15.3 498 0 498 C0 333.66 0 169.32 0 0 Z " fill="#FEFEFE" transform="translate(0,0)"/>
<path d="M0 0 C58.08 0 116.16 0 176 0 C176 164.34 176 328.68 176 498 C171.05 498 166.1 498 161 498 C166 494 166 494 169 493 C170.13545562 490.70465742 170.13545562 490.70465742 171 488 C171.34168213 487.28005859 171.68336426 486.56011719 172.03540039 485.81835938 C173.25681075 482.24965243 173.34201779 478.88575302 173.37109375 475.15625 C173.38216156 474.39835678 173.39322937 473.64046356 173.40463257 472.85960388 C173.4315929 470.40619796 173.43788819 467.95354769 173.4375 465.5 C173.43959976 464.24946335 173.43959976 464.24946335 173.44174194 462.97366333 C173.42343078 449.75252808 172.39474422 437.57058007 168 425 C167.61585938 423.845 167.23171875 422.69 166.8359375 421.5 C164.00878503 413.96092674 159.70083631 407.49764358 155 401 C154.2575 399.948125 153.515 398.89625 152.75 397.8125 C137.12348551 381.83083746 117.15018533 376.40888471 96 372.125 C94.30769377 371.77644729 92.61555688 371.42707151 90.92358398 371.0769043 C87.53666155 370.37630586 84.1491709 369.67856803 80.76123047 368.98291016 C74.18704743 367.62969713 67.62413846 366.22525285 61.0625 364.8125 C59.95269775 364.57394287 58.84289551 364.33538574 57.69946289 364.08959961 C55.53684015 363.62435529 53.374321 363.15862914 51.21191406 362.69238281 C49.01872157 362.21960279 46.82535422 361.74763337 44.63183594 361.27636719 C41.39999836 360.58188392 38.16867075 359.88507836 34.9375 359.1875 C33.97271729 358.98036377 33.00793457 358.77322754 32.01391602 358.55981445 C31.13147217 358.36863037 30.24902832 358.17744629 29.33984375 357.98046875 C28.57019287 357.81442139 27.80054199 357.64837402 27.00756836 357.47729492 C25 357 25 357 22 356 C20.0902627 332.45547651 20.0902627 332.45547651 24.16796875 327.6171875 C27.00247289 325.43559673 29.87498132 323.73154069 33 322 C35.34054811 319.90891344 35.34054811 319.90891344 37.375 317.6875 C39.38897435 315.6081634 41.27421556 313.7859781 43.5625 312 C47.17102398 309.03915981 50.03119673 305.59147362 53 302 C53.42120117 301.49114258 53.84240234 300.98228516 54.27636719 300.45800781 C64.90332715 287.53169139 75.1552075 273.11875522 77.83984375 256.21875 C79.79734357 243.92644005 79.79734357 243.92644005 83.73828125 240.890625 C86.9375 239.625 86.9375 239.625 90.02734375 238.8515625 C94.27082082 237.63595409 96.90154621 235.51981834 99.4765625 231.95703125 C100.04503906 230.89548828 100.04503906 230.89548828 100.625 229.8125 C101.00914062 229.11769531 101.39328125 228.42289063 101.7890625 227.70703125 C104.67425525 221.25722939 106.49134962 214.84775055 107.16796875 207.8203125 C107.28702827 206.62657516 107.28702827 206.62657516 107.40849304 205.40872192 C108.41882134 193.92441759 108.33481832 182.38503194 108.31567383 170.86572266 C108.31355471 168.20117043 108.31804955 165.53789559 108.33618164 162.87353516 C108.55842568 127.70719266 102.30047547 97.31861205 77.34765625 71.2265625 C72.56147258 66.6582521 67.47084404 62.78413632 61.9375 59.1875 C61.34702881 58.80360107 60.75655762 58.41970215 60.14819336 58.02416992 C56.60581281 55.79956476 53.18885098 54.34705293 49.25 53 C46.83984375 51.8828125 46.83984375 51.8828125 45 50 C44.22758695 46.47003504 43.89035304 43.17268864 43.67480469 39.57983398 C42.92981616 28.64513597 36.31748525 21.54829562 28.58203125 14.21875 C20.05954113 6.89533943 10.62491609 3.97919483 0 1 C0 0.67 0 0.34 0 0 Z " fill="#FEFEFE" transform="translate(232,0)"/>
<path d="M0 0 C0.67772461 0.1417012 1.35544922 0.2834024 2.05371094 0.42939758 C4.24578759 0.88950065 6.43531296 1.36069992 8.625 1.83203125 C10.16389877 2.15702625 11.70296341 2.48123675 13.2421875 2.8046875 C16.30556775 3.44953968 19.36803415 4.09846328 22.4296875 4.75146484 C26.90271882 5.70510285 31.37944023 6.64040538 35.85766602 7.56933594 C37.70770437 7.95386971 39.55715201 8.34125616 41.40600586 8.73144531 C46.55975655 9.81644546 51.71888899 10.86320272 56.88980103 11.86276245 C59.90960981 12.448236 62.92712627 13.04510093 65.94458008 13.64257812 C67.40806477 13.92931726 68.87255781 14.2109705 70.33813477 14.48681641 C85.28701727 17.30395216 98.80349804 21.61801195 110.625 31.64453125 C111.46546875 32.32644531 112.3059375 33.00835937 113.171875 33.7109375 C126.74156616 45.82673317 133.88030087 64.88858408 135.625 82.64453125 C135.77103221 85.38723956 135.81158093 88.12481651 135.828125 90.87109375 C135.83382507 91.6224057 135.83952515 92.37371765 135.84539795 93.14779663 C135.85477082 94.72254051 135.86135086 96.29730333 135.86523438 97.87207031 C135.87500406 100.27052681 135.90612458 102.66814769 135.9375 105.06640625 C135.94402593 106.60546373 135.94927801 108.14452725 135.953125 109.68359375 C135.9654718 110.39311188 135.9778186 111.10263 135.99053955 111.83364868 C135.96972449 116.51151869 135.06699308 119.66347315 132.625 123.64453125 C129.02137234 126.91031881 125.85791533 127.76981519 121.07040119 127.76757908 C119.66111645 127.77056565 119.66111645 127.77056565 118.22336131 127.77361256 C117.18932569 127.77069972 116.15529008 127.76778688 115.08992004 127.76478577 C113.99296474 127.76564019 112.89600943 127.76649462 111.76581305 127.76737493 C108.07147946 127.76902869 104.37719077 127.76351001 100.68286133 127.75805664 C98.04205726 127.75777472 95.40125599 127.75788851 92.76045227 127.75849915 C87.06539758 127.75902397 81.37035432 127.75588152 75.67530251 127.75026131 C67.44117376 127.74214067 59.20705055 127.73953051 50.97291823 127.73827332 C37.61418519 127.73608369 24.25545825 127.729426 10.89672852 127.7199707 C-2.08146128 127.71079429 -15.05964942 127.70371458 -28.0378418 127.69946289 C-28.83756844 127.69920017 -29.63729509 127.69893744 -30.46125587 127.69866676 C-34.47317505 127.69736174 -38.48509425 127.69609803 -42.49701345 127.69485486 C-75.78968007 127.68448501 -109.08233922 127.6668691 -142.375 127.64453125 C-142.23316304 125.89420281 -142.08636571 124.14427591 -141.9375 122.39453125 C-141.85628906 121.42 -141.77507812 120.44546875 -141.69140625 119.44140625 C-141.42425416 117.07991372 -141.02128032 114.9255206 -140.375 112.64453125 C-139.570625 112.80953125 -138.76625 112.97453125 -137.9375 113.14453125 C-129.71982599 114.47176903 -129.71982599 114.47176903 -122.25 111.58203125 C-120.02972744 108.7154348 -120.02972744 108.7154348 -120.5 105.01953125 C-121.0558826 102.87541266 -121.67455371 100.74587011 -122.375 98.64453125 C-124.60221955 97.6512724 -124.60221955 97.6512724 -127.25 97.01953125 C-128.13429687 96.77976562 -129.01859375 96.54 -129.9296875 96.29296875 C-130.73664063 96.07898438 -131.54359375 95.865 -132.375 95.64453125 C-133.365 95.31453125 -134.355 94.98453125 -135.375 94.64453125 C-134.85974397 89.36315696 -133.12022883 86.07231969 -130.375 81.64453125 C-129.34375 82.13953125 -128.3125 82.63453125 -127.25 83.14453125 C-123.78987965 84.60252551 -121.16388633 85.22110091 -117.375 84.64453125 C-114.47125036 83.09586477 -112.85036302 81.90253616 -111.66796875 78.7734375 C-111.22411715 76.57906837 -111.06487141 74.86416588 -111.375 72.64453125 C-113.54166667 69.81119792 -113.54166667 69.81119792 -116.375 67.64453125 C-117.40313611 66.33277139 -118.41584432 65.00754195 -119.375 63.64453125 C-117.395 61.66453125 -115.415 59.68453125 -113.375 57.64453125 C-110.83226886 58.77463398 -109.17246144 59.83581767 -107.125 61.76953125 C-103.21637629 64.43450196 -101.05057132 64.17241833 -96.375 63.64453125 C-94.2504401 62.07441769 -93.49454317 61.08018185 -92.79296875 58.5234375 C-92.71691406 57.75902344 -92.64085937 56.99460937 -92.5625 56.20703125 C-92.42908203 55.06427734 -92.42908203 55.06427734 -92.29296875 53.8984375 C-92.38639732 51.3313762 -93.08121732 49.83746792 -94.375 47.64453125 C-92.94070999 46.97098626 -91.50242943 46.30593424 -90.0625 45.64453125 C-89.26199219 45.27328125 -88.46148437 44.90203125 -87.63671875 44.51953125 C-85.375 43.64453125 -85.375 43.64453125 -82.375 43.64453125 C-81.09375 45.10546875 -81.09375 45.10546875 -79.875 47.01953125 C-78.11625866 49.75910911 -77.20215002 50.75976457 -74.375 52.64453125 C-68.827788 53.21822509 -68.827788 53.21822509 -63.875 51.14453125 C-61.76909081 47.6346826 -61.65914454 44.64344798 -62.375 40.64453125 C-63.75426773 38.30191517 -63.75426773 38.30191517 -65.375 36.64453125 C-65.375 35.98453125 -65.375 35.32453125 -65.375 34.64453125 C-62.81725544 33.46634574 -60.25465758 32.3018747 -57.6875 31.14453125 C-56.96626953 30.81066406 -56.24503906 30.47679687 -55.50195312 30.1328125 C-54.79619141 29.81699219 -54.09042969 29.50117188 -53.36328125 29.17578125 C-52.71915283 28.88251953 -52.07502441 28.58925781 -51.41137695 28.28710938 C-49.375 27.64453125 -49.375 27.64453125 -47.03515625 27.9453125 C-42.70996946 27.45626788 -40.67446059 24.39969695 -37.82421875 21.30078125 C-36.55572774 19.97879311 -35.2868349 18.65719044 -34.01757812 17.3359375 C-32.03564948 15.24227828 -30.0607166 13.14261979 -28.09399414 11.03466797 C-26.18817994 9.0017677 -24.25812367 6.99442374 -22.32421875 4.98828125 C-21.74685471 4.35394165 -21.16949066 3.71960205 -20.57463074 3.06604004 C-14.21765339 -3.47969547 -8.43481548 -1.79317192 0 0 Z " fill="#DC5051" transform="translate(262.375,364.35546875)"/>
<path d="M0 0 C2.32249682 2.20463877 4.17757342 4.54075176 6.0625 7.125 C19.05535613 23.74189658 38.46763361 32.63479273 58.4375 38.0625 C59.28248047 38.30548828 60.12746094 38.54847656 60.99804688 38.79882812 C77.57727682 43.34455154 94.59966194 44.62376146 111.6875 45.6875 C113.67257823 45.81756525 115.65760484 45.9484209 117.64257812 46.08007812 C122.42784234 46.3957876 127.21366673 46.70095433 132 47 C132.07719938 53.91520889 132.12907167 60.83030345 132.16479492 67.74584961 C132.17971536 70.08964184 132.20005896 72.43340699 132.22631836 74.77709961 C132.66743529 115.21281792 123.25310385 147.28443201 94.6472168 176.53320312 C90.54827494 180.65291544 86.31351253 184.56619585 81.8828125 188.32421875 C79.865078 190.12008617 78.04191918 192.03671815 76.1875 194 C66.55820632 203.68571533 56.0322834 207.99920742 42.5 208.4375 C26.8886265 208.07297047 18.05491987 200.2727072 7.6484375 189.65234375 C5.5328698 187.53365575 3.40761777 185.55607537 1.125 183.625 C-18.91999778 166.33208184 -33.22263468 145.76542682 -40 120 C-40.23332031 119.13761719 -40.46664062 118.27523437 -40.70703125 117.38671875 C-43.06598272 107.83211677 -43.16263316 97.91009271 -43.203125 88.12109375 C-43.20882507 87.02837662 -43.21452515 85.93565948 -43.22039795 84.80982971 C-43.22977783 82.51654001 -43.23635372 80.22323725 -43.24023438 77.92993164 C-43.24998383 74.4432834 -43.2810922 70.9572147 -43.3125 67.47070312 C-43.31902776 65.22917012 -43.32427912 62.98763296 -43.328125 60.74609375 C-43.3404718 59.71665146 -43.3528186 58.68720917 -43.36553955 57.62657166 C-43.32420996 44.06443296 -38.59268714 34.62550206 -29.25 24.9375 C-25.35316675 21.19054495 -21.17301629 17.82790326 -16.95703125 14.44921875 C-13.13482689 11.28340351 -9.50172419 7.93739961 -5.88378906 4.54174805 C-2.1961174 1.0980587 -2.1961174 1.0980587 0 0 Z " fill="#F6E7CD" transform="translate(172,130)"/>
<path d="M0 0 C1.1034375 0.50402344 2.206875 1.00804687 3.34375 1.52734375 C22.17999744 10.8768889 35.41452888 26.62426501 45 45 C45.70769531 46.26650391 45.70769531 46.26650391 46.4296875 47.55859375 C55.48467977 65.1342775 55.68417585 85.11237335 55.3125 104.375 C55.28733273 106.68356902 55.26453476 108.99216513 55.24414062 111.30078125 C55.18993717 116.86779483 55.10700755 122.43376341 55 128 C54.26249512 127.57992676 53.52499023 127.15985352 52.76513672 126.72705078 C51.78818848 126.18032715 50.81124023 125.63360352 49.8046875 125.0703125 C48.35811768 124.25457764 48.35811768 124.25457764 46.88232422 123.42236328 C43.60634668 121.80574079 40.6686595 121.06869112 37.0703125 120.6171875 C35 120 35 120 32.76782227 118.00439453 C29.46638312 115.61356668 27.68107794 115.44880432 23.64453125 115.3125 C22.39494629 115.25594238 21.14536133 115.19938477 19.85791016 115.14111328 C18.86878632 115.1073056 18.86878632 115.1073056 17.85968018 115.07281494 C14.36608899 114.94855346 10.87672486 114.75400638 7.38671875 114.5546875 C6.6798291 114.51463593 5.97293945 114.47458435 5.24462891 114.43331909 C-25.35032632 112.56812653 -58.85220076 105.87805085 -83 86 C-84.03125 85.2575 -85.0625 84.515 -86.125 83.75 C-99.79985379 70.66970507 -101.76053438 49.80891561 -102.33666992 31.79174805 C-102.51907133 19.99374612 -100.76926406 10.17969849 -92.9296875 0.91015625 C-86.283386 -5.668875 -80.02342248 -7.04850959 -70.85546875 -7.31640625 C-69.8242968 -7.3475779 -69.8242968 -7.3475779 -68.77229309 -7.37937927 C-67.31578313 -7.42250244 -65.85921075 -7.46356105 -64.40258789 -7.50268555 C-62.23240845 -7.56128733 -60.06252431 -7.62673279 -57.89257812 -7.69335938 C-37.54403367 -8.29369946 -18.86783728 -8.75348958 0 0 Z " fill="#54626D" transform="translate(277,56)"/>
<path d="M0 0 C1.87172868 1.70607321 3.65330422 3.42015126 5.421875 5.2265625 C5.92672424 5.73424164 6.43157349 6.24192078 6.95172119 6.76498413 C8.55592096 8.38033842 10.15300856 10.00252209 11.75 11.625 C12.83938107 12.72441698 13.9292199 13.82338059 15.01953125 14.921875 C17.68501885 17.6093602 20.34415143 20.30299021 23 23 C21.44000409 26.11999182 18.87220503 26.45116846 15.6875 27.6875 C14.53636719 28.14511719 13.38523438 28.60273438 12.19921875 29.07421875 C7.638958 30.39385464 7.638958 30.39385464 5 29 C2.7109375 26.53125 2.7109375 26.53125 0.375 23.5 C-2.34196441 19.68932805 -2.34196441 19.68932805 -6 17 C-9.65546065 16.59383771 -11.58917682 16.78565747 -14.875 18.5 C-17.31126106 21.36618948 -17.65772501 23.22852885 -17.44140625 26.96875 C-16.74572448 30.17011744 -14.95777699 32.4304177 -13 35 C-13 35.66 -13 36.32 -13 37 C-14.74233825 37.72697561 -16.49427345 38.43098244 -18.25 39.125 C-19.22453125 39.51945312 -20.1990625 39.91390625 -21.203125 40.3203125 C-24 41 -24 41 -26.09765625 40.33984375 C-28.25566152 38.81993449 -30.2238623 37.20219504 -32.1875 35.4375 C-32.88230469 34.81746094 -33.57710938 34.19742188 -34.29296875 33.55859375 C-35.20988176 32.72141231 -36.1220472 31.8779528 -37 31 C-41.24084775 30.47527036 -44.82536325 30.31240775 -48.5625 32.5 C-50.17121384 35.2977632 -50.73334803 37.58851645 -50.60546875 40.828125 C-49.41633782 45.09365271 -46.12447605 48.00305359 -43 51 C-46.33333333 54.33333333 -49.66666667 57.66666667 -53 61 C-54.17755859 60.44119141 -54.17755859 60.44119141 -55.37890625 59.87109375 C-63.48877047 55.98805842 -63.48877047 55.98805842 -72 57 C-74.58333333 58.41666667 -74.58333333 58.41666667 -76 61 C-76.55391368 63.7809893 -76.56740223 66.22030218 -76 69 C-73.60414692 72.28320608 -70.52625973 74.04096682 -67 76 C-67.78175515 80.84688192 -69.39844278 85.3766367 -71 90 C-71.97839844 89.82210937 -71.97839844 89.82210937 -72.9765625 89.640625 C-77.49628639 88.97399906 -80.30548242 88.72458786 -84.625 90.4375 C-87.10011562 93.10801949 -87.40276452 93.58166065 -87.5625 97 C-87.25478579 100.52889273 -86.79439976 102.64222521 -84 105 C-81.36 105.99 -78.72 106.98 -76 108 C-76.33 114.27 -76.66 120.54 -77 127 C-85.35407129 127.13583856 -93.70727664 127.24579186 -102.06215763 127.31087303 C-105.94216677 127.34211722 -109.82137786 127.3844595 -113.70092773 127.45263672 C-117.44870724 127.51808216 -121.1957218 127.55375799 -124.94402885 127.56926346 C-126.37019321 127.58030526 -127.79631814 127.6018684 -129.22215462 127.63438034 C-141.78662702 127.90934453 -141.78662702 127.90934453 -146.36889648 124.08837891 C-150.45494794 119.80136472 -150.18932052 115.85337875 -150.23828125 110.14453125 C-150.246353 109.25070236 -150.25442474 108.35687347 -150.26274109 107.43595886 C-150.27659886 105.53357893 -150.28731341 103.63117396 -150.29516602 101.72875977 C-150.30658411 99.80778579 -150.32687038 97.88684091 -150.35668945 95.96606445 C-150.59120996 80.85586915 -149.50440069 67.38171926 -142.3125 53.75 C-141.96928711 53.08798584 -141.62607422 52.42597168 -141.27246094 51.74389648 C-133.16732416 36.6483538 -119.53571299 24.46041734 -102.97119141 19.37744141 C-96.70933293 17.64845187 -90.35717786 16.32491322 -84 15 C-82.73687988 14.73574219 -81.47375977 14.47148437 -80.17236328 14.19921875 C-72.99266203 12.70137483 -65.80790365 11.22892596 -58.62109375 9.765625 C-50.73760793 8.15937297 -42.86648368 6.50030096 -35 4.8125 C-33.86038818 4.56959229 -32.72077637 4.32668457 -31.54663086 4.07641602 C-26.48629397 2.99203159 -21.43773264 1.87968732 -16.40625 0.66796875 C-15.14748047 0.36959106 -15.14748047 0.36959106 -13.86328125 0.06518555 C-12.34727117 -0.29737265 -10.83389434 -0.6712352 -9.32421875 -1.05932617 C-5.33973972 -2.00878352 -3.44557334 -2.1935711 0 0 Z " fill="#C44C4D" transform="translate(188,364)"/>
<path d="M0 0 C1.39412109 0.41572266 1.39412109 0.41572266 2.81640625 0.83984375 C4.67072266 1.38318359 4.67072266 1.38318359 6.5625 1.9375 C8.38974609 2.47697266 8.38974609 2.47697266 10.25390625 3.02734375 C18.05864459 5.05380866 25.29275322 5.07005231 33.3203125 4.921875 C35.73566384 4.89463241 38.1510294 4.86862787 40.56640625 4.84375 C44.35667188 4.8004158 48.14619566 4.74959808 51.93603516 4.67773438 C55.60591222 4.61120805 59.27497569 4.57638493 62.9453125 4.546875 C64.07873077 4.51793152 65.21214905 4.48898804 66.37991333 4.45916748 C74.19541425 4.43253835 74.19541425 4.43253835 78.16943359 7.23535156 C82.71806476 14.10501005 82.28745183 22.07497664 81.5 30 C81.40887939 30.98331299 81.31775879 31.96662598 81.22387695 32.97973633 C80.2236674 42.97071016 78.92241905 52.93125226 77.56835938 62.87963867 C77.31716435 64.73155788 77.07048011 66.58409528 76.82861328 68.43725586 C75.39509726 79.31644298 73.5261491 88.93281543 69 99 C68.47466675 100.34276001 68.47466675 100.34276001 67.9387207 101.71264648 C66.16404499 106.03694733 62.95627399 109.42591094 60 113 C59.319375 113.82886719 58.63875 114.65773438 57.9375 115.51171875 C57.256875 116.31222656 56.57625 117.11273438 55.875 117.9375 C55.25367188 118.66839844 54.63234375 119.39929688 53.9921875 120.15234375 C51.76473212 122.21819943 49.81892332 122.93398311 47 124 C45.24863467 125.36224315 45.24863467 125.36224315 43.625 127 C32.73091572 136.81485724 17.28809169 147.42797708 3 151 C3 142.42 3 133.84 3 125 C7.455 124.505 7.455 124.505 12 124 C12.20086443 120.28400809 12.1519437 119.22791555 10 116 C13.71314526 110.89442527 17.20217529 108.44573251 23 106 C22.67 104.68 22.34 103.36 22 102 C20.56206608 102.31049726 19.1246682 102.6234776 17.6875 102.9375 C16.88699219 103.11152344 16.08648437 103.28554688 15.26171875 103.46484375 C12.854599 103.99886159 12.854599 103.99886159 10 105 C7.69 105 5.38 105 3 105 C3 96.09 3 87.18 3 78 C5.97 76.68 8.94 75.36 12 74 C14.48537615 71.94013838 14.48537615 71.94013838 16 70 C15.67 69.01 15.34 68.02 15 67 C14.01 66.67 13.02 66.34 12 66 C11.04858398 63.97460938 11.04858398 63.97460938 10.24609375 61.34375 C9.94896484 60.40402344 9.65183594 59.46429688 9.34570312 58.49609375 C9.04599609 57.50738281 8.74628906 56.51867187 8.4375 55.5 C7.83877151 53.55000104 7.23363069 51.60195559 6.62109375 49.65625 C6.3573999 48.78806641 6.09370605 47.91988281 5.82202148 47.02539062 C5.18569549 44.81760255 5.18569549 44.81760255 3 44 C3 47.96 3 51.92 3 56 C2.67 56 2.34 56 2 56 C1.71204048 49.63213639 1.42759748 43.26412241 1.14550781 36.89599609 C1.04929746 34.73320017 0.95230548 32.57043886 0.85449219 30.40771484 C0.71339774 27.28492032 0.57518839 24.16200884 0.4375 21.0390625 C0.37187866 19.60719101 0.37187866 19.60719101 0.30493164 18.14639282 C0.04153895 12.09332926 -0.05178705 6.05857054 0 0 Z " fill="#F9EFDF" transform="translate(218,181)"/>
<path d="M0 0 C2.50085065 2.37773185 4.58683303 4.95266942 6.6875 7.6875 C7.31011719 8.49574219 7.93273437 9.30398437 8.57421875 10.13671875 C9.04472656 10.75160156 9.51523438 11.36648437 10 12 C7.26655456 14.76444861 4.50244811 17.47637082 1.66015625 20.12890625 C-7.73906403 29.02771406 -15.67408874 37.96644755 -16.31640625 51.546875 C-16.35830078 52.39121094 -16.40019531 53.23554688 -16.44335938 54.10546875 C-16.48267578 54.97816406 -16.52199219 55.85085937 -16.5625 56.75 C-16.60568359 57.63816406 -16.64886719 58.52632812 -16.69335938 59.44140625 C-16.79913615 61.62745963 -16.90122546 63.81362089 -17 66 C-15.11667969 65.51273438 -15.11667969 65.51273438 -13.1953125 65.015625 C-7.72906001 63.80470566 -2.45467491 63.70420239 3.125 63.75 C4.07503906 63.74226563 5.02507812 63.73453125 6.00390625 63.7265625 C11.39509539 63.74151725 15.90383699 64.22128382 21 66 C21.625 67.875 21.625 67.875 22 70 C20 72 20 72 17.8359375 72.1953125 C17.02382812 72.17210937 16.21171875 72.14890625 15.375 72.125 C14.55773437 72.10695313 13.74046875 72.08890625 12.8984375 72.0703125 C12.27195313 72.04710937 11.64546875 72.02390625 11 72 C11.33 72.66 11.66 73.32 12 74 C12.35872645 77.87424565 12.56710729 80.14933906 10.375 83.4375 C7.26456309 85.48384007 5.66322334 85.59807728 2 85 C-0.875 83.4375 -0.875 83.4375 -3 81 C-3.54226552 76.58440935 -3.48836965 74.73255448 -1 71 C-2.9169986 71.31045732 -4.83358723 71.62344671 -6.75 71.9375 C-8.35101563 72.19853516 -8.35101563 72.19853516 -9.984375 72.46484375 C-12.36623068 72.88753057 -14.66101161 73.39760016 -17 74 C-16.14813241 119.50667238 -6.68595691 152.33156932 26.62695312 184.57470703 C30.02188883 187.78769606 33.50479943 190.89637792 37 194 C37.92167969 194.84820312 38.84335938 195.69640625 39.79296875 196.5703125 C40.66566406 197.37210938 41.53835937 198.17390625 42.4375 199 C43.19933594 199.70125 43.96117187 200.4025 44.74609375 201.125 C47.04611804 203.03836509 49.39792261 204.53145544 52 206 C49.13275467 208.86724533 47.06585824 208.33435677 43.0625 208.375 C28.87787971 208.31047042 20.15065249 202.29365674 10.5 192.5625 C9.54947696 191.59245008 8.59895608 190.62239804 7.6484375 189.65234375 C5.5328698 187.53365575 3.40761777 185.55607537 1.125 183.625 C-18.91999778 166.33208184 -33.22263468 145.76542682 -40 120 C-40.23332031 119.13761719 -40.46664062 118.27523437 -40.70703125 117.38671875 C-43.06598272 107.83211677 -43.16263316 97.91009271 -43.203125 88.12109375 C-43.20882507 87.02837662 -43.21452515 85.93565948 -43.22039795 84.80982971 C-43.22977783 82.51654001 -43.23635372 80.22323725 -43.24023438 77.92993164 C-43.24998383 74.4432834 -43.2810922 70.9572147 -43.3125 67.47070312 C-43.31902776 65.22917012 -43.32427912 62.98763296 -43.328125 60.74609375 C-43.3404718 59.71665146 -43.3528186 58.68720917 -43.36553955 57.62657166 C-43.32420996 44.06443296 -38.59268714 34.62550206 -29.25 24.9375 C-25.35316675 21.19054495 -21.17301629 17.82790326 -16.95703125 14.44921875 C-13.13482689 11.28340351 -9.50172419 7.93739961 -5.88378906 4.54174805 C-2.1961174 1.0980587 -2.1961174 1.0980587 0 0 Z " fill="#E2CBA9" transform="translate(172,130)"/>
<path d="M0 0 C-0.04640625 0.65226562 -0.0928125 1.30453125 -0.140625 1.9765625 C-0.39599015 8.16004731 0.13971275 11.17464094 4 16 C4 16.66 4 17.32 4 18 C2.25766175 18.72697561 0.50572655 19.43098244 -1.25 20.125 C-2.22453125 20.51945312 -3.1990625 20.91390625 -4.203125 21.3203125 C-7 22 -7 22 -9.09765625 21.33984375 C-11.25566152 19.81993449 -13.2238623 18.20219504 -15.1875 16.4375 C-15.88230469 15.81746094 -16.57710938 15.19742187 -17.29296875 14.55859375 C-18.20988176 13.72141231 -19.1220472 12.8779528 -20 12 C-24.24084775 11.47527036 -27.82536325 11.31240775 -31.5625 13.5 C-33.17121384 16.2977632 -33.73334803 18.58851645 -33.60546875 21.828125 C-32.41633782 26.09365271 -29.12447605 29.00305359 -26 32 C-29.33333333 35.33333333 -32.66666667 38.66666667 -36 42 C-37.17755859 41.44119141 -37.17755859 41.44119141 -38.37890625 40.87109375 C-46.48877047 36.98805842 -46.48877047 36.98805842 -55 38 C-57.58333333 39.41666667 -57.58333333 39.41666667 -59 42 C-59.55391368 44.7809893 -59.56740223 47.22030218 -59 50 C-56.60414692 53.28320608 -53.52625973 55.04096682 -50 57 C-50.78175515 61.84688192 -52.39844278 66.3766367 -54 71 C-54.97839844 70.82210937 -54.97839844 70.82210937 -55.9765625 70.640625 C-60.49628639 69.97399906 -63.30548242 69.72458786 -67.625 71.4375 C-70.10011562 74.10801949 -70.40276452 74.58166065 -70.5625 78 C-70.25478579 81.52889273 -69.79439976 83.64222521 -67 86 C-64.36 86.99 -61.72 87.98 -59 89 C-59.33 94.94 -59.66 100.88 -60 107 C-75.51 107 -91.02 107 -107 107 C-107.69712701 63.95240715 -107.69712701 63.95240715 -98 46 C-97.54753906 45.15050781 -97.09507813 44.30101562 -96.62890625 43.42578125 C-87.03835287 26.45388056 -70.99395983 15.18318343 -52.390625 9.87109375 C-43.64839108 7.62510508 -34.85855096 5.95065763 -25.94921875 4.53515625 C-21.81032992 3.78412609 -17.76966671 2.71759021 -13.69921875 1.6640625 C-9.08406302 0.52864068 -4.76975169 0 0 0 Z " fill="#DC5050" transform="translate(171,383)"/>
<path d="M0 0 C-0.40992188 0.59167969 -0.81984375 1.18335938 -1.2421875 1.79296875 C-1.78101563 2.58316406 -2.31984375 3.37335937 -2.875 4.1875 C-3.40867187 4.96480469 -3.94234375 5.74210937 -4.4921875 6.54296875 C-6.07883472 8.96500579 -6.07883472 8.96500579 -7.0546875 11.70703125 C-8.34633604 14.84007958 -10.05689728 15.39467124 -13 17 C-29.14192377 29.47330473 -38.79762624 48.66115563 -44 68 C-44.20230225 68.73911621 -44.40460449 69.47823242 -44.61303711 70.23974609 C-46.72443705 79.1012138 -46.00711187 88.08479884 -45.65820312 97.12109375 C-45.52221266 104.06009449 -45.53847089 108.83011917 -49.8347168 114.44287109 C-51.33988316 116.45417448 -51.64115878 118.29193762 -52 120.75 C-52.671875 123.02734375 -52.671875 123.02734375 -54 125 C-57.15842907 126.47015276 -60.18027598 127.29703305 -63.578125 128.05078125 C-66.42568389 128.84068629 -68.23080651 129.59291834 -70.71386719 131.05932617 C-71.79829102 131.69974854 -72.88271484 132.3401709 -74 133 C-74.1032505 126.40630827 -74.17222043 119.81283199 -74.21972656 113.21850586 C-74.23957538 110.98535375 -74.2666634 108.75225167 -74.30175781 106.51928711 C-74.76311157 76.36167774 -69.52970317 47.55649166 -48.00805664 25.00195312 C-46.6849679 23.65514321 -45.34303188 22.32692356 -44 21 C-43.35675781 20.34644531 -42.71351563 19.69289063 -42.05078125 19.01953125 C-32.60290752 10.0635208 -20.27855097 3.96882456 -8 0 C-7.30261719 -0.226875 -6.60523438 -0.45375 -5.88671875 -0.6875 C-3.65900739 -1.05647911 -2.13253136 -0.68545651 0 0 Z " fill="#34424D" transform="translate(178,51)"/>
<path d="M0 0 C1.7325 0.42732422 1.7325 0.42732422 3.5 0.86328125 C15.16634853 3.88846471 15.16634853 3.88846471 17.3125 6.75 C18.17450101 9.57109421 18.13329111 12.06759551 18 15 C17.28714844 14.79503906 16.57429688 14.59007813 15.83984375 14.37890625 C14.88207031 14.10949219 13.92429687 13.84007813 12.9375 13.5625 C11.99777344 13.29566406 11.05804688 13.02882813 10.08984375 12.75390625 C2.07827347 10.79912362 -5.71933723 10.83909405 -13.9375 10.83203125 C-15.3040368 10.82880981 -16.67057326 10.82544511 -18.03710938 10.82194519 C-20.89828284 10.8159756 -23.75942622 10.81410281 -26.62060547 10.81469727 C-30.24321038 10.81479822 -33.86561635 10.80120559 -37.48817444 10.78392506 C-40.31277303 10.77266426 -43.13732587 10.77078239 -45.96194458 10.77130699 C-47.93289656 10.76958972 -49.90383425 10.7588326 -51.87475586 10.74775696 C-62.43262089 10.77400385 -72.65911512 11.82977081 -83 14 C-83.48997661 7.63030404 -83.48997661 7.63030404 -81.36328125 4.89453125 C-62.20000214 -10.46776688 -21.58830322 -5.55702738 0 0 Z " fill="#D22B44" transform="translate(251,30)"/>
<path d="M0 0 C0 16.5 0 33 0 50 C-6.46187318 47.84604227 -10.73027709 45.76008314 -14.296875 39.8515625 C-17.62210527 32.79147215 -18.20195238 25.68320293 -18.3125 17.9375 C-18.34150391 17.25623047 -18.37050781 16.57496094 -18.40039062 15.87304688 C-18.46444132 10.74406415 -17.27212639 7.90469916 -14 4 C-12.0703125 2.5390625 -12.0703125 2.5390625 -10.125 1.625 C-9.48820312 1.30789062 -8.85140625 0.99078125 -8.1953125 0.6640625 C-6 0 -6 0 0 0 Z " fill="#DCC7A7" transform="translate(123,184)"/>
<path d="M0 0 C7.35443803 0.91930475 12.33525403 2.1076893 17 8 C20.07334892 17.28452262 18.43868142 29.04645216 15 38 C11.64118366 44.38279741 7.6042011 47.31354531 1 50 C0.67 50 0.34 50 0 50 C0 33.5 0 17 0 0 Z " fill="#DEC8A8" transform="translate(313,184)"/>
<path d="M0 0 C2.94618322 0.4463914 5.72647384 1.20688711 8.59375 2.0234375 C13.23105961 3.17998601 17.67584856 3.3317157 22.4375 3.3125 C23.62956055 3.33666992 23.62956055 3.33666992 24.84570312 3.36132812 C30.04258431 3.36555667 34.16078742 2.51631612 38.97680664 0.54760742 C41.35158611 -0.09516202 42.69748134 0.22129717 45 1 C45.495 2.98 45.495 2.98 46 5 C43.84824416 6.75328254 42.15886061 7.9483703 39.5 8.8125 C36.07566586 10.43905872 34.88449588 12.78937739 33 16 C33.66 16.66 34.32 17.32 35 18 C34.75 20.5625 34.75 20.5625 34 23 C30.7607886 24.6196057 27.24295619 24.22623755 23.6875 24.25 C22.92759766 24.270625 22.16769531 24.29125 21.38476562 24.3125 C16.72609172 24.34488001 13.84797212 23.91862157 10 21 C10.37125 19.6696875 10.37125 19.6696875 10.75 18.3125 C11.30843622 14.97194225 11.30843622 14.97194225 9.5 12.3125 C6.55686853 9.59010339 3.71501305 8.4447273 0 7 C-0.66 6.34 -1.32 5.68 -2 5 C-1.46428571 1.46428571 -1.46428571 1.46428571 0 0 Z " fill="#2F4656" transform="translate(196,282)"/>
<path d="M0 0 C5.80804918 3.04364115 12.94290701 7.88581402 15.9375 13.875 C14.761875 13.606875 13.58625 13.33875 12.375 13.0625 C10.56315775 12.6636668 8.75054986 12.26830711 6.9375 11.875 C5.77734375 11.62234375 4.6171875 11.3696875 3.421875 11.109375 C-11.80209478 7.91422085 -26.56017126 7.74050302 -42.0625 7.875 C-39.0714557 4.77337131 -36.16552675 2.05357215 -32.5625 -0.3125 C-31.46421875 -1.04533203 -31.46421875 -1.04533203 -30.34375 -1.79296875 C-20.25126063 -7.68601477 -10.07449405 -4.57787544 0 0 Z " fill="#455260" transform="translate(246.0625,12.125)"/>
<path d="M0 0 C0.96808594 -0.01224609 1.93617188 -0.02449219 2.93359375 -0.03710938 C8.40327425 -0.04827199 12.95777774 0.36673784 18.125 2.1875 C18.75 4.0625 18.75 4.0625 19.125 6.1875 C17.125 8.1875 17.125 8.1875 14.9609375 8.3828125 C13.74277344 8.34800781 13.74277344 8.34800781 12.5 8.3125 C11.68273437 8.29445312 10.86546875 8.27640625 10.0234375 8.2578125 C9.39695313 8.23460937 8.77046875 8.21140625 8.125 8.1875 C8.62 9.1775 8.62 9.1775 9.125 10.1875 C9.48372645 14.06174565 9.69210729 16.33683906 7.5 19.625 C4.38956309 21.67134007 2.78822334 21.78557728 -0.875 21.1875 C-3.75 19.625 -3.75 19.625 -5.875 17.1875 C-6.41726552 12.77190935 -6.36336965 10.92005448 -3.875 7.1875 C-4.67164063 7.331875 -5.46828125 7.47625 -6.2890625 7.625 C-7.34867188 7.810625 -8.40828125 7.99625 -9.5 8.1875 C-10.54414063 8.373125 -11.58828125 8.55875 -12.6640625 8.75 C-15.78074865 9.17465797 -18.73430812 9.26295206 -21.875 9.1875 C-22.535 7.8675 -23.195 6.5475 -23.875 5.1875 C-22.64993102 4.53392722 -21.41970484 3.89001767 -20.1875 3.25 C-19.50300781 2.89035156 -18.81851563 2.53070313 -18.11328125 2.16015625 C-12.31469265 -0.35964927 -6.20083141 0.00409566 0 0 Z " fill="#2A4454" transform="translate(174.875,193.8125)"/>
<path d="M0 0 C1.39085815 0.00628418 1.39085815 0.00628418 2.80981445 0.01269531 C9.89970058 0.12860962 17.3850251 0.3310683 23.9375 3.3125 C25.26953125 5.421875 25.26953125 5.421875 25.9375 7.3125 C23.9375 9.3125 23.9375 9.3125 20.9375 9.5 C16.2516128 9.3712124 11.59284794 8.83704625 6.9375 8.3125 C7.2675 8.9725 7.5975 9.6325 7.9375 10.3125 C8.29269903 14.14864957 8.48474594 16.45879634 6.375 19.75 C2.99532196 21.91646028 0.87766013 21.87538002 -3.0625 21.3125 C-5.5 19.75 -5.5 19.75 -7.0625 17.3125 C-7.52587203 12.91046571 -7.54288907 11.0330836 -5.0625 7.3125 C-6.11050781 7.45558594 -6.11050781 7.45558594 -7.1796875 7.6015625 C-8.08976563 7.71242187 -8.99984375 7.82328125 -9.9375 7.9375 C-11.29488281 8.11152344 -11.29488281 8.11152344 -12.6796875 8.2890625 C-13.46601563 8.29679688 -14.25234375 8.30453125 -15.0625 8.3125 C-15.7225 7.6525 -16.3825 6.9925 -17.0625 6.3125 C-17.0625 4.3125 -17.0625 4.3125 -16.0625 2.3125 C-10.79488979 -0.08033096 -5.67199396 -0.03454506 0 0 Z " fill="#2A4455" transform="translate(259.0625,193.6875)"/>
<path d="M0 0 C3 1 3 1 3.89135742 2.71826172 C4.12701416 3.44803223 4.3626709 4.17780273 4.60546875 4.9296875 C4.99702148 6.12271484 4.99702148 6.12271484 5.39648438 7.33984375 C5.78803711 8.59474609 5.78803711 8.59474609 6.1875 9.875 C6.46013672 10.70386719 6.73277344 11.53273437 7.01367188 12.38671875 C9 18.54981203 9 18.54981203 9 22 C9.639375 22.103125 10.27875 22.20625 10.9375 22.3125 C11.618125 22.539375 12.29875 22.76625 13 23 C13.495 24.485 13.495 24.485 14 26 C9.23193514 31.53710758 3.79210516 34.3794737 -3.4375 35.5625 C-9.18501809 34.65499714 -15.01804898 32.39557558 -18.796875 27.828125 C-19.19390625 27.22484375 -19.5909375 26.6215625 -20 26 C-19.34 24.68 -18.68 23.36 -18 22 C-14.125 22.875 -14.125 22.875 -13 24 C-8.85248804 24.28278491 -5.63025504 24.11764877 -2 22 C0.49625715 17.52395269 0.23330727 13.15713757 0.125 8.1875 C0.11597656 7.39923828 0.10695312 6.61097656 0.09765625 5.79882812 C0.07422504 3.86575334 0.03835838 1.9328362 0 0 Z " fill="#D5BA94" transform="translate(221,225)"/>
<path d="M0 0 C0.63803052 7.09241422 0.63803052 7.09241422 -2.18725586 11.11132812 C-3.17594886 12.10545574 -4.18655147 13.07814005 -5.21484375 14.03125 C-5.74517715 14.5526355 -6.27551056 15.074021 -6.82191467 15.61120605 C-8.5091862 17.2605375 -10.22246206 18.87961308 -11.9375 20.5 C-13.08705389 21.61797719 -14.23486143 22.73775303 -15.38085938 23.859375 C-23.75536353 32 -23.75536353 32 -25 32 C-25.94778973 17.00386028 -25.94778973 17.00386028 -22.16796875 11.8828125 C-17.10686811 7.48740618 -6.73678716 0 0 0 Z " fill="#C24C4D" transform="translate(246,349)"/>
<path d="M0 0 C8.07565812 3.02837179 19.23767003 7.54566022 23.37890625 15.5703125 C24.75297705 20.94560834 24.34715044 26.50730866 24 32 C18.53037868 27.38750393 13.23142884 22.6349666 8.0625 17.6875 C7.28326172 16.97916016 6.50402344 16.27082031 5.70117188 15.54101562 C0.24962749 10.27103013 0.24962749 10.27103013 -0.50048828 6.45166016 C-0.50390625 3.95703125 -0.50390625 3.95703125 0 0 Z " fill="#C14C4D" transform="translate(191,349)"/>
<path d="M0 0 C0.78503906 0.33773438 1.57007813 0.67546875 2.37890625 1.0234375 C3.95478516 1.69246094 3.95478516 1.69246094 5.5625 2.375 C6.59503906 2.81585938 7.62757813 3.25671875 8.69140625 3.7109375 C14.8782689 6.12140347 20.48153538 7.38950538 27.125 7.375 C27.86347168 7.37411377 28.60194336 7.37322754 29.36279297 7.37231445 C38.87476079 7.17008505 47.44822508 3.97756973 56 0 C56 1.32 56 2.64 56 4 C55.35973877 4.33733154 54.71947754 4.67466309 54.05981445 5.0222168 C51.13896482 6.56792672 48.22576306 8.12754181 45.3125 9.6875 C43.80139648 10.48317383 43.80139648 10.48317383 42.25976562 11.29492188 C37.07088336 14.08630079 32.96284747 16.64974585 29 21 C28.34 21 27.68 21 27 21 C26.36707031 20.30519531 25.73414063 19.61039062 25.08203125 18.89453125 C21.06191818 14.70906649 15.76667976 12.36194974 10.6875 9.6875 C9.66076172 9.13771484 8.63402344 8.58792969 7.57617188 8.02148438 C5.05494048 6.67291874 2.52960948 5.33276392 0 4 C0 2.68 0 1.36 0 0 Z " fill="#EEE1C7" transform="translate(190,337)"/>
<path d="M0 0 C1.62859293 1.49377563 3.21016976 3.03988064 4.75 4.625 C5.54921875 5.44226563 6.3484375 6.25953125 7.171875 7.1015625 C7.77515625 7.72804688 8.3784375 8.35453125 9 9 C7.44000409 12.11999182 4.87220503 12.45116846 1.6875 13.6875 C0.53636719 14.14511719 -0.61476562 14.60273438 -1.80078125 15.07421875 C-6.340371 16.38787293 -6.340371 16.38787293 -9 15 C-11.359375 12.6015625 -11.359375 12.6015625 -13.75 9.625 C-14.54921875 8.64789063 -15.3484375 7.67078125 -16.171875 6.6640625 C-18 4 -18 4 -18 1 C-15.75411164 0.44153043 -13.50306332 -0.09621983 -11.25 -0.625 C-9.99703125 -0.92664063 -8.7440625 -1.22828125 -7.453125 -1.5390625 C-3.84524131 -2.02065783 -2.84156316 -2.11913185 0 0 Z " fill="#DA5050" transform="translate(202,378)"/>
<path d="M0 0 C3.26973157 0.37727672 4.22403199 1.2136119 6.6875 3.5625 C9.94947909 6.41982852 12.58009415 6.55729176 16.81640625 6.29296875 C19.80324936 5.89222951 22.28344635 5.32514812 25 4 C26.42055068 1.99863756 26.42055068 1.99863756 27 0 C28.9375 0.3125 28.9375 0.3125 31 1 C31.495 2.485 31.495 2.485 32 4 C27.23193514 9.53710758 21.79210516 12.3794737 14.5625 13.5625 C8.81498191 12.65499714 2.98195102 10.39557558 -0.796875 5.828125 C-1.19390625 5.22484375 -1.5909375 4.6215625 -2 4 C-1.34 2.68 -0.68 1.36 0 0 Z " fill="#324A59" transform="translate(203,247)"/>
<path d="M0 0 C0 10.23 0 20.46 0 31 C-5.22975865 26.81619308 -6.14651303 25.4992966 -7.625 19.4375 C-8.18917114 14.2659312 -8.67534181 9.1800943 -8 4 C-5.28222608 0.76805263 -4.20930374 0 0 0 Z " fill="#F7E7CC" transform="translate(122,193)"/>
<path d="M0 0 C6 2 6 2 8 4 C9.15603126 12.25352548 7.76764636 20.56936413 4 28 C2.68 28.99 1.36 29.98 0 31 C0 20.77 0 10.54 0 0 Z " fill="#F7E8CC" transform="translate(314,193)"/>
<path d="M0 0 C5.45988634 0.56298661 9.96513181 3.30528646 14.75 5.8125 C15.62527344 6.25142578 16.50054687 6.69035156 17.40234375 7.14257812 C18.23378906 7.57634766 19.06523437 8.01011719 19.921875 8.45703125 C20.68081055 8.84866455 21.43974609 9.24029785 22.22167969 9.64379883 C24 11 24 11 24.75488281 13.15893555 C24.83577148 13.76648682 24.91666016 14.37403809 25 15 C18.792629 16.76689472 14.79048611 14.02292674 9.25 11.3125 C8.27933594 10.86455078 7.30867188 10.41660156 6.30859375 9.95507812 C5.38691406 9.51228516 4.46523437 9.06949219 3.515625 8.61328125 C2.67290039 8.20891846 1.83017578 7.80455566 0.96191406 7.38793945 C-1 6 -1 6 -1.90722656 3.96166992 C-1.9378418 3.31431885 -1.96845703 2.66696777 -2 2 C-1.34 1.34 -0.68 0.68 0 0 Z " fill="#E4BF5A" transform="translate(119,426)"/>
<path d="M0 0 C0.928125 -0.01224609 1.85625 -0.02449219 2.8125 -0.03710938 C3.699375 -0.03904297 4.58625 -0.04097656 5.5 -0.04296875 C6.3146875 -0.04707764 7.129375 -0.05118652 7.96875 -0.05541992 C10 0.1875 10 0.1875 12 2.1875 C11.75 4.75 11.75 4.75 11 7.1875 C7.7607886 8.8071057 4.24295619 8.41373755 0.6875 8.4375 C-0.07240234 8.458125 -0.83230469 8.47875 -1.61523438 8.5 C-6.27390828 8.53238001 -9.15202788 8.10612157 -13 5.1875 C-12.625 3.25 -12.625 3.25 -12 1.1875 C-8.34657606 -0.63921197 -4.02160841 0.00279278 0 0 Z " fill="#2D4555" transform="translate(219,297.8125)"/>
<path d="M0 0 C5.54033687 0.52133951 10.61538161 2.43587209 15.8125 4.3125 C17.11864258 4.75625977 17.11864258 4.75625977 18.45117188 5.20898438 C19.27810547 5.50740234 20.10503906 5.80582031 20.95703125 6.11328125 C21.70960205 6.37923096 22.46217285 6.64518066 23.23754883 6.91918945 C25 8 25 8 25.81518555 10.05541992 C25.9066687 11.01798706 25.9066687 11.01798706 26 12 C25.67 12.33 25.34 12.66 25 13 C19.02970863 12.54740266 13.70701421 11.19875992 8.0625 9.25 C6.91297852 8.89035156 6.91297852 8.89035156 5.74023438 8.5234375 C3.53515625 7.765625 3.53515625 7.765625 0 6 C-1.06640625 3.359375 -1.06640625 3.359375 -1 1 C-0.67 0.67 -0.34 0.34 0 0 Z " fill="#E3BE5A" transform="translate(108,460)"/>
<path d="M0 0 C2.72483249 0.26621513 3.81802589 0.81227853 5.73925781 2.79418945 C6.58762207 3.94213989 6.58762207 3.94213989 7.453125 5.11328125 C8.071875 5.94923828 8.690625 6.78519531 9.328125 7.64648438 C9.96234375 8.52626953 10.5965625 9.40605469 11.25 10.3125 C11.8996875 11.18068359 12.549375 12.04886719 13.21875 12.94335938 C18 19.4874442 18 19.4874442 18 24 C15.31761529 23.90596806 13.53438527 23.47744257 11.51074219 21.66943359 C9.90599537 19.88460426 8.38122295 18.05619306 6.875 16.1875 C6.35035156 15.55779297 5.82570312 14.92808594 5.28515625 14.27929688 C3.83812502 12.53370098 2.41547369 10.77121302 1 9 C0.37867188 8.236875 -0.24265625 7.47375 -0.8828125 6.6875 C-2 5 -2 5 -1.75 2.8125 C-1 1 -1 1 0 0 Z " fill="#E6C05A" transform="translate(178,387)"/>
<path d="M0 0 C3 0 3 0 5.25 2.0625 C6.17038949 3.03816814 7.08666045 4.01772916 8 5 C12.14965435 9.26627228 16.36211098 13.26706494 21 17 C20.67 18.32 20.34 19.64 20 21 C14.66205267 20.66076596 12.05860945 17.68360468 8.4375 14.125 C7.31274324 13.04266264 6.18647932 11.96188898 5.05859375 10.8828125 C4.53378418 10.37911133 4.00897461 9.87541016 3.46826172 9.35644531 C1.74146701 7.76115575 -0.07393058 6.34683583 -2 5 C-1.125 1.125 -1.125 1.125 0 0 Z " fill="#E5BF5A" transform="translate(144,401)"/>
<path d="M0 0 C0.53915039 0.16298584 1.07830078 0.32597168 1.63378906 0.49389648 C4.43395024 1.09281664 6.99549433 1.11226789 9.859375 1.09765625 C10.97441406 1.09443359 12.08945313 1.09121094 13.23828125 1.08789062 C14.97658203 1.07532227 14.97658203 1.07532227 16.75 1.0625 C17.92433594 1.05798828 19.09867188 1.05347656 20.30859375 1.04882812 C23.20578072 1.03705094 26.10286454 1.02060326 29 1 C27.84826645 3.46800047 26.95216435 5.04783565 25 7 C18.57314617 8.76971337 11.5739532 8.93284029 5 8 C2.0906105 5.87369852 1.48475776 4.3852477 0 1 C0 0.67 0 0.34 0 0 Z " fill="#D26963" transform="translate(203,291)"/>
<path d="M0 0 C0.33 0 0.66 0 1 0 C1.62835385 15.01030386 2.12841223 29.97576911 2 45 C-2.95 45 -7.9 45 -13 45 C-8 41 -8 41 -5 40 C-3.86454438 37.70465742 -3.86454438 37.70465742 -3 35 C-2.48880615 33.89555542 -2.48880615 33.89555542 -1.96728516 32.76879883 C-0.79022296 29.39952515 -0.67699614 26.5156822 -0.5859375 22.94921875 C-0.56657135 22.29041214 -0.5472052 21.63160553 -0.5272522 20.95283508 C-0.46784059 18.86451857 -0.42122709 16.77614576 -0.375 14.6875 C-0.33678468 13.26495095 -0.29773091 11.84242416 -0.2578125 10.41992188 C-0.16217204 6.94681926 -0.07800027 3.47354868 0 0 Z " fill="#ECEFF0" transform="translate(406,453)"/>
<path d="M0 0 C0.70382813 0.32613281 1.40765625 0.65226562 2.1328125 0.98828125 C10.0162509 4.47716587 17.53218297 6.45925814 26 8 C26 11.3 26 14.6 26 18 C17.30829706 13.37850073 8.62979427 8.7365191 0 4 C0 2.68 0 1.36 0 0 Z " fill="#D0B690" transform="translate(190,337)"/>
</svg>
