<?xml version="1.0" encoding="UTF-8"?>
<svg version="1.1" xmlns="http://www.w3.org/2000/svg" width="328" height="373">
<path d="M0 0 C108.24 0 216.48 0 328 0 C328 123.09 328 246.18 328 373 C219.76 373 111.52 373 0 373 C0 249.91 0 126.82 0 0 Z " fill="#000" transform="translate(0,0)"/>
<path d="M0 0 C2.03593775 -0.00218997 4.07133493 -0.02042673 6.10717773 -0.03930664 C23.28238785 -0.06450255 39.47758318 2.80110286 52.41772461 14.87670898 C57.10442448 19.9266281 60.82679559 26.21162073 60.85522461 33.24780273 C60.77272461 34.21717773 60.69022461 35.18655273 60.60522461 36.18530273 C61.17370117 36.18788086 61.74217773 36.19045898 62.32788086 36.19311523 C67.77578237 36.46596506 71.1452206 37.4918882 75.10131836 41.31030273 C83.4294678 51.69345008 82.56231345 66.63195081 81.60522461 79.18530273 C79.70260444 93.30610954 76.10835457 107.16821285 71.79663086 120.72827148 C68.31751426 132.35537101 67.15445512 144.65684288 65.92553711 156.69311523 C63.13842595 183.80735628 56.74739677 209.43246413 35.35522461 228.06030273 C19.17155501 240.50751604 2.54623792 242.5818523 -17.39477539 241.18530273 C-21.80914516 240.42920043 -25.41559565 239.21402221 -29.39477539 237.18530273 C-30.3809082 236.69932617 -31.36704102 236.21334961 -32.38305664 235.71264648 C-53.41889811 224.40621581 -66.20338161 204.74863567 -73.16821289 182.50952148 C-73.58544363 181.07051759 -73.9945205 179.6291205 -74.39477539 178.18530273 C-74.5782251 177.53996582 -74.7616748 176.89462891 -74.95068359 176.22973633 C-77.10308389 167.75599085 -77.35829683 158.88929909 -77.99658203 150.19799805 C-78.7840473 132.51458755 -78.7840473 132.51458755 -86.21313477 117.05493164 C-88.85633502 112.87277719 -89.29803416 107.67195016 -90.14477539 102.87280273 C-90.35231445 101.79579102 -90.55985352 100.7187793 -90.77368164 99.60913086 C-92.45996529 90.62831054 -93.53294383 81.76887426 -93.58227539 72.62280273 C-93.59645508 71.42526367 -93.61063477 70.22772461 -93.62524414 68.99389648 C-93.44436717 66.00482786 -93.08455645 63.669726 -92.37133789 60.81030273 C-91.22230871 56.02836605 -91.36303554 51.62974217 -91.58227539 46.74780273 C-91.73677271 39.12199229 -91.17598667 33.43765595 -86.39477539 27.18530273 C-85.93329102 26.56913086 -85.47180664 25.95295898 -84.99633789 25.31811523 C-69.41657688 7.52397195 -38.52367083 2.42230412 -16.24072266 0.36401367 C-10.83088965 0.02430382 -5.41914906 -0.00065064 0 0 Z " fill="#fff" transform="translate(167.394775390625,2.814697265625)"/>
<path d="M0 0 C0 117.15 0 234.3 0 355 C-0.33 355 -0.66 355 -1 355 C-1.13462646 354.12601562 -1.13462646 354.12601562 -1.27197266 353.234375 C-4.95845294 329.87595446 -11.22589486 306.0908401 -30.79296875 290.8203125 C-46.98227418 280.05536685 -67.06854893 275.20121202 -85.38500977 269.21191406 C-110.15942575 261.09538174 -110.15942575 261.09538174 -116.203125 251.0390625 C-119.45772737 242.71110938 -119.24517586 230.79016331 -118 222 C-116.66831248 219.14986392 -115.26483095 217.51858362 -113.0703125 215.29296875 C-98.97662236 199.68354212 -97.46819099 176.07549006 -95.44824219 156.27416992 C-93.97597314 141.94315086 -91.54527335 128.39841009 -87.078125 114.66015625 C-85.61514594 109.69344834 -84.45844476 104.67303782 -83.3125 99.625 C-83.09795166 98.68487061 -82.88340332 97.74474121 -82.66235352 96.77612305 C-80.77229413 88.31725847 -79.81868842 80.28879348 -79.8125 71.625 C-79.80025391 70.73039062 -79.78800781 69.83578125 -79.77539062 68.9140625 C-79.75265585 58.48637831 -81.47141504 49.92348388 -88.75 42.125 C-92.30823742 40.34588129 -96.105031 39.70741958 -100 39 C-100.08636719 38.38253906 -100.17273438 37.76507813 -100.26171875 37.12890625 C-101.83271687 27.65967905 -105.23710468 20.66758119 -112.76953125 14.5625 C-124.00823068 6.68950565 -136.21434615 4.57622279 -149.625 3.3125 C-151.56052734 3.11817383 -151.56052734 3.11817383 -153.53515625 2.91992188 C-156.68934645 2.60450285 -159.84413207 2.29807904 -163 2 C-163 1.67 -163 1.34 -163 1 C-108.77145608 -2.389284 -54.33435582 0 0 0 Z " fill="#000" transform="translate(328,0)"/>
<path d="M0 0 C10.06422444 2.28749063 19.78907689 5.40820353 29.5625 8.6875 C30.35792206 8.95389282 31.15334412 9.22028564 31.97286987 9.49475098 C79.49190332 25.45939548 79.49190332 25.45939548 92.18115234 49.91503906 C101.7669899 69.45446968 104 88.25233377 104 110 C-4.24 110 -112.48 110 -224 110 C-224 84.36450827 -222.74488694 56.68018275 -204 37 C-202.96166016 35.88431641 -202.96166016 35.88431641 -201.90234375 34.74609375 C-185.69479775 18.75500913 -159.03423917 11.73142654 -138.125 4.25 C-137.17488037 3.90259766 -136.22476074 3.55519531 -135.24584961 3.19726562 C-134.36292236 2.88982422 -133.47999512 2.58238281 -132.5703125 2.265625 C-131.80477051 1.99524414 -131.03922852 1.72486328 -130.25048828 1.44628906 C-127.51126398 0.9030799 -125.65889076 1.1808666 -123 2 C-121.3671875 4.15234375 -121.3671875 4.15234375 -119.875 6.9375 C-111.00507545 21.64440716 -96.85489322 28.74087867 -80.79321289 33.18408203 C-74.56086847 34.52465583 -68.47843077 34.59457069 -62.125 34.5 C-60.81088135 34.48718994 -59.4967627 34.47437988 -58.14282227 34.46118164 C-39.87351777 34.08002919 -23.95188902 29.55662942 -10.30078125 16.6875 C-5.99455419 11.65747586 -2.99300737 5.87733012 0 0 Z " fill="#4D4B4F" transform="translate(224,263)"/>
<path d="M0 0 C9.10807753 6.90066136 11.06555009 19.48702571 12.9140625 30.04296875 C13.48193189 34.78627182 13.82255241 39.52472483 14.1015625 44.29296875 C14.18051758 45.55641113 14.25947266 46.81985352 14.34082031 48.12158203 C15.9793579 75.8667758 15.11013474 105.74514123 -2.7734375 128.73046875 C-6.3033288 132.26036005 -6.3033288 132.26036005 -9.0859375 133.04296875 C-11.54296875 132.875 -11.54296875 132.875 -14.0859375 132.04296875 C-15.53515625 129.93359375 -15.53515625 129.93359375 -16.7734375 127.29296875 C-20.28238845 120.9221721 -25.04809396 118.59388382 -31.83935547 116.50317383 C-37.13205262 115.4189819 -42.70517978 115.8143847 -48.0859375 115.79296875 C-49.35050781 115.77234375 -50.61507812 115.75171875 -51.91796875 115.73046875 C-62.89620782 115.68524428 -74.4104243 116.57993691 -83.0859375 124.04296875 C-85.4456222 127.06820555 -86.87803646 129.41926562 -88.0859375 133.04296875 C-90.77734375 133.77734375 -90.77734375 133.77734375 -94.0859375 134.04296875 C-106.89937379 126.51730292 -112.15890008 112.51550162 -116.0859375 99.04296875 C-116.43785156 97.94082031 -116.78976563 96.83867187 -117.15234375 95.703125 C-120.93751023 80.86337188 -120.30278769 64.60853744 -120.38348389 49.3800354 C-120.39331409 47.55609047 -120.40770601 45.73216338 -120.42706299 43.90829468 C-120.51300151 34.6436744 -120.30091106 25.59792589 -118.75390625 16.4453125 C-118.6374324 15.73879044 -118.52095856 15.03226837 -118.4009552 14.30433655 C-117.7160599 10.71876696 -117.16478347 8.18178156 -114.0859375 6.04296875 C-110.79187436 4.9449477 -108.44213769 4.94835744 -104.97583008 4.99291992 C-103.0802813 5.01239937 -103.0802813 5.01239937 -101.1464386 5.03227234 C-100.13057395 5.0457499 -100.13057395 5.0457499 -99.09418678 5.05949974 C-96.94924294 5.08632806 -94.80440586 5.10409003 -92.65934753 5.11897278 C-86.55843015 5.16145117 -80.4577072 5.20760019 -74.35717773 5.28979492 C-54.74041496 5.5457696 -16.09164812 -7.38287227 0 0 Z " fill="#FDA67F" transform="translate(214.0859375,62.95703125)"/>
<path d="M0 0 C0.33 0 0.66 0 1 0 C1 9.9 1 19.8 1 30 C1.99 30.33 2.98 30.66 4 31 C5.22681354 56.30870897 -1.73027868 84.16474141 -18.65087891 103.54174805 C-29.03184928 114.80170924 -42.313163 122.98893233 -57.77856445 124.22143555 C-80.94343736 125.12717339 -80.94343736 125.12717339 -91 120 C-91.98613281 119.51402344 -92.97226563 119.02804688 -93.98828125 118.52734375 C-115.26005619 107.09410258 -127.89380595 87.29454884 -134.87109375 64.8359375 C-136.53255423 59.19042125 -137.09787933 54.87276005 -137 49 C-136.34 49.66 -135.68 50.32 -135 51 C-132.64551835 48.44931155 -132.01672076 47.28982642 -131.8125 43.75 C-131.9053125 42.38875 -131.9053125 42.38875 -132 41 C-130 42 -130 42 -128.95703125 44.9921875 C-128.57409373 46.28603681 -128.19268215 47.58033838 -127.8125 48.875 C-124.45276133 59.49606859 -118.93630149 70.13237019 -109 76 C-105.81421276 76.27722 -105.81421276 76.27722 -103 76 C-102.95875 75.319375 -102.9175 74.63875 -102.875 73.9375 C-101.39456027 68.96745235 -98.35038145 65.4287497 -93.91796875 62.734375 C-84.09267231 58.12285233 -74.35878496 57.63599773 -63.625 57.625 C-62.37460938 57.60050781 -61.12421875 57.57601562 -59.8359375 57.55078125 C-50.6144571 57.52184355 -43.11855812 58.99562893 -35.125 63.6875 C-32.02525146 67.06075576 -30.04685498 70.92371009 -28 75 C-24.29651536 74.74161735 -22.36202678 74.29138741 -19.4375 71.9375 C-2.72532817 51.79719036 -0.96576091 25.03353937 0 0 Z " fill="#fff" transform="translate(229,120)"/>
<path d="M0 0 C0.46148437 0.35191406 0.92296875 0.70382813 1.3984375 1.06640625 C3.5890362 2.72450764 5.79437445 4.36194585 8 6 C8.77085938 6.5878125 9.54171875 7.175625 10.3359375 7.78125 C26.14836875 19.448675 42.76447178 20.817788 61.86328125 18.5390625 C73.28560704 15.96714808 82.02842341 9.52407639 90.6640625 1.9765625 C93 0 93 0 94 0 C94.04898438 1.19496094 94.09796875 2.38992187 94.1484375 3.62109375 C94.44864453 18.49291983 94.44864453 18.49291983 100 32 C100 32.66 100 33.32 100 34 C100.5775 34.28875 101.155 34.5775 101.75 34.875 C103.83333333 35.91666667 105.91666667 36.95833333 108 38 C106.7325824 47.00191473 99.96728225 55.40931787 93 61 C78.8827569 70.87253149 63.37316665 74.58596713 46.3125 74.5 C44.99266113 74.49427979 43.67282227 74.48855957 42.31298828 74.48266602 C22.74876969 74.12561963 6.83056585 67.78025222 -7.28515625 54 C-11.48460944 49.60266682 -14.309023 44.42933036 -17 39 C-15.98679687 38.56300781 -15.98679687 38.56300781 -14.953125 38.1171875 C-9.4329819 35.58047434 -5.60710639 33.75735996 -3 28 C-0.12686274 19.09856247 -0.38357612 9.26639144 0 0 Z " fill="#FEA57E" transform="translate(116,224)"/>
<path d="M0 0 C3.61496485 -0.06517409 5.8163601 -0.05483965 9.11743164 1.56201172 C11.35398594 4.44788823 11.66226625 6.41455507 11.40649414 10.04248047 C10.51128463 15.18496178 8.04664862 18.82297336 3.88696289 21.96044922 C-5.00835307 27.30901873 -16.81190062 27.41047357 -26.79663086 25.52294922 C-32.73309069 23.71620057 -36.75398049 21.27989948 -39.75756836 15.68701172 C-40.9462847 12.05829867 -41.59824111 9.81775502 -40.94506836 6.06201172 C-38.27940714 2.66703615 -36.78127104 1.22165149 -32.4909668 0.40258789 C-31.19191406 0.38687744 -29.89286133 0.37116699 -28.55444336 0.35498047 C-27.49836884 0.33229851 -27.49836884 0.33229851 -26.42095947 0.30915833 C-24.17867128 0.2664048 -21.93772213 0.25747809 -19.69506836 0.24951172 C-18.20414676 0.22634265 -16.71325766 0.20097232 -15.22241211 0.17333984 C-12.37778842 0.12483813 -9.53397412 0.09337469 -6.68896484 0.08105469 C-4.45917505 0.06971308 -2.2293245 0.04694093 0 0 Z " fill="#F9A77F" transform="translate(176.945068359375,190.93798828125)"/>
<path d="M0 0 C10.05444994 10.37039383 9.26323096 33.18944881 9.16796875 46.9453125 C9 49 9 49 8 50 C2.60250825 50.66091736 -0.7185751 49.67962648 -5.078125 46.671875 C-12.42680417 40.27912157 -15.55661032 31.52868616 -16.31640625 22.0546875 C-16.86124213 8.64955167 -16.86124213 8.64955167 -12 3 C-8.1636922 -0.21420383 -4.93199812 -0.71738155 0 0 Z " fill="#FCA57D" transform="translate(82,120)"/>
<path d="M0 0 C7.90331126 -0.61986755 7.90331126 -0.61986755 11.875 1.625 C16.66562921 6.97923265 17.52946964 11.83924206 17.4375 18.75 C17.42920166 19.54913818 17.42090332 20.34827637 17.41235352 21.17163086 C17.11328804 31.64530841 13.29351156 39.45169328 6 47 C1.62368288 50.00871802 -1.73379523 50.41303567 -7 50 C-7.33 49.67 -7.66 49.34 -8 49 C-7.95573087 34.2337862 -7.70997432 13.14825978 0 0 Z " fill="#FDA57D" transform="translate(240,120)"/>
<path d="M0 0 C1.11375 0.845625 2.2275 1.69125 3.375 2.5625 C4.91621171 3.7089452 6.45791096 4.85473517 8 6 C8.77085938 6.5878125 9.54171875 7.175625 10.3359375 7.78125 C26.14836875 19.448675 42.76447178 20.817788 61.86328125 18.5390625 C73.28560704 15.96714808 82.02842341 9.52407639 90.6640625 1.9765625 C93 0 93 0 94 0 C94 7.26 94 14.52 94 22 C93.67 22 93.34 22 93 22 C92.505 14.575 92.505 14.575 92 7 C91.21496094 7.80824219 90.42992187 8.61648437 89.62109375 9.44921875 C79.24990843 20.04532533 68.40382752 29.36579717 52.71484375 30.16796875 C33.84947819 30.26551459 19.19947473 25.7835179 5.45336914 12.50610352 C4.28934448 11.35025175 3.14250554 10.17712692 2 9 C1.67 12.3 1.34 15.6 1 19 C0.67 19 0.34 19 0 19 C0 12.73 0 6.46 0 0 Z " fill="#E77F59" transform="translate(116,224)"/>
<path d="M0 0 C1.65 0.33 3.3 0.66 5 1 C4.29244778 9.15924147 2.63787499 17.0604471 0.9375 25.0625 C0.65260708 26.4185384 0.36809891 27.77465768 0.08398438 29.13085938 C-0.6069091 32.42138594 -1.30166695 35.71104574 -2 39 C-0.84371094 39.18175781 -0.84371094 39.18175781 0.3359375 39.3671875 C1.84027344 39.61855469 1.84027344 39.61855469 3.375 39.875 C4.37273437 40.03742188 5.37046875 40.19984375 6.3984375 40.3671875 C9 41 9 41 11 43 C10.625 45.125 10.625 45.125 10 47 C2.56666798 47.40382287 -3.00828792 47.24326606 -9 42.375 C-12.07464168 35.07272602 -7.41018095 23.90283087 -5.5625 16.625 C-5.24990234 15.35527344 -4.93730469 14.08554688 -4.61523438 12.77734375 C-4.31037109 11.56433594 -4.00550781 10.35132813 -3.69140625 9.1015625 C-3.41498291 8.00150879 -3.13855957 6.90145508 -2.85375977 5.76806641 C-2 3 -2 3 0 0 Z " fill="#B1664F" transform="translate(159,125)"/>
<path d="M0 0 C1.18142578 0.01595215 1.18142578 0.01595215 2.38671875 0.03222656 C8.02845375 0.21670382 13.55349396 0.77316848 18.0625 4.5 C19.34375 6.515625 19.34375 6.515625 20.0625 8.5 C19.7325 9.16 19.4025 9.82 19.0625 10.5 C12.4375 10.625 12.4375 10.625 9.0625 9.5 C6.19801491 9.40347622 3.36368925 9.36074097 0.5 9.375 C-0.67079102 9.36919922 -0.67079102 9.36919922 -1.86523438 9.36328125 C-6.03419875 9.26516735 -6.03419875 9.26516735 -9.9375 10.5 C-13 10.625 -13 10.625 -15.9375 10.5 C-16.9375 9.5 -16.9375 9.5 -17 6.9375 C-16.979375 6.133125 -16.95875 5.32875 -16.9375 4.5 C-11.04442058 1.12870372 -6.76240009 -0.16444403 0 0 Z " fill="#fff" transform="translate(194.9375,103.5)"/>
<path d="M0 0 C0.76441406 -0.02449219 1.52882813 -0.04898438 2.31640625 -0.07421875 C8.24962511 -0.10443888 11.99293402 1.41734011 17.125 4.375 C17.167721 6.04111905 17.16563832 7.70882885 17.125 9.375 C16.795 9.705 16.465 10.035 16.125 10.375 C14.48261373 10.14037339 12.84073059 9.90146849 11.20214844 9.64160156 C7.55864008 9.17395804 3.91815587 9.228327 0.25 9.25 C-0.93601807 9.25290039 -0.93601807 9.25290039 -2.14599609 9.25585938 C-7.45391802 9.29523403 -12.61804787 9.59619228 -17.875 10.375 C-18.205 8.725 -18.535 7.075 -18.875 5.375 C-13.16084822 0.53994849 -7.18587681 0.01199646 0 0 Z " fill="#fff" transform="translate(125.875,103.625)"/>
<path d="M0 0 C2.5 0.5625 2.5 0.5625 4.8125 1.875 C7.45458488 6.08276481 7.32011274 10.72309601 6.5 15.5625 C5.19140625 17.375 5.19140625 17.375 3.5 18.5625 C-2.49069767 19.31133721 -2.49069767 19.31133721 -5.4375 17.125 C-7.04580887 13.24613744 -7.16183845 9.69531345 -6.5 5.5625 C-4.65778609 2.2192229 -3.75145726 0.84407788 0 0 Z " fill="#30242B" transform="translate(126.5,122.4375)"/>
<path d="M0 0 C0.33 1.32 0.66 2.64 1 4 C-5.40151022 6.54385679 -10.94634706 7.44862516 -17.8125 7.3125 C-18.64458984 7.31572266 -19.47667969 7.31894531 -20.33398438 7.32226562 C-24.51705141 7.28536608 -27.29538782 7.09436438 -31 5 C-31 3.35 -31 1.7 -31 0 C-30.09290283 0.00785522 -30.09290283 0.00785522 -29.16748047 0.01586914 C-26.40333106 0.03677358 -23.63919835 0.04970279 -20.875 0.0625 C-19.92367187 0.07087891 -18.97234375 0.07925781 -17.9921875 0.08789062 C-12.17064204 0.10810432 -5.46436067 -1.89150946 0 0 Z " fill="#B36750" transform="translate(179,199)"/>
<path d="M0 0 C3.375 1.0625 3.375 1.0625 4.8125 2.6875 C5.86361479 7.12554024 5.88911722 10.72008282 4.25 15 C2.375 17.0625 2.375 17.0625 -0.5625 17.625 C-3.625 17.0625 -3.625 17.0625 -6 15.5625 C-8.25190252 12.09803459 -8.38338374 9.01860489 -7.625 5.0625 C-5.50241955 0.90224232 -4.72974233 0.08154728 0 0 Z " fill="#2F232A" transform="translate(195.625,123.9375)"/>
<path d="M0 0 C0.33 0.66 0.66 1.32 1 2 C1.99 2.28875 2.98 2.5775 4 2.875 C4.99 3.24625 5.98 3.6175 7 4 C7.875 6.125 7.875 6.125 8 8 C5.34487105 9.02120344 4.17063713 9.05826634 1.4375 8.125 C-3.31170106 6.57071602 -8.03504172 6.33570892 -13 6 C-13.33 5.01 -13.66 4.02 -14 3 C-11.31907309 0.31907309 -9.60832637 0.61329743 -5.875 0.375 C-4.77929688 0.30023438 -3.68359375 0.22546875 -2.5546875 0.1484375 C-1.71164063 0.09945312 -0.86859375 0.05046875 0 0 Z " fill="#fff" transform="translate(134,104)"/>
<path d="M0 0 C0.66 0 1.32 0 2 0 C5.45454545 10.36363636 5.45454545 10.36363636 5 15 C3 18.375 3 18.375 1 21 C0.01 20.67 -0.98 20.34 -2 20 C-1.86177801 16.85378318 -1.71314916 13.70814434 -1.5625 10.5625 C-1.52318359 9.66466797 -1.48386719 8.76683594 -1.44335938 7.84179688 C-1.40146484 6.98779297 -1.35957031 6.13378906 -1.31640625 5.25390625 C-1.27974854 4.46314697 -1.24309082 3.6723877 -1.20532227 2.85766602 C-1 1 -1 1 0 0 Z " fill="#fff" transform="translate(93,152)"/>
<path d="M0 0 C0.33 0 0.66 0 1 0 C1.33719047 2.56204544 1.66987153 5.12454318 2 7.6875 C2.09539062 8.40873047 2.19078125 9.12996094 2.2890625 9.87304688 C2.76683735 13.60992871 3.11919794 17.22291531 3 21 C1.23537317 17.91190305 1 16.76687864 1 13 C0.01 13.495 0.01 13.495 -1 14 C-1.47001033 17.27555608 -1.47001033 17.27555608 -1.625 21.0625 C-1.69976562 22.35285156 -1.77453125 23.64320313 -1.8515625 24.97265625 C-1.90054688 25.97167969 -1.94953125 26.97070312 -2 28 C-2.33 28 -2.66 28 -3 28 C-3.97159933 20.31395526 -4.10920422 12.74136601 -4 5 C-3.01 5 -2.02 5 -1 5 C-0.67 3.35 -0.34 1.7 0 0 Z " fill="#fff" transform="translate(94,139)"/>
<path d="M0 0 C0.33 0 0.66 0 1 0 C1 1.98 1 3.96 1 6 C2.093125 5.835 3.18625 5.67 4.3125 5.5 C8 5 8 5 11 5 C6.90712202 7.97663853 4.01879978 8.38606152 -1 8 C-2 7 -2 7 -2.1875 4.5625 C-2 2 -2 2 0 0 Z " fill="#FA9E75" transform="translate(234,162)"/>
<path d="M0 0 C1.30211046 3.90633137 0.47812346 6.19538173 -0.4375 10.1875 C-0.72496094 11.45980469 -1.01242188 12.73210937 -1.30859375 14.04296875 C-1.53675781 15.01878906 -1.76492187 15.99460937 -2 17 C-2.33 17 -2.66 17 -3 17 C-3.08097324 14.72975032 -3.13917704 12.45867925 -3.1875 10.1875 C-3.22230469 8.92292969 -3.25710937 7.65835937 -3.29296875 6.35546875 C-3 3 -3 3 -1.48828125 1.05078125 C-0.75158203 0.53064453 -0.75158203 0.53064453 0 0 Z " fill="#000" transform="translate(3,330)"/>
<path d="M0 0 C2 4 2 4 2 7 C1.34 7 0.68 7 0 7 C-0.12375 8.134375 -0.2475 9.26875 -0.375 10.4375 C-0.58125 11.613125 -0.7875 12.78875 -1 14 C-1.99 14.495 -1.99 14.495 -3 15 C-2.01 10.05 -1.02 5.1 0 0 Z " fill="#000" transform="translate(245,98)"/>
<path d="M0 0 C2 2 2 2 2.3125 4.9375 C2 8 2 8 -1 11 C-0.67 7.37 -0.34 3.74 0 0 Z " fill="#fff" transform="translate(77,53)"/>
<path d="M0 0 C0.66 0 1.32 0 2 0 C2.185625 1.2065625 2.185625 1.2065625 2.375 2.4375 C2.58125 3.283125 2.7875 4.12875 3 5 C3.66 5.33 4.32 5.66 5 6 C3.35 5.67 1.7 5.34 0 5 C0 3.35 0 1.7 0 0 Z " fill="#fff" transform="translate(178,108)"/>
</svg>
