<?xml version="1.0" encoding="UTF-8"?>
<svg version="1.1" xmlns="http://www.w3.org/2000/svg" width="307" height="387">
<path d="M0 0 C101.31 0 202.62 0 307 0 C307 127.71 307 255.42 307 387 C205.69 387 104.38 387 0 387 C0 259.29 0 131.58 0 0 Z " fill="#D67955" transform="translate(0,0)"/>
<path d="M0 0 C101.31 0 202.62 0 307 0 C307 118.14 307 236.28 307 358 C306.67 358 306.34 358 306 358 C305.76925781 357.05640625 305.53851563 356.1128125 305.30078125 355.140625 C302.27338046 343.08468797 298.52491261 332.06579219 291 322 C290.59652344 321.40832031 290.19304687 320.81664062 289.77734375 320.20703125 C282.15535862 310.02107558 268.51007982 304.36282717 257 300 C255.55004639 299.44892578 255.55004639 299.44892578 254.07080078 298.88671875 C239.19133985 293.2546885 239.19133985 293.2546885 224.16015625 288.046875 C202.17626712 280.78172689 202.17626712 280.78172689 197.4375 271.75 C193.28668586 261.81982264 193.36158566 249.53833627 195 239 C197.01833311 234.1497937 201.02188817 231.26025707 205 228 C212.53260126 218.45423136 216.28373092 205.44027931 220 194 C220.65226563 194.04640625 221.30453125 194.0928125 221.9765625 194.140625 C226.20728656 194.31534517 229.31013858 194.29186445 233.25 192.625 C241.40845559 184.8373833 245.01005706 174.3655538 245.375 163.25 C245.23104074 158.45135795 244.35128796 155.18006748 242 151 C241.195625 150.31550781 241.195625 150.31550781 240.375 149.6171875 C239 148 239 148 238.92578125 145.8203125 C239.11720703 144.48613281 239.11720703 144.48613281 239.3125 143.125 C242.27859934 115.59693201 237.94919159 88.26240097 220.6171875 65.9296875 C214.86445489 59.31133995 208.37468818 53.31536708 200.234375 49.80859375 C198 48 198 48 197.50390625 44.41015625 C197.50910523 42.96081522 197.529461 41.51147373 197.5625 40.0625 C197.38484534 30.91571187 195.25502587 23.91652149 189.140625 16.8515625 C179.6468971 7.85150845 167.57307678 5.46840578 154.87890625 5.6953125 C144.04771375 6.54610103 134.88233477 10.46326507 127 18 C122.08937586 24.58090446 119.70753635 31.66928094 119.875 39.875 C119.89304687 41.02742188 119.91109375 42.17984375 119.9296875 43.3671875 C119.95289062 44.23601563 119.97609375 45.10484375 120 46 C118.96101563 46.556875 117.92203125 47.11375 116.8515625 47.6875 C108.62581441 52.16134306 101.01137453 56.72115714 94 63 C93.3915625 63.515625 92.783125 64.03125 92.15625 64.5625 C78.2384895 77.21500954 69.82027063 98.1720309 68.796875 116.671875 C68.77232847 118.03111817 68.75714328 119.39055397 68.75 120.75 C68.74315186 121.47864258 68.73630371 122.20728516 68.72924805 122.95800781 C68.77717526 129.47888658 69.8142876 135.69617758 71.37207031 142.02246094 C71.83203125 144.171875 71.83203125 144.171875 72 148 C69.69921875 150.703125 69.69921875 150.703125 67 153 C63.1015422 160.35981579 64.25905097 169.55080754 66.625 177.25 C69.02484302 183.65240806 72.10578195 189.35385778 77.1875 194 C80.1236463 195.04396313 82.57797358 195.30794794 85.67578125 195.5625 C86.67134033 195.64628906 87.66689941 195.73007813 88.69262695 195.81640625 C89.45406006 195.87699219 90.21549316 195.93757812 91 196 C91.17539307 196.57331055 91.35078613 197.14662109 91.53149414 197.73730469 C96.74275288 214.57134166 102.32586661 227.32586661 115 240 C115.22923767 244.66566087 115.09804332 249.33127066 115 254 C114.97486328 255.71703125 114.97486328 255.71703125 114.94921875 257.46875 C114.64342923 264.80769851 113.3974053 270.97022455 109 277 C100.36617702 284.56766534 88.48131127 287.24724191 77.75 290.6875 C38.85802148 302.62703634 38.85802148 302.62703634 12.09643555 331.35498047 C4.82271192 346.51980528 2.86995838 362.46982642 1 379 C0.67 379 0.34 379 0 379 C0 253.93 0 128.86 0 0 Z " fill="#000" transform="translate(0,0)"/>
<path d="M0 0 C0.29390625 0.80050781 0.29390625 0.80050781 0.59375 1.6171875 C6.59950091 16.57979107 19.46042036 27.12965792 33.8671875 33.75 C51.50674747 40.78822842 69.058514 41.21713364 87 35 C87.91007813 34.69964844 88.82015625 34.39929688 89.7578125 34.08984375 C105.42847699 28.41598247 118.40506248 17.22966748 125.9375 2.375 C126.288125 1.59125 126.63875 0.8075 127 0 C136.28877533 2.20466344 145.12588145 5.49583173 154.03369141 8.87817383 C156.49160007 9.8093178 158.95448078 10.72631368 161.41796875 11.64257812 C182.63656795 19.61406834 198.47801884 29.22609084 208.42578125 50.35546875 C215.98473656 67.85548191 215 80.52182644 215 101 C113.69 101 12.38 101 -92 101 C-90.59872893 75.77712075 -88.01753837 48.45298868 -69.546875 29.26953125 C-54.70500816 16.04387997 -20.08784711 0 0 0 Z " fill="#FEA948" transform="translate(92,286)"/>
<path d="M0 0 C6.61793413 4.84830339 12.14569035 11.04656707 14.0625 19.1875 C14.50979965 24.84838512 14.29671184 30.52087463 14.0625 36.1875 C14.78050781 36.44660156 15.49851563 36.70570312 16.23828125 36.97265625 C32.38514757 43.91826541 43.5015527 59.66829634 50.00146484 75.47021484 C57.16759115 94.27289706 59.28297795 114.22510477 56.0625 134.1875 C55.0625 135.1875 55.0625 135.1875 51.25 135.4375 C47.91981311 135.81877363 47.24080205 136.01858227 44.6875 138.4375 C43.18507332 140.98006823 42.01927112 143.39691758 41.0625 146.1875 C40.4025 146.1875 39.7425 146.1875 39.0625 146.1875 C38.90394531 145.14851562 38.74539062 144.10953125 38.58203125 143.0390625 C36.09907065 127.78030756 30.95886984 116.75506789 18.11254883 107.45727539 C15.69600899 105.75262007 13.26284732 104.07329173 10.82324219 102.40185547 C-3.37093348 92.6123616 -14.90981573 82.14195444 -24.9375 68.1875 C-25.39898437 68.66993164 -25.86046875 69.15236328 -26.3359375 69.64941406 C-38.94267737 82.74821542 -51.63981165 93.83468158 -67.1875 103.25 C-79.21354624 110.58074587 -89.69909128 118.91943353 -93.46337891 133.1796875 C-94.47498771 137.48627929 -95.25664918 141.81572105 -95.9375 146.1875 C-96.9275 145.8575 -97.9175 145.5275 -98.9375 145.1875 C-99.9375 143.1875 -100.9375 141.1875 -101.9375 139.1875 C-105.10619423 136.01880577 -108.69197126 135.35255207 -112.9375 134.1875 C-118.47217434 109.70974384 -116.36259844 87.09121371 -103.01171875 65.16796875 C-93.88748869 52.05725775 -80.28696457 39.30398819 -64.9375 34.1875 C-64.98390625 33.36507812 -65.0303125 32.54265625 -65.078125 31.6953125 C-65.41819604 21.17740095 -63.36411865 13.24745734 -56.6796875 5 C-42.12821337 -10.13875336 -17.2285142 -10.72827345 0 0 Z " fill="#fff" transform="translate(183.9375,11.8125)"/>
<path d="M0 0 C2.413125 1.5778125 2.413125 1.5778125 4.875 3.1875 C19.98165008 12.76213737 33.94833267 17.83119952 52.0625 13.9375 C61.20161524 11.33693875 69.60969767 6.93048952 77 1 C77.66 1 78.32 1 79 1 C79 6.61 79 12.22 79 18 C78.67 18 78.34 18 78 18 C77.505 13.545 77.505 13.545 77 9 C75.8553125 10.5159375 75.8553125 10.5159375 74.6875 12.0625 C67.40627025 20.52585882 55.20858958 27.0850131 44 28 C43.2471875 28.07476562 42.494375 28.14953125 41.71875 28.2265625 C30.0365228 28.87939284 17.94839662 24.49000603 9 17 C6.55683493 14.74337081 4.28069921 12.42627576 2 10 C1.67 13.3 1.34 16.6 1 20 C0.67 20 0.34 20 0 20 C0 13.4 0 6.8 0 0 Z " fill="#B25A3C" transform="translate(115,240)"/>
<path d="M0 0 C0 2.25 0 2.25 -1 5 C-9.96033801 11.36435223 -21.51160444 10.71006462 -32 10 C-37.54757156 9.03664925 -41.5988172 7.52291987 -46 4 C-45.67 3.01 -45.34 2.02 -45 1 C-43.62476865 1.14363527 -42.24982598 1.29003517 -40.875 1.4375 C-40.10929688 1.51871094 -39.34359375 1.59992188 -38.5546875 1.68359375 C-36.73352155 1.909151 -34.91934568 2.19448853 -33.11328125 2.51953125 C-24.30150649 3.87944128 -15.86105728 3.47147669 -7.40234375 0.65625 C-4.83512969 -0.04503774 -2.64856235 -0.11330748 0 0 Z " fill="#AB583B" transform="translate(177,211)"/>
<path d="M0 0 C2 2 2 2 2.125 4.625 C2.08375 5.40875 2.0425 6.1925 2 7 C-2.75 6.125 -2.75 6.125 -5 5 C-6.81341842 4.91528636 -8.62994161 4.89278917 -10.4453125 4.90234375 C-11.52167969 4.90556641 -12.59804687 4.90878906 -13.70703125 4.91210938 C-15.39892578 4.92467773 -15.39892578 4.92467773 -17.125 4.9375 C-18.26066406 4.94201172 -19.39632812 4.94652344 -20.56640625 4.95117188 C-23.37765638 4.96298385 -26.1888023 4.97945493 -29 5 C-28.67 3.35 -28.34 1.7 -28 0 C-18.41693531 -3.88877988 -9.53751017 -4.48098538 0 0 Z " fill="#fff" transform="translate(203,133)"/>
<path d="M0 0 C0.69931641 -0.020625 1.39863281 -0.04125 2.11914062 -0.0625 C6.91056977 -0.09835728 10.08602236 0.80327864 14.1875 3.25 C13.8575 4.9 13.5275 6.55 13.1875 8.25 C12.094375 8.085 11.00125 7.92 9.875 7.75 C1.53718471 6.74473149 -5.20013745 6.52149589 -12.8125 10.25 C-14.1325 10.25 -15.4525 10.25 -16.8125 10.25 C-17.1875 8 -17.1875 8 -16.8125 5.25 C-11.31297555 0.85038044 -6.84292904 0.0496314 0 0 Z " fill="#fff" transform="translate(119.8125,129.75)"/>
<path d="M0 0 C2.68671327 2.40877741 2.98050369 3.82128379 3.375 7.4375 C2.97465182 11.24080767 2.57452839 13.16801877 0 16 C-3 16.5 -3 16.5 -6 16 C-8.03667615 14.45493534 -8.86073078 13.27853844 -10 11 C-10.41314256 6.3521462 -9.78987316 3.75559848 -7 0 C-4.24438552 -1.37780724 -2.90228766 -0.92023755 0 0 Z " fill="#34282E" transform="translate(124,152)"/>
<path d="M0 0 C3 0.5 3 0.5 4.875 2 C6.47568775 5.55708388 6.56627076 8.66194265 6 12.5 C4.875 15 4.875 15 3 16.5 C0 16.9375 0 16.9375 -3 16.5 C-5.127782 14.9016661 -5.90291128 14.01685464 -6.3984375 11.37890625 C-6.36301093 7.87758065 -6.29570238 5.17354432 -4.875 1.9375 C-3 0.5 -3 0.5 0 0 Z " fill="#31262C" transform="translate(188,151.5)"/>
<path d="M0 0 C5.75 1.875 5.75 1.875 8 3 C10.21138855 2.91188555 12.42042185 2.7570216 14.625 2.5625 C16.40777344 2.40974609 16.40777344 2.40974609 18.2265625 2.25390625 C19.59941406 2.12822266 19.59941406 2.12822266 21 2 C21.33 3.65 21.66 5.3 22 7 C18.06526665 8.83523011 14.8312028 9.32440184 10.5 9.375 C9.3965625 9.40335938 8.293125 9.43171875 7.15625 9.4609375 C3.3807525 8.90956534 1.73857775 7.58529915 -1 5 C-0.67 3.35 -0.34 1.7 0 0 Z " fill="#A9573B" transform="translate(143,188)"/>
<path d="M0 0 C0.73605469 0.06123047 1.47210938 0.12246094 2.23046875 0.18554688 C4.030013 0.33745645 5.82776611 0.51033799 7.625 0.6875 C7.295 1.6775 6.965 2.6675 6.625 3.6875 C5.46484375 3.77837891 5.46484375 3.77837891 4.28125 3.87109375 C-1.62749543 4.34642599 -7.50008141 4.89664557 -13.375 5.6875 C-13.705 4.6975 -14.035 3.7075 -14.375 2.6875 C-9.25382604 -0.45467141 -5.74476902 -0.58694295 0 0 Z " fill="#fff" transform="translate(188.375,131.3125)"/>
<path d="M0 0 C3.3 0 6.6 0 10 0 C8.515 1.485 8.515 1.485 7 3 C8.32 3.99 9.64 4.98 11 6 C6.38 6 1.76 6 -3 6 C-2.01 4.02 -1.02 2.04 0 0 Z " fill="#fff" transform="translate(116,130)"/>
<path d="M0 0 C1.12894876 0.93274109 2.25300876 1.87140122 3.375 2.8125 C4.00148438 3.33457031 4.62796875 3.85664063 5.2734375 4.39453125 C7 6 7 6 9 9 C6.04590299 7.62845496 3.55991624 6.01136276 1 4 C1.02320312 4.62648437 1.04640625 5.25296875 1.0703125 5.8984375 C1.08835937 6.71570313 1.10640625 7.53296875 1.125 8.375 C1.14820312 9.18710937 1.17140625 9.99921875 1.1953125 10.8359375 C1 13 1 13 -1 15 C-2 14 -2 14 -2.09765625 11.93359375 C-2.08605469 11.10988281 -2.07445313 10.28617187 -2.0625 9.4375 C-2.05347656 8.61121094 -2.04445313 7.78492188 -2.03515625 6.93359375 C-2.02355469 6.29550781 -2.01195313 5.65742188 -2 5 C-1.67 5 -1.34 5 -1 5 C-0.67 3.35 -0.34 1.7 0 0 Z " fill="#DA805D" transform="translate(116,249)"/>
<path d="M0 0 C2.97 0.495 2.97 0.495 6 1 C6.33 2.65 6.66 4.3 7 6 C5.125 6.625 5.125 6.625 3 7 C2.34 6.34 1.68 5.68 1 5 C1.66 3.68 2.32 2.36 3 1 C2.01 0.67 1.02 0.34 0 0 Z " fill="#fff" transform="translate(127,131)"/>
<path d="M0 0 C2.9375 0.375 2.9375 0.375 6 1 C6.33 1.66 6.66 2.32 7 3 C6.29296875 4.91015625 6.29296875 4.91015625 5.1875 7.0625 C4.83042969 7.77535156 4.47335938 8.48820312 4.10546875 9.22265625 C3 11 3 11 1 12 C1.309375 11.2575 1.61875 10.515 1.9375 9.75 C2.8094925 7.49307824 3.47667007 5.3549847 4 3 C2.68 2.34 1.36 1.68 0 1 C0 0.67 0 0.34 0 0 Z " fill="#CF6B4C" transform="translate(212,284)"/>
<path d="M0 0 C3 3 3 3 4 5 C3.0625 7.625 3.0625 7.625 2 10 C1.34 10 0.68 10 0 10 C0 6.7 0 3.4 0 0 Z " fill="#fff" transform="translate(223,148)"/>
<path d="M0 0 C1.32 0.33 2.64 0.66 4 1 C3.42415568 3.38564077 2.77772405 5.66682784 2 8 C0.23537317 4.91190305 0 3.76687864 0 0 Z " fill="#D16F4E" transform="translate(92,285)"/>
</svg>
